<svg width="110" height="123" viewBox="0 0 110 123" fill="none" xmlns="http://www.w3.org/2000/svg">
<path d="M10.34 4.83091C10.34 4.24896 10.2198 3.6727 9.98608 3.13505C9.75239 2.5974 9.40988 2.10887 8.97808 1.69737C8.54629 1.28587 8.03368 0.959444 7.46952 0.736741C6.90535 0.514038 6.30069 0.399414 5.69004 0.399414C4.45678 0.399414 3.27404 0.866302 2.40199 1.69737C1.52995 2.52843 1.04004 3.6556 1.04004 4.83091C1.04004 6.00621 1.52995 7.13338 2.40199 7.96444C3.27404 8.79551 4.45678 9.2624 5.69004 9.2624C6.30069 9.2624 6.90535 9.14777 7.46952 8.92507C8.03368 8.70237 8.54629 8.37594 8.97808 7.96444C9.40988 7.55294 9.75239 7.06442 9.98608 6.52677C10.2198 5.98911 10.34 5.41286 10.34 4.83091Z" stroke="#001133" stroke-opacity="0.5" stroke-width="0.5"/>
<path d="M30.6201 4.86862C30.6201 3.73123 30.146 2.64042 29.3021 1.83616C28.4582 1.03191 27.3136 0.580078 26.1201 0.580078C24.9266 0.580078 23.7821 1.03191 22.9381 1.83616C22.0942 2.64042 21.6201 3.73123 21.6201 4.86862C21.6201 6.00601 22.0942 7.09682 22.9381 7.90108C23.7821 8.70533 24.9266 9.15716 26.1201 9.15716C27.3136 9.15716 28.4582 8.70533 29.3021 7.90108C30.146 7.09682 30.6201 6.00601 30.6201 4.86862Z" stroke="#C3E7C5" stroke-width="0.5"/>
<path d="M51.1402 4.83077C51.1402 3.69591 50.6671 2.60752 49.8251 1.80505C48.983 1.00258 47.841 0.551758 46.6502 0.551758C46.0605 0.551758 45.4767 0.662438 44.9319 0.877479C44.3872 1.09252 43.8922 1.40771 43.4753 1.80505C43.0583 2.2024 42.7276 2.67411 42.5019 3.19326C42.2763 3.71241 42.1602 4.26884 42.1602 4.83077C42.1602 5.3927 42.2763 5.94912 42.5019 6.46828C42.7276 6.98743 43.0583 7.45914 43.4753 7.85648C43.8922 8.25383 44.3872 8.56902 44.9319 8.78406C45.4767 8.9991 46.0605 9.10978 46.6502 9.10978C47.841 9.10978 48.983 8.65895 49.8251 7.85648C50.6671 7.05401 51.1402 5.96563 51.1402 4.83077Z" stroke="#C3E7C5" stroke-width="0.5"/>
<path d="M89.6397 4.90765C89.6397 3.78037 89.1698 2.69926 88.3334 1.90215C87.497 1.10504 86.3626 0.657227 85.1797 0.657227C83.9969 0.657227 82.8624 1.10504 82.026 1.90215C81.1896 2.69926 80.7197 3.78037 80.7197 4.90765C80.7197 5.46582 80.8351 6.01853 81.0592 6.53421C81.2834 7.0499 81.6119 7.51846 82.026 7.91315C82.4402 8.30784 82.9318 8.62092 83.473 8.83452C84.0141 9.04812 84.594 9.15807 85.1797 9.15807C85.7654 9.15807 86.3454 9.04812 86.8865 8.83452C87.4276 8.62092 87.9193 8.30784 88.3334 7.91315C88.7476 7.51846 89.0761 7.0499 89.3002 6.53421C89.5244 6.01853 89.6397 5.46582 89.6397 4.90765Z" stroke="#C3E7C5" stroke-width="0.5"/>
<path d="M30.4298 23.519C30.4298 22.3917 29.9599 21.3106 29.1235 20.5135C28.2871 19.7164 27.1526 19.2686 25.9698 19.2686C24.7869 19.2686 23.6525 19.7164 22.8161 20.5135C21.9797 21.3106 21.5098 22.3917 21.5098 23.519C21.5098 24.6463 21.9797 25.7274 22.8161 26.5245C23.6525 27.3216 24.7869 27.7694 25.9698 27.7694C27.1526 27.7694 28.2871 27.3216 29.1235 26.5245C29.9599 25.7274 30.4298 24.6463 30.4298 23.519Z" stroke="#C3E7C5" stroke-width="0.5"/>
<path d="M51.0396 23.5192C51.0396 22.9623 50.9245 22.4108 50.7009 21.8963C50.4773 21.3818 50.1495 20.9143 49.7363 20.5204C49.3231 20.1266 48.8325 19.8143 48.2926 19.6011C47.7527 19.388 47.174 19.2783 46.5896 19.2783C45.4094 19.2783 44.2776 19.7251 43.443 20.5204C42.6085 21.3158 42.1396 22.3945 42.1396 23.5192C42.1396 24.644 42.6085 25.7227 43.443 26.518C44.2776 27.3133 45.4094 27.7601 46.5896 27.7601C47.174 27.7601 47.7527 27.6504 48.2926 27.4373C48.8325 27.2242 49.3231 26.9118 49.7363 26.518C50.1495 26.1242 50.4773 25.6567 50.7009 25.1421C50.9245 24.6276 51.0396 24.0761 51.0396 23.5192Z" stroke="#C3E7C5" stroke-width="0.5"/>
<path d="M10.1895 23.5951C10.1895 22.4679 9.71964 21.3868 8.88323 20.5896C8.04682 19.7925 6.9124 19.3447 5.72953 19.3447C4.54667 19.3447 3.41225 19.7925 2.57584 20.5896C1.73942 21.3868 1.26953 22.4679 1.26953 23.5951C1.26953 24.7224 1.73942 25.8035 2.57584 26.6006C3.41225 27.3978 4.54667 27.8456 5.72953 27.8456C6.9124 27.8456 8.04682 27.3978 8.88323 26.6006C9.71964 25.8035 10.1895 24.7224 10.1895 23.5951Z" stroke="#C3E7C5" stroke-width="0.5"/>
<path d="M89.6797 23.5478C89.6797 22.4155 89.2077 21.3295 88.3676 20.5288C87.5274 19.7281 86.3879 19.2783 85.1997 19.2783C84.0116 19.2783 82.872 19.7281 82.0319 20.5288C81.1917 21.3295 80.7197 22.4155 80.7197 23.5478C80.7197 24.6801 81.1917 25.7661 82.0319 26.5668C82.872 27.3675 84.0116 27.8173 85.1997 27.8173C86.3879 27.8173 87.5274 27.3675 88.3676 26.5668C89.2077 25.7661 89.6797 24.6801 89.6797 23.5478Z" stroke="#C3E7C5" stroke-width="0.5"/>
<path d="M69.8899 23.5571C69.8899 22.6396 69.5074 21.7597 68.8267 21.1109C68.1459 20.4621 67.2226 20.0977 66.2599 20.0977C65.2972 20.0977 64.3738 20.4621 63.6931 21.1109C63.0123 21.7597 62.6299 22.6396 62.6299 23.5571C62.6299 24.4746 63.0123 25.3545 63.6931 26.0033C64.3738 26.652 65.2972 27.0165 66.2599 27.0165C67.2226 27.0165 68.1459 26.652 68.8267 26.0033C69.5074 25.3545 69.8899 24.4746 69.8899 23.5571Z" stroke="#C3E7C5" stroke-width="0.5"/>
<path d="M10.1602 42.122C10.1602 40.9897 9.6882 39.9037 8.84803 39.103C8.00787 38.3024 6.86836 37.8525 5.68019 37.8525C4.49203 37.8525 3.35252 38.3024 2.51236 39.103C1.67219 39.9037 1.2002 40.9897 1.2002 42.122C1.2002 42.6827 1.31607 43.2379 1.54121 43.7559C1.76636 44.2739 2.09635 44.7445 2.51236 45.141C2.92836 45.5375 3.42223 45.8519 3.96577 46.0665C4.50931 46.2811 5.09187 46.3915 5.68019 46.3915C6.26852 46.3915 6.85108 46.2811 7.39462 46.0665C7.93816 45.8519 8.43203 45.5375 8.84803 45.141C9.26404 44.7445 9.59403 44.2739 9.81917 43.7559C10.0443 43.2379 10.1602 42.6827 10.1602 42.122Z" stroke="#C3E7C5" stroke-width="0.5"/>
<path d="M30.68 42.1502C30.68 40.985 30.1943 39.8675 29.3297 39.0436C28.4652 38.2197 27.2926 37.7568 26.07 37.7568C24.8473 37.7568 23.6747 38.2197 22.8102 39.0436C21.9457 39.8675 21.46 40.985 21.46 42.1502C21.46 43.3154 21.9457 44.4329 22.8102 45.2568C23.6747 46.0807 24.8473 46.5436 26.07 46.5436C27.2926 46.5436 28.4652 46.0807 29.3297 45.2568C30.1943 44.4329 30.68 43.3154 30.68 42.1502Z" stroke="#001133" stroke-opacity="0.5" stroke-width="0.5"/>
<path d="M51.1203 42.1508C51.1203 41.5976 51.0059 41.0499 50.7838 40.5388C50.5617 40.0277 50.2361 39.5634 49.8257 39.1722C49.4152 38.7811 48.928 38.4708 48.3917 38.2591C47.8555 38.0474 47.2807 37.9385 46.7003 37.9385C45.528 37.9385 44.4038 38.3823 43.5749 39.1722C42.7459 39.9622 42.2803 41.0336 42.2803 42.1508C42.2803 42.7039 42.3946 43.2517 42.6167 43.7628C42.8388 44.2738 43.1644 44.7382 43.5749 45.1293C43.9853 45.5205 44.4726 45.8307 45.0088 46.0424C45.5451 46.2541 46.1198 46.3631 46.7003 46.3631C47.2807 46.3631 47.8555 46.2541 48.3917 46.0424C48.928 45.8307 49.4152 45.5205 49.8257 45.1293C50.2361 44.7382 50.5617 44.2738 50.7838 43.7628C51.0059 43.2517 51.1203 42.7039 51.1203 42.1508Z" stroke="#C3E7C5" stroke-width="0.5"/>
<path d="M89.6105 42.2177C89.6105 41.0955 89.1427 40.0192 88.31 39.2257C87.4774 38.4321 86.348 37.9863 85.1705 37.9863C83.9929 37.9863 82.8636 38.4321 82.0309 39.2257C81.1983 40.0192 80.7305 41.0955 80.7305 42.2177C80.7305 43.3399 81.1983 44.4162 82.0309 45.2097C82.8636 46.0032 83.9929 46.449 85.1705 46.449C86.348 46.449 87.4774 46.0032 88.31 45.2097C89.1427 44.4162 89.6105 43.3399 89.6105 42.2177Z" stroke="#C3E7C5" stroke-width="0.5"/>
<path d="M89.9 60.9064C89.9 60.3157 89.7779 59.7308 89.5407 59.185C89.3035 58.6393 88.9558 58.1434 88.5175 57.7257C88.0792 57.308 87.5589 56.9767 86.9862 56.7506C86.4136 56.5246 85.7998 56.4082 85.18 56.4082C84.5601 56.4082 83.9464 56.5246 83.3737 56.7506C82.801 56.9767 82.2807 57.308 81.8424 57.7257C81.4041 58.1434 81.0565 58.6393 80.8193 59.185C80.582 59.7308 80.46 60.3157 80.46 60.9064C80.46 62.0994 80.9572 63.2435 81.8424 64.0871C82.7276 64.9307 83.9281 65.4046 85.18 65.4046C86.4318 65.4046 87.6323 64.9307 88.5175 64.0871C89.4027 63.2435 89.9 62.0994 89.9 60.9064Z" stroke="#001133" stroke-opacity="0.5" stroke-width="0.5"/>
<path d="M10.1997 60.8776C10.1997 60.3157 10.0836 59.7593 9.85795 59.2401C9.6323 58.721 9.30157 58.2493 8.88464 57.8519C8.4677 57.4546 7.97273 57.1394 7.42797 56.9244C6.88322 56.7093 6.29936 56.5986 5.70973 56.5986C5.12009 56.5986 4.53623 56.7093 3.99148 56.9244C3.44673 57.1394 2.95175 57.4546 2.53482 57.8519C2.11788 58.2493 1.78715 58.721 1.56151 59.2401C1.33586 59.7593 1.21973 60.3157 1.21973 60.8776C1.21973 62.0125 1.69278 63.1009 2.53482 63.9034C3.37686 64.7058 4.5189 65.1567 5.70973 65.1567C6.90055 65.1567 8.0426 64.7058 8.88464 63.9034C9.72667 63.1009 10.1997 62.0125 10.1997 60.8776Z" stroke="#C3E7C5" stroke-width="0.5"/>
<path d="M30.72 60.9061C30.72 59.7409 30.2343 58.6234 29.3698 57.7995C28.5052 56.9756 27.3326 56.5127 26.11 56.5127C24.8874 56.5127 23.7148 56.9756 22.8502 57.7995C21.9857 58.6234 21.5 59.7409 21.5 60.9061C21.5 62.0713 21.9857 63.1887 22.8502 64.0126C23.7148 64.8366 24.8874 65.2994 26.11 65.2994C27.3326 65.2994 28.5052 64.8366 29.3698 64.0126C30.2343 63.1887 30.72 62.0713 30.72 60.9061Z" stroke="#001133" stroke-opacity="0.5" stroke-width="0.5"/>
<path d="M51.0803 60.9442C51.0803 59.8321 50.6167 58.7655 49.7915 57.9791C48.9664 57.1928 47.8472 56.751 46.6803 56.751C45.5133 56.751 44.3942 57.1928 43.569 57.9791C42.7438 58.7655 42.2803 59.8321 42.2803 60.9442C42.2803 62.0563 42.7438 63.1229 43.569 63.9093C44.3942 64.6957 45.5133 65.1375 46.6803 65.1375C47.8472 65.1375 48.9664 64.6957 49.7915 63.9093C50.6167 63.1229 51.0803 62.0563 51.0803 60.9442Z" stroke="#C3E7C5" stroke-width="0.5"/>
<path d="M30.7897 79.652C30.7897 78.4741 30.2988 77.3445 29.4248 76.5117C28.5509 75.6788 27.3656 75.2109 26.1297 75.2109C25.5178 75.2109 24.9118 75.3258 24.3464 75.549C23.781 75.7722 23.2673 76.0993 22.8346 76.5117C22.4019 76.9241 22.0586 77.4136 21.8244 77.9525C21.5903 78.4913 21.4697 79.0688 21.4697 79.652C21.4697 80.2352 21.5903 80.8126 21.8244 81.3515C22.0586 81.8903 22.4019 82.3798 22.8346 82.7922C23.2673 83.2046 23.781 83.5317 24.3464 83.7549C24.9118 83.9781 25.5178 84.093 26.1297 84.093C26.7417 84.093 27.3477 83.9781 27.913 83.7549C28.4784 83.5317 28.9921 83.2046 29.4248 82.7922C29.8576 82.3798 30.2008 81.8903 30.435 81.3515C30.6692 80.8126 30.7897 80.2352 30.7897 79.652Z" stroke="#001133" stroke-opacity="0.5" stroke-width="0.5"/>
<path d="M89.8698 79.7086C89.8698 78.5308 89.3788 77.4012 88.5049 76.5683C87.631 75.7355 86.4457 75.2676 85.2098 75.2676C83.9739 75.2676 82.7886 75.7355 81.9147 76.5683C81.0408 77.4012 80.5498 78.5308 80.5498 79.7086C80.5498 80.8864 81.0408 82.016 81.9147 82.8489C82.7886 83.6817 83.9739 84.1496 85.2098 84.1496C86.4457 84.1496 87.631 83.6817 88.5049 82.8489C89.3788 82.016 89.8698 80.8864 89.8698 79.7086Z" stroke="#001133" stroke-opacity="0.5" stroke-width="0.5"/>
<path d="M10.1802 79.737C10.1802 78.6022 9.70714 77.5138 8.8651 76.7113C8.02307 75.9088 6.88102 75.458 5.6902 75.458C4.49937 75.458 3.35732 75.9088 2.51529 76.7113C1.67325 77.5138 1.2002 78.6022 1.2002 79.737C1.2002 80.299 1.31633 80.8554 1.54198 81.3745C1.76762 81.8937 2.09835 82.3654 2.51529 82.7627C2.93222 83.1601 3.42719 83.4753 3.97195 83.6903C4.5167 83.9053 5.10056 84.016 5.6902 84.016C6.27983 84.016 6.86369 83.9053 7.40844 83.6903C7.9532 83.4753 8.44817 83.1601 8.8651 82.7627C9.28204 82.3654 9.61277 81.8937 9.83842 81.3745C10.0641 80.8554 10.1802 80.299 10.1802 79.737Z" stroke="#C3E7C5" stroke-width="0.5"/>
<path d="M51.07 79.6803C51.07 79.1284 50.9559 78.5819 50.7343 78.072C50.5127 77.5621 50.1878 77.0988 49.7783 76.7085C49.3688 76.3182 48.8827 76.0087 48.3476 75.7975C47.8126 75.5862 47.2391 75.4775 46.66 75.4775C45.4904 75.4775 44.3687 75.9203 43.5417 76.7085C42.7146 77.4967 42.25 78.5657 42.25 79.6803C42.25 80.7949 42.7146 81.8639 43.5417 82.6521C44.3687 83.4403 45.4904 83.8831 46.66 83.8831C47.2391 83.8831 47.8126 83.7744 48.3476 83.5632C48.8827 83.3519 49.3688 83.0424 49.7783 82.6521C50.1878 82.2618 50.5127 81.7985 50.7343 81.2886C50.9559 80.7787 51.07 80.2322 51.07 79.6803Z" stroke="#C3E7C5" stroke-width="0.5"/>
<path d="M109.65 79.0794C109.65 78.119 109.249 77.1979 108.537 76.5187C107.824 75.8396 106.858 75.458 105.85 75.458C104.842 75.458 103.875 75.8396 103.163 76.5187C102.45 77.1979 102.05 78.119 102.05 79.0794C102.05 80.0399 102.45 80.961 103.163 81.6402C103.875 82.3193 104.842 82.7009 105.85 82.7009C106.858 82.7009 107.824 82.3193 108.537 81.6402C109.249 80.961 109.65 80.0399 109.65 79.0794Z" stroke="#001133" stroke-opacity="0.5" stroke-width="0.5"/>
<path d="M69.9504 79.3373C69.9504 78.4199 69.568 77.5399 68.8872 76.8912C68.2065 76.2424 67.2832 75.8779 66.3204 75.8779C65.8437 75.8779 65.3717 75.9674 64.9313 76.1413C64.4909 76.3151 64.0907 76.5699 63.7536 76.8912C63.4166 77.2124 63.1492 77.5938 62.9667 78.0135C62.7843 78.4332 62.6904 78.8831 62.6904 79.3373C62.6904 79.7916 62.7843 80.2415 62.9667 80.6612C63.1492 81.0809 63.4166 81.4623 63.7536 81.7835C64.0907 82.1048 64.4909 82.3596 64.9313 82.5334C65.3717 82.7073 65.8437 82.7968 66.3204 82.7968C67.2832 82.7968 68.2065 82.4323 68.8872 81.7835C69.568 81.1348 69.9504 80.2548 69.9504 79.3373Z" stroke="#C3E7C5" stroke-width="0.5"/>
<path d="M30.8595 98.4545C30.8595 97.2741 30.3675 96.1421 29.4917 95.3074C28.6159 94.4728 27.4281 94.0039 26.1895 94.0039C24.951 94.0039 23.7631 94.4728 22.8873 95.3074C22.0115 96.1421 21.5195 97.2741 21.5195 98.4545C21.5195 99.0389 21.6403 99.6176 21.875 100.158C22.1097 100.698 22.4537 101.188 22.8873 101.601C23.321 102.015 23.8358 102.343 24.4024 102.566C24.969 102.79 25.5763 102.905 26.1895 102.905C26.8028 102.905 27.4101 102.79 27.9767 102.566C28.5433 102.343 29.0581 102.015 29.4917 101.601C29.9254 101.188 30.2694 100.698 30.504 100.158C30.7387 99.6176 30.8595 99.0389 30.8595 98.4545Z" stroke="#001133" stroke-opacity="0.5" stroke-width="0.5"/>
<path d="M51.3304 98.3689C51.3304 97.2138 50.8489 96.1061 49.9919 95.2893C49.1349 94.4725 47.9725 94.0137 46.7604 94.0137C45.5484 94.0137 44.386 94.4725 43.5289 95.2893C42.6719 96.1061 42.1904 97.2138 42.1904 98.3689C42.1904 99.524 42.6719 100.632 43.5289 101.449C44.386 102.265 45.5484 102.724 46.7604 102.724C47.9725 102.724 49.1349 102.265 49.9919 101.449C50.8489 100.632 51.3304 99.524 51.3304 98.3689Z" stroke="#001133" stroke-opacity="0.5" stroke-width="0.5"/>
<path d="M89.8502 98.5304C89.8502 97.3475 89.3572 96.2131 88.4795 95.3766C87.6018 94.5402 86.4114 94.0703 85.1702 94.0703C83.929 94.0703 82.7386 94.5402 81.861 95.3766C80.9833 96.2131 80.4902 97.3475 80.4902 98.5304C80.4902 99.7133 80.9833 100.848 81.861 101.684C82.7386 102.521 83.929 102.99 85.1702 102.99C86.4114 102.99 87.6018 102.521 88.4795 101.684C89.3572 100.848 89.8502 99.7133 89.8502 98.5304Z" stroke="#001133" stroke-opacity="0.5" stroke-width="0.5"/>
<path d="M10.1996 98.4548C10.1996 97.8879 10.0825 97.3265 9.85482 96.8027C9.62717 96.2789 9.29349 95.803 8.87284 95.4022C8.45219 95.0013 7.95281 94.6833 7.4032 94.4663C6.8536 94.2494 6.26454 94.1377 5.66965 94.1377C5.07476 94.1377 4.4857 94.2494 3.93609 94.4663C3.38649 94.6833 2.8871 95.0013 2.46645 95.4022C2.0458 95.803 1.71213 96.2789 1.48447 96.8027C1.25682 97.3265 1.13965 97.8879 1.13965 98.4548C1.13965 99.5998 1.61691 100.698 2.46645 101.507C3.31599 102.317 4.46822 102.772 5.66965 102.772C6.87108 102.772 8.0233 102.317 8.87284 101.507C9.72238 100.698 10.1996 99.5998 10.1996 98.4548Z" stroke="#C3E7C5" stroke-width="0.5"/>
<path d="M10.32 117.39C10.32 116.212 9.82904 115.083 8.95512 114.25C8.0812 113.417 6.89591 112.949 5.66 112.949C4.42409 112.949 3.2388 113.417 2.36488 114.25C1.49096 115.083 1 116.212 1 117.39C1 118.568 1.49096 119.698 2.36488 120.531C3.2388 121.363 4.42409 121.831 5.66 121.831C6.89591 121.831 8.0812 121.363 8.95512 120.531C9.82904 119.698 10.32 118.568 10.32 117.39Z" stroke="#001133" stroke-opacity="0.5" stroke-width="0.5"/>
<path d="M30.7696 117.391C30.7696 116.205 30.2755 115.068 29.396 114.23C28.5164 113.392 27.3235 112.921 26.0796 112.921C24.8358 112.921 23.6429 113.392 22.7633 114.23C21.8838 115.068 21.3896 116.205 21.3896 117.391C21.3896 118.576 21.8838 119.713 22.7633 120.551C23.6429 121.389 24.8358 121.86 26.0796 121.86C27.3235 121.86 28.5164 121.389 29.396 120.551C30.2755 119.713 30.7696 118.576 30.7696 117.391Z" stroke="#001133" stroke-opacity="0.5" stroke-width="0.5"/>
<path d="M89.8405 117.391C89.8405 116.805 89.7194 116.225 89.4842 115.684C89.249 115.143 88.9043 114.651 88.4697 114.237C88.0352 113.823 87.5192 113.494 86.9514 113.27C86.3836 113.046 85.7751 112.931 85.1605 112.931C84.5459 112.931 83.9373 113.046 83.3695 113.27C82.8017 113.494 82.2858 113.823 81.8512 114.237C81.4166 114.651 81.0719 115.143 80.8367 115.684C80.6015 116.225 80.4805 116.805 80.4805 117.391C80.4805 117.976 80.6015 118.556 80.8367 119.098C81.0719 119.639 81.4166 120.13 81.8512 120.544C82.2858 120.959 82.8017 121.287 83.3695 121.511C83.9373 121.735 84.5459 121.851 85.1605 121.851C85.7751 121.851 86.3836 121.735 86.9514 121.511C87.5192 121.287 88.0352 120.959 88.4697 120.544C88.9043 120.13 89.249 119.639 89.4842 119.098C89.7194 118.556 89.8405 117.976 89.8405 117.391Z" stroke="#001133" stroke-opacity="0.5" stroke-width="0.5"/>
<path d="M10.34 4.83091C10.34 5.41286 10.2198 5.98911 9.98608 6.52677C9.75239 7.06442 9.40988 7.55294 8.97808 7.96444C8.54629 8.37594 8.03368 8.70237 7.46952 8.92507C6.90535 9.14777 6.30069 9.2624 5.69004 9.2624C4.45678 9.2624 3.27404 8.79551 2.40199 7.96444C1.52995 7.13338 1.04004 6.00621 1.04004 4.83091C1.04004 3.6556 1.52995 2.52843 2.40199 1.69737C3.27404 0.866302 4.45678 0.399414 5.69004 0.399414C6.30069 0.399414 6.90535 0.514038 7.46952 0.736741C8.03368 0.959444 8.54629 1.28587 8.97808 1.69737C9.40988 2.10887 9.75239 2.5974 9.98608 3.13505C10.2198 3.6727 10.34 4.24896 10.34 4.83091Z" fill="#001133" fill-opacity="0.5"/>
<path d="M30.6201 4.86862C30.6201 6.00601 30.146 7.09682 29.3021 7.90108C28.4582 8.70533 27.3136 9.15716 26.1201 9.15716C24.9266 9.15716 23.7821 8.70533 22.9381 7.90108C22.0942 7.09682 21.6201 6.00601 21.6201 4.86862C21.6201 3.73123 22.0942 2.64042 22.9381 1.83616C23.7821 1.03191 24.9266 0.580078 26.1201 0.580078C27.3136 0.580078 28.4582 1.03191 29.3021 1.83616C30.146 2.64042 30.6201 3.73123 30.6201 4.86862Z" fill="#C3E7C5"/>
<path d="M51.1402 4.83077C51.1402 5.96563 50.6671 7.05401 49.8251 7.85648C48.983 8.65895 47.841 9.10978 46.6502 9.10978C46.0605 9.10978 45.4767 8.9991 44.9319 8.78406C44.3872 8.56902 43.8922 8.25383 43.4753 7.85648C43.0583 7.45914 42.7276 6.98743 42.5019 6.46828C42.2763 5.94912 42.1602 5.3927 42.1602 4.83077C42.1602 4.26884 42.2763 3.71241 42.5019 3.19326C42.7276 2.67411 43.0583 2.2024 43.4753 1.80505C43.8922 1.40771 44.3872 1.09252 44.9319 0.877479C45.4767 0.662438 46.0605 0.551758 46.6502 0.551758C47.841 0.551758 48.983 1.00258 49.8251 1.80505C50.6671 2.60752 51.1402 3.69591 51.1402 4.83077Z" fill="#C3E7C5"/>
<path d="M89.6397 4.90765C89.6397 5.46582 89.5244 6.01853 89.3002 6.53421C89.0761 7.0499 88.7476 7.51846 88.3334 7.91315C87.9193 8.30784 87.4276 8.62092 86.8865 8.83452C86.3454 9.04812 85.7654 9.15807 85.1797 9.15807C84.594 9.15807 84.0141 9.04812 83.473 8.83452C82.9318 8.62092 82.4402 8.30784 82.026 7.91315C81.6119 7.51846 81.2834 7.0499 81.0592 6.53421C80.8351 6.01853 80.7197 5.46582 80.7197 4.90765C80.7197 3.78037 81.1896 2.69925 82.026 1.90215C82.8624 1.10504 83.9969 0.657227 85.1797 0.657227C86.3626 0.657227 87.497 1.10504 88.3334 1.90215C89.1698 2.69925 89.6397 3.78037 89.6397 4.90765Z" fill="#C3E7C5"/>
<path d="M30.4298 23.519C30.4298 24.6463 29.9599 25.7274 29.1235 26.5245C28.2871 27.3216 27.1526 27.7694 25.9698 27.7694C24.7869 27.7694 23.6525 27.3216 22.8161 26.5245C21.9797 25.7274 21.5098 24.6463 21.5098 23.519C21.5098 22.3917 21.9797 21.3106 22.8161 20.5135C23.6525 19.7164 24.7869 19.2686 25.9698 19.2686C27.1526 19.2686 28.2871 19.7164 29.1235 20.5135C29.9599 21.3106 30.4298 22.3917 30.4298 23.519Z" fill="#C3E7C5"/>
<path d="M51.0396 23.5192C51.0396 24.0761 50.9245 24.6276 50.7009 25.1421C50.4773 25.6567 50.1495 26.1242 49.7363 26.518C49.3231 26.9118 48.8325 27.2242 48.2926 27.4373C47.7527 27.6504 47.174 27.7601 46.5896 27.7601C45.4094 27.7601 44.2776 27.3133 43.443 26.518C42.6085 25.7227 42.1396 24.644 42.1396 23.5192C42.1396 22.3945 42.6085 21.3158 43.443 20.5204C44.2776 19.7251 45.4094 19.2783 46.5896 19.2783C47.174 19.2783 47.7527 19.388 48.2926 19.6011C48.8325 19.8143 49.3231 20.1266 49.7363 20.5204C50.1495 20.9143 50.4773 21.3818 50.7009 21.8963C50.9245 22.4108 51.0396 22.9623 51.0396 23.5192Z" fill="#C3E7C5"/>
<path d="M10.1895 23.5951C10.1895 24.7224 9.71964 25.8035 8.88323 26.6006C8.04682 27.3978 6.9124 27.8456 5.72953 27.8456C4.54667 27.8456 3.41225 27.3978 2.57584 26.6006C1.73942 25.8035 1.26953 24.7224 1.26953 23.5951C1.26953 22.4679 1.73942 21.3868 2.57584 20.5896C3.41225 19.7925 4.54667 19.3447 5.72953 19.3447C6.9124 19.3447 8.04682 19.7925 8.88323 20.5896C9.71964 21.3868 10.1895 22.4679 10.1895 23.5951Z" fill="#C3E7C5"/>
<path d="M89.6797 23.5478C89.6797 24.6801 89.2077 25.7661 88.3676 26.5668C87.5274 27.3675 86.3879 27.8173 85.1997 27.8173C84.0116 27.8173 82.872 27.3675 82.0319 26.5668C81.1917 25.7661 80.7197 24.6801 80.7197 23.5478C80.7197 22.4155 81.1917 21.3295 82.0319 20.5288C82.872 19.7281 84.0116 19.2783 85.1997 19.2783C86.3879 19.2783 87.5274 19.7281 88.3676 20.5288C89.2077 21.3295 89.6797 22.4155 89.6797 23.5478Z" fill="#C3E7C5"/>
<path d="M69.8899 23.5571C69.8899 24.4746 69.5074 25.3545 68.8267 26.0033C68.1459 26.652 67.2226 27.0165 66.2599 27.0165C65.2972 27.0165 64.3738 26.652 63.6931 26.0033C63.0123 25.3545 62.6299 24.4746 62.6299 23.5571C62.6299 22.6396 63.0123 21.7597 63.6931 21.1109C64.3738 20.4621 65.2972 20.0977 66.2599 20.0977C67.2226 20.0977 68.1459 20.4621 68.8267 21.1109C69.5074 21.7597 69.8899 22.6396 69.8899 23.5571Z" fill="#C3E7C5"/>
<path d="M10.1602 42.122C10.1602 42.6827 10.0443 43.2379 9.81917 43.7559C9.59403 44.2739 9.26404 44.7445 8.84803 45.141C8.43203 45.5375 7.93816 45.8519 7.39462 46.0665C6.85108 46.2811 6.26852 46.3915 5.68019 46.3915C5.09187 46.3915 4.50931 46.2811 3.96577 46.0665C3.42223 45.8519 2.92836 45.5375 2.51236 45.141C2.09635 44.7445 1.76636 44.2739 1.54121 43.7559C1.31607 43.2379 1.2002 42.6827 1.2002 42.122C1.2002 40.9897 1.67219 39.9037 2.51236 39.103C3.35252 38.3024 4.49202 37.8525 5.68019 37.8525C6.86836 37.8525 8.00787 38.3024 8.84803 39.103C9.6882 39.9037 10.1602 40.9897 10.1602 42.122Z" fill="#C3E7C5"/>
<path d="M30.68 42.1502C30.68 43.3154 30.1943 44.4329 29.3297 45.2568C28.4652 46.0807 27.2926 46.5436 26.07 46.5436C24.8473 46.5436 23.6747 46.0807 22.8102 45.2568C21.9457 44.4329 21.46 43.3154 21.46 42.1502C21.46 40.985 21.9457 39.8675 22.8102 39.0436C23.6747 38.2197 24.8473 37.7568 26.07 37.7568C27.2926 37.7568 28.4652 38.2197 29.3297 39.0436C30.1943 39.8675 30.68 40.985 30.68 42.1502Z" fill="#001133" fill-opacity="0.5"/>
<path d="M51.1203 42.1508C51.1203 42.7039 51.0059 43.2517 50.7838 43.7628C50.5617 44.2738 50.2361 44.7382 49.8257 45.1293C49.4152 45.5205 48.928 45.8307 48.3917 46.0424C47.8555 46.2541 47.2807 46.3631 46.7003 46.3631C46.1198 46.3631 45.5451 46.2541 45.0088 46.0424C44.4726 45.8307 43.9853 45.5205 43.5749 45.1293C43.1644 44.7382 42.8388 44.2738 42.6167 43.7628C42.3946 43.2517 42.2803 42.7039 42.2803 42.1508C42.2803 41.0336 42.7459 39.9622 43.5749 39.1722C44.4038 38.3823 45.528 37.9385 46.7003 37.9385C47.2807 37.9385 47.8555 38.0474 48.3917 38.2591C48.928 38.4708 49.4152 38.7811 49.8257 39.1722C50.2361 39.5634 50.5617 40.0277 50.7838 40.5388C51.0059 41.0499 51.1203 41.5976 51.1203 42.1508Z" fill="#C3E7C5"/>
<path d="M89.6105 42.2177C89.6105 43.3399 89.1427 44.4162 88.31 45.2097C87.4774 46.0032 86.348 46.449 85.1705 46.449C83.9929 46.449 82.8636 46.0032 82.0309 45.2097C81.1983 44.4162 80.7305 43.3399 80.7305 42.2177C80.7305 41.0955 81.1983 40.0192 82.0309 39.2257C82.8636 38.4321 83.9929 37.9863 85.1705 37.9863C86.348 37.9863 87.4774 38.4321 88.31 39.2257C89.1427 40.0192 89.6105 41.0955 89.6105 42.2177Z" fill="#C3E7C5"/>
<path d="M89.9 60.9064C89.9 62.0994 89.4027 63.2435 88.5175 64.0871C87.6323 64.9307 86.4318 65.4046 85.18 65.4046C83.9281 65.4046 82.7276 64.9307 81.8424 64.0871C80.9572 63.2435 80.46 62.0994 80.46 60.9064C80.46 60.3157 80.582 59.7308 80.8193 59.185C81.0565 58.6393 81.4041 58.1434 81.8424 57.7257C82.2807 57.308 82.801 56.9767 83.3737 56.7506C83.9464 56.5246 84.5601 56.4082 85.18 56.4082C85.7998 56.4082 86.4136 56.5246 86.9862 56.7506C87.5589 56.9767 88.0792 57.308 88.5175 57.7257C88.9558 58.1434 89.3035 58.6393 89.5407 59.185C89.7779 59.7308 89.9 60.3157 89.9 60.9064Z" fill="#001133" fill-opacity="0.5"/>
<path d="M10.1997 60.8776C10.1997 62.0125 9.72667 63.1009 8.88464 63.9034C8.0426 64.7058 6.90055 65.1567 5.70973 65.1567C4.5189 65.1567 3.37686 64.7058 2.53482 63.9034C1.69278 63.1009 1.21973 62.0125 1.21973 60.8776C1.21973 60.3157 1.33586 59.7593 1.56151 59.2401C1.78715 58.721 2.11788 58.2493 2.53482 57.8519C2.95175 57.4546 3.44673 57.1394 3.99148 56.9244C4.53623 56.7093 5.12009 56.5986 5.70973 56.5986C6.29936 56.5986 6.88322 56.7093 7.42797 56.9244C7.97273 57.1394 8.4677 57.4546 8.88464 57.8519C9.30157 58.2493 9.6323 58.721 9.85795 59.2401C10.0836 59.7593 10.1997 60.3157 10.1997 60.8776Z" fill="#C3E7C5"/>
<path d="M30.72 60.9061C30.72 62.0713 30.2343 63.1887 29.3698 64.0126C28.5052 64.8366 27.3326 65.2994 26.11 65.2994C24.8874 65.2994 23.7148 64.8366 22.8502 64.0126C21.9857 63.1887 21.5 62.0713 21.5 60.9061C21.5 59.7409 21.9857 58.6234 22.8502 57.7995C23.7148 56.9756 24.8874 56.5127 26.11 56.5127C27.3326 56.5127 28.5052 56.9756 29.3698 57.7995C30.2343 58.6234 30.72 59.7409 30.72 60.9061Z" fill="#001133" fill-opacity="0.5"/>
<path d="M51.0803 60.9442C51.0803 62.0563 50.6167 63.1229 49.7915 63.9093C48.9664 64.6957 47.8472 65.1375 46.6803 65.1375C45.5133 65.1375 44.3942 64.6957 43.569 63.9093C42.7438 63.1229 42.2803 62.0563 42.2803 60.9442C42.2803 59.8321 42.7438 58.7655 43.569 57.9791C44.3942 57.1928 45.5133 56.751 46.6803 56.751C47.8472 56.751 48.9664 57.1928 49.7915 57.9791C50.6167 58.7655 51.0803 59.8321 51.0803 60.9442Z" fill="#C3E7C5"/>
<path d="M30.7897 79.652C30.7897 80.2352 30.6692 80.8126 30.435 81.3515C30.2008 81.8903 29.8576 82.3798 29.4248 82.7922C28.9921 83.2046 28.4784 83.5317 27.913 83.7549C27.3477 83.9781 26.7417 84.093 26.1297 84.093C25.5178 84.093 24.9118 83.9781 24.3464 83.7549C23.781 83.5317 23.2673 83.2046 22.8346 82.7922C22.4019 82.3798 22.0586 81.8903 21.8244 81.3515C21.5903 80.8126 21.4697 80.2352 21.4697 79.652C21.4697 79.0688 21.5903 78.4913 21.8244 77.9525C22.0586 77.4136 22.4019 76.9241 22.8346 76.5117C23.2673 76.0993 23.781 75.7722 24.3464 75.549C24.9118 75.3258 25.5178 75.2109 26.1297 75.2109C27.3656 75.2109 28.5509 75.6788 29.4248 76.5117C30.2988 77.3445 30.7897 78.4741 30.7897 79.652Z" fill="#001133" fill-opacity="0.5"/>
<path d="M89.8698 79.7086C89.8698 80.8864 89.3788 82.016 88.5049 82.8489C87.631 83.6817 86.4457 84.1496 85.2098 84.1496C83.9739 84.1496 82.7886 83.6817 81.9147 82.8489C81.0408 82.016 80.5498 80.8864 80.5498 79.7086C80.5498 78.5308 81.0408 77.4012 81.9147 76.5683C82.7886 75.7355 83.9739 75.2676 85.2098 75.2676C86.4457 75.2676 87.631 75.7355 88.5049 76.5683C89.3788 77.4012 89.8698 78.5308 89.8698 79.7086Z" fill="#001133" fill-opacity="0.5"/>
<path d="M10.1802 79.737C10.1802 80.299 10.0641 80.8554 9.83842 81.3745C9.61277 81.8937 9.28204 82.3654 8.8651 82.7627C8.44817 83.1601 7.9532 83.4753 7.40844 83.6903C6.86369 83.9053 6.27983 84.016 5.6902 84.016C5.10056 84.016 4.5167 83.9053 3.97195 83.6903C3.42719 83.4753 2.93222 83.1601 2.51529 82.7627C2.09835 82.3654 1.76762 81.8937 1.54198 81.3745C1.31633 80.8554 1.2002 80.299 1.2002 79.737C1.2002 78.6022 1.67325 77.5138 2.51529 76.7113C3.35732 75.9088 4.49937 75.458 5.6902 75.458C6.88102 75.458 8.02307 75.9088 8.8651 76.7113C9.70714 77.5138 10.1802 78.6022 10.1802 79.737Z" fill="#C3E7C5"/>
<path d="M51.07 79.6803C51.07 80.2322 50.9559 80.7787 50.7343 81.2886C50.5127 81.7985 50.1878 82.2618 49.7783 82.6521C49.3688 83.0424 48.8827 83.3519 48.3476 83.5632C47.8126 83.7744 47.2391 83.8831 46.66 83.8831C45.4904 83.8831 44.3687 83.4403 43.5417 82.6521C42.7146 81.8639 42.25 80.7949 42.25 79.6803C42.25 78.5657 42.7146 77.4967 43.5417 76.7085C44.3687 75.9203 45.4904 75.4775 46.66 75.4775C47.2391 75.4775 47.8126 75.5862 48.3476 75.7975C48.8827 76.0087 49.3688 76.3182 49.7783 76.7085C50.1878 77.0988 50.5127 77.5621 50.7343 78.072C50.9559 78.5819 51.07 79.1284 51.07 79.6803Z" fill="#C3E7C5"/>
<path d="M109.65 79.0794C109.65 80.0399 109.249 80.961 108.537 81.6402C107.824 82.3193 106.858 82.7009 105.85 82.7009C104.842 82.7009 103.875 82.3193 103.163 81.6402C102.45 80.961 102.05 80.0399 102.05 79.0794C102.05 78.119 102.45 77.1979 103.163 76.5187C103.875 75.8396 104.842 75.458 105.85 75.458C106.858 75.458 107.824 75.8396 108.537 76.5187C109.249 77.1979 109.65 78.119 109.65 79.0794Z" fill="#001133" fill-opacity="0.5"/>
<path d="M69.9504 79.3373C69.9504 80.2548 69.568 81.1348 68.8872 81.7835C68.2065 82.4323 67.2832 82.7968 66.3204 82.7968C65.8437 82.7968 65.3717 82.7073 64.9313 82.5334C64.4909 82.3596 64.0907 82.1048 63.7536 81.7835C63.4166 81.4623 63.1492 81.0809 62.9667 80.6612C62.7843 80.2415 62.6904 79.7916 62.6904 79.3373C62.6904 78.8831 62.7843 78.4332 62.9667 78.0135C63.1492 77.5938 63.4166 77.2124 63.7536 76.8912C64.0907 76.5699 64.4909 76.3151 64.9313 76.1413C65.3717 75.9674 65.8437 75.8779 66.3204 75.8779C67.2832 75.8779 68.2065 76.2424 68.8872 76.8912C69.568 77.5399 69.9504 78.4199 69.9504 79.3373Z" fill="#C3E7C5"/>
<path d="M30.8595 98.4545C30.8595 99.0389 30.7387 99.6176 30.504 100.158C30.2694 100.698 29.9254 101.188 29.4917 101.601C29.0581 102.015 28.5433 102.343 27.9767 102.566C27.4101 102.79 26.8028 102.905 26.1895 102.905C25.5763 102.905 24.969 102.79 24.4024 102.566C23.8358 102.343 23.321 102.015 22.8873 101.601C22.4537 101.188 22.1097 100.698 21.875 100.158C21.6403 99.6176 21.5195 99.0389 21.5195 98.4545C21.5195 97.2741 22.0115 96.1421 22.8873 95.3074C23.7631 94.4728 24.951 94.0039 26.1895 94.0039C27.4281 94.0039 28.6159 94.4728 29.4917 95.3074C30.3675 96.1421 30.8595 97.2741 30.8595 98.4545Z" fill="#001133" fill-opacity="0.5"/>
<path d="M51.3304 98.3689C51.3304 99.524 50.8489 100.632 49.9919 101.449C49.1349 102.265 47.9725 102.724 46.7604 102.724C45.5484 102.724 44.386 102.265 43.5289 101.449C42.6719 100.632 42.1904 99.524 42.1904 98.3689C42.1904 97.2138 42.6719 96.1061 43.5289 95.2893C44.386 94.4725 45.5484 94.0137 46.7604 94.0137C47.9725 94.0137 49.1349 94.4725 49.9919 95.2893C50.8489 96.1061 51.3304 97.2138 51.3304 98.3689Z" fill="#001133" fill-opacity="0.5"/>
<path d="M89.8502 98.5304C89.8502 99.7133 89.3572 100.848 88.4795 101.684C87.6018 102.521 86.4114 102.99 85.1702 102.99C83.929 102.99 82.7386 102.521 81.861 101.684C80.9833 100.848 80.4902 99.7133 80.4902 98.5304C80.4902 97.3475 80.9833 96.2131 81.861 95.3766C82.7386 94.5402 83.929 94.0703 85.1702 94.0703C86.4114 94.0703 87.6018 94.5402 88.4795 95.3766C89.3572 96.2131 89.8502 97.3475 89.8502 98.5304Z" fill="#001133" fill-opacity="0.5"/>
<path d="M10.1996 98.4548C10.1996 99.5998 9.72238 100.698 8.87284 101.507C8.0233 102.317 6.87108 102.772 5.66965 102.772C4.46822 102.772 3.31599 102.317 2.46645 101.507C1.61691 100.698 1.13965 99.5998 1.13965 98.4548C1.13965 97.8879 1.25682 97.3265 1.48447 96.8027C1.71213 96.2789 2.0458 95.803 2.46645 95.4022C2.8871 95.0013 3.38649 94.6833 3.93609 94.4663C4.4857 94.2494 5.07476 94.1377 5.66965 94.1377C6.26454 94.1377 6.8536 94.2494 7.4032 94.4663C7.95281 94.6833 8.45219 95.0013 8.87284 95.4022C9.29349 95.803 9.62717 96.2789 9.85482 96.8027C10.0825 97.3265 10.1996 97.8879 10.1996 98.4548Z" fill="#C3E7C5"/>
<path d="M10.32 117.39C10.32 118.568 9.82904 119.698 8.95512 120.531C8.0812 121.363 6.89591 121.831 5.66 121.831C4.42409 121.831 3.2388 121.363 2.36488 120.531C1.49096 119.698 1 118.568 1 117.39C1 116.212 1.49096 115.083 2.36488 114.25C3.2388 113.417 4.42409 112.949 5.66 112.949C6.89591 112.949 8.0812 113.417 8.95512 114.25C9.82904 115.083 10.32 116.212 10.32 117.39Z" fill="#001133" fill-opacity="0.5"/>
<path d="M30.7696 117.391C30.7696 118.576 30.2755 119.713 29.396 120.551C28.5164 121.389 27.3235 121.86 26.0796 121.86C24.8358 121.86 23.6429 121.389 22.7633 120.551C21.8838 119.713 21.3896 118.576 21.3896 117.391C21.3896 116.205 21.8838 115.068 22.7633 114.23C23.6429 113.392 24.8358 112.921 26.0796 112.921C27.3235 112.921 28.5164 113.392 29.396 114.23C30.2755 115.068 30.7696 116.205 30.7696 117.391Z" fill="#001133" fill-opacity="0.5"/>
<path d="M89.8405 117.391C89.8405 117.976 89.7194 118.556 89.4842 119.098C89.249 119.639 88.9043 120.13 88.4697 120.544C88.0352 120.959 87.5192 121.287 86.9514 121.511C86.3836 121.735 85.7751 121.851 85.1605 121.851C84.5459 121.851 83.9373 121.735 83.3695 121.511C82.8017 121.287 82.2858 120.959 81.8512 120.544C81.4166 120.13 81.0719 119.639 80.8367 119.098C80.6015 118.556 80.4805 117.976 80.4805 117.391C80.4805 116.805 80.6015 116.225 80.8367 115.684C81.0719 115.143 81.4166 114.651 81.8512 114.237C82.2858 113.823 82.8017 113.494 83.3695 113.27C83.9373 113.046 84.5459 112.931 85.1605 112.931C85.7751 112.931 86.3836 113.046 86.9514 113.27C87.5192 113.494 88.0352 113.823 88.4697 114.237C88.9043 114.651 89.249 115.143 89.4842 115.684C89.7194 116.225 89.8405 116.805 89.8405 117.391Z" fill="#001133" fill-opacity="0.5"/>
</svg>
