<svg width="39" height="26" viewBox="0 0 39 26" fill="none" xmlns="http://www.w3.org/2000/svg">
<g clip-path="url(#clip0_1582_2005)">
<path d="M7.6713 7.23945C8.12008 6.67811 8.42457 5.92447 8.34432 5.1543C7.68738 5.18698 6.88572 5.58774 6.42161 6.14945C6.00485 6.63054 5.63603 7.41574 5.73222 8.1536C6.46955 8.21756 7.20637 7.78501 7.6713 7.23945Z" fill="black"/>
<path d="M8.33747 8.30017C7.26653 8.23637 6.35595 8.90797 5.84448 8.90797C5.3328 8.90797 4.5496 8.33233 3.70253 8.34782C2.60002 8.36405 1.57702 8.98741 1.01754 9.97884C-0.133211 11.9622 0.713864 14.9043 1.8329 16.5196C2.3763 17.3187 3.0313 18.1987 3.89423 18.1671C4.70959 18.135 5.0292 17.6391 6.02026 17.6391C7.01065 17.6391 7.29854 18.1671 8.16162 18.1511C9.05672 18.135 9.61627 17.3515 10.1597 16.5515C10.7831 15.6405 11.0383 14.7609 11.0543 14.7126C11.0382 14.6966 9.32838 14.0406 9.31252 12.0737C9.29636 10.4269 10.655 9.64345 10.7189 9.59491C9.95181 8.46031 8.75304 8.33233 8.33747 8.30017Z" fill="black"/>
<path d="M17.6597 6.06738C19.9874 6.06738 21.6082 7.6719 21.6082 10.0079C21.6082 12.3523 19.954 13.9652 17.6013 13.9652H15.0241V18.0636H13.1621V6.06738H17.6597ZM15.0241 12.4022H17.1606C18.7818 12.4022 19.7044 11.5294 19.7044 10.0163C19.7044 8.50334 18.7818 7.63869 17.1689 7.63869H15.0241V12.4022Z" fill="black"/>
<path d="M22.0957 15.5781C22.0957 14.0484 23.2679 13.109 25.3464 12.9926L27.7405 12.8513V12.178C27.7405 11.2053 27.0838 10.6234 25.9866 10.6234C24.9472 10.6234 24.2987 11.1221 24.141 11.9037H22.445C22.5448 10.324 23.8914 9.16016 26.053 9.16016C28.1729 9.16016 29.5279 10.2825 29.5279 12.0365V18.0638H27.8069V16.6256H27.7656C27.2585 17.5983 26.1527 18.2134 25.0055 18.2134C23.2929 18.2134 22.0957 17.1492 22.0957 15.5781ZM27.7405 14.7884V14.0984L25.5873 14.2314C24.5148 14.3063 23.908 14.7801 23.908 15.5283C23.908 16.2931 24.5398 16.7919 25.5042 16.7919C26.7595 16.7918 27.7405 15.9272 27.7405 14.7884Z" fill="black"/>
<path d="M31.1498 21.2843V19.8295C31.2826 19.8627 31.5818 19.8627 31.7315 19.8627C32.5628 19.8627 33.0118 19.5136 33.286 18.6157C33.286 18.5991 33.4442 18.0837 33.4442 18.0753L30.2852 9.32129H32.2303L34.4419 16.4376H34.475L36.6866 9.32129H38.5818L35.3061 18.5242C34.5582 20.6442 33.6936 21.3259 31.8813 21.3259C31.7315 21.3259 31.2825 21.3092 31.1498 21.2843Z" fill="black"/>
</g>
<defs>
<clipPath id="clip0_1582_2005">
<rect width="38.1176" height="25.4118" fill="white" transform="translate(0.469727 0.529297)"/>
</clipPath>
</defs>
</svg>
