<svg width="24" height="24" viewBox="0 0 24 24" fill="none" xmlns="http://www.w3.org/2000/svg">
<path d="M12.75 13.5C12.336 13.5 12 13.836 12 14.25V18.75H3V5.25H10.125L12 7.74975V9.75C12 10.164 12.336 10.5 12.75 10.5C13.164 10.5 13.5 10.164 13.5 9.75V7.5C13.5 7.338 13.4475 7.17975 13.35 7.05L11.1 4.05C10.9583 3.861 10.7362 3.75 10.5 3.75H2.25C1.836 3.75 1.5 4.086 1.5 4.5V19.5C1.5 19.914 1.836 20.25 2.25 20.25H12.75C13.164 20.25 13.5 19.914 13.5 19.5V14.25C13.5 13.836 13.164 13.5 12.75 13.5Z" fill="#1D2939"/>
<path d="M17.25 7.5H21.75C22.164 7.5 22.5 7.164 22.5 6.75V2.25C22.5 1.836 22.164 1.5 21.75 1.5H17.25C16.836 1.5 16.5 1.836 16.5 2.25V3.75H15C14.586 3.75 14.25 4.086 14.25 4.5V11.25H5.25C4.836 11.25 4.5 11.586 4.5 12C4.5 12.414 4.836 12.75 5.25 12.75H14.25V19.5C14.25 19.914 14.586 20.25 15 20.25H16.5V21.75C16.5 22.164 16.836 22.5 17.25 22.5H21.75C22.164 22.5 22.5 22.164 22.5 21.75V17.25C22.5 16.836 22.164 16.5 21.75 16.5H17.25C16.836 16.5 16.5 16.836 16.5 17.25V18.75H15.75V12.75H16.5V14.25C16.5 14.664 16.836 15 17.25 15H21.75C22.164 15 22.5 14.664 22.5 14.25V9.75C22.5 9.336 22.164 9 21.75 9H17.25C16.836 9 16.5 9.336 16.5 9.75V11.25H15.75V5.25H16.5V6.75C16.5 7.164 16.836 7.5 17.25 7.5ZM18 3H21V6H18V3ZM18 18H21V21H18V18ZM18 10.5H21V13.5H18V10.5Z" fill="#1D2939"/>
<path d="M5.25 8.25H9C9.414 8.25 9.75 7.914 9.75 7.5C9.75 7.086 9.414 6.75 9 6.75H5.25C4.836 6.75 4.5 7.086 4.5 7.5C4.5 7.914 4.836 8.25 5.25 8.25Z" fill="#1D2939"/>
<path d="M5.25 10.5H9.75C10.164 10.5 10.5 10.164 10.5 9.75C10.5 9.336 10.164 9 9.75 9H5.25C4.836 9 4.5 9.336 4.5 9.75C4.5 10.164 4.836 10.5 5.25 10.5Z" fill="#1D2939"/>
<path d="M9.75 13.5H5.25C4.836 13.5 4.5 13.836 4.5 14.25C4.5 14.664 4.836 15 5.25 15H9.75C10.164 15 10.5 14.664 10.5 14.25C10.5 13.836 10.164 13.5 9.75 13.5Z" fill="#1D2939"/>
<path d="M9.75 15.75H5.25C4.836 15.75 4.5 16.086 4.5 16.5C4.5 16.914 4.836 17.25 5.25 17.25H9.75C10.164 17.25 10.5 16.914 10.5 16.5C10.5 16.086 10.164 15.75 9.75 15.75Z" fill="#1D2939"/>
</svg>
