<svg width="40" height="41" viewBox="0 0 40 41" fill="none" xmlns="http://www.w3.org/2000/svg">
<path d="M28.1665 38.4168C27.7317 38.4181 27.3044 38.3028 26.9293 38.083C26.5541 37.8632 26.2446 37.5468 26.0332 37.1668L21.8832 29.9835C21.7174 29.6962 21.6726 29.3548 21.7585 29.0344C21.8445 28.714 22.0542 28.4409 22.3415 28.2752C22.6288 28.1094 22.9702 28.0646 23.2906 28.1505C23.611 28.2365 23.8841 28.4462 24.0499 28.7335L28.1999 35.9168L29.2332 33.3835C29.4474 32.8963 29.8124 32.4907 30.2745 32.2267C30.7366 31.9626 31.2713 31.854 31.7998 31.9168L34.5332 32.2502L29.5332 23.6335C29.4511 23.4912 29.3979 23.3342 29.3765 23.1714C29.3551 23.0085 29.366 22.8431 29.4085 22.6844C29.4511 22.5258 29.5245 22.3771 29.6245 22.2468C29.7245 22.1165 29.8493 22.0072 29.9915 21.9252C30.1338 21.8431 30.2908 21.7898 30.4537 21.7685C30.6165 21.7471 30.782 21.758 30.9406 21.8005C31.0992 21.8431 31.2479 21.9165 31.3782 22.0165C31.5085 22.1165 31.6178 22.2412 31.6999 22.3835L36.6999 31.0168C36.9267 31.4175 37.0385 31.873 37.0229 32.3331C37.0074 32.7933 36.8651 33.2402 36.6117 33.6246C36.3583 34.009 36.0037 34.3159 35.5869 34.5116C35.1702 34.7073 34.7075 34.7841 34.2498 34.7335L31.5165 34.3835L30.4665 36.9002C30.2862 37.329 29.989 37.6985 29.6089 37.9666C29.2288 38.2348 28.781 38.3908 28.3165 38.4168H28.1665Z" fill="black"/>
<path d="M12.5 38.4168H12.3667C11.9022 38.3908 11.4544 38.2348 11.0743 37.9667C10.6942 37.6985 10.397 37.329 10.2167 36.9002L9.13334 34.3668L6.43334 34.7168C5.97692 34.7769 5.51283 34.7071 5.09425 34.5155C4.67567 34.3238 4.31954 34.0182 4.06667 33.6335C3.82641 33.2425 3.69922 32.7925 3.69922 32.3335C3.69922 31.8745 3.82641 31.4246 4.06667 31.0335L9.06667 22.3835C9.23243 22.0962 9.50554 21.8865 9.82592 21.8005C10.1463 21.7146 10.4877 21.7594 10.775 21.9252C11.0623 22.0909 11.272 22.364 11.358 22.6844C11.4439 23.0048 11.3991 23.3462 11.2333 23.6335L6.23334 32.2668L8.95001 31.9168C9.47918 31.8485 10.0162 31.9547 10.4795 32.2195C10.9427 32.4842 11.3069 32.8929 11.5167 33.3835L12.6 35.9168L16.6667 28.7335C16.8324 28.4462 17.1055 28.2365 17.4259 28.1505C17.7463 28.0646 18.0877 28.1094 18.375 28.2752C18.6623 28.4409 18.872 28.714 18.958 29.0344C19.0439 29.3548 18.9991 29.6962 18.8333 29.9835L14.6333 37.1668C14.4219 37.5468 14.1125 37.8632 13.7373 38.083C13.3621 38.3028 12.9348 38.4181 12.5 38.4168Z" fill="black"/>
<path d="M20.3329 32.0165C19.2224 32.0174 18.1564 31.5802 17.3663 30.7998L15.8996 29.3332C15.7452 29.1757 15.5612 29.0504 15.358 28.9646C15.1549 28.8787 14.9368 28.8341 14.7163 28.8332H13.0496C11.9415 28.8288 10.88 28.3866 10.0964 27.603C9.3128 26.8195 8.87065 25.758 8.86626 24.6498V22.9832C8.87016 22.749 8.82468 22.5167 8.73279 22.3013C8.6409 22.0859 8.50465 21.8924 8.33293 21.7332L6.84959 20.2665C6.0692 19.4764 5.632 18.4103 5.63293 17.2998C5.62885 16.7533 5.73276 16.2114 5.93869 15.7051C6.14462 15.1989 6.44851 14.7383 6.83293 14.3498L8.33293 12.8665C8.4874 12.7108 8.60961 12.5261 8.69255 12.323C8.77549 12.1199 8.81753 11.9025 8.81626 11.6832V10.0165C8.80966 9.46354 8.91232 8.91473 9.11835 8.40155C9.32438 7.88837 9.62972 7.42093 10.0169 7.02606C10.404 6.63118 10.8653 6.31664 11.3743 6.10049C11.8833 5.88434 12.43 5.77084 12.9829 5.76649H14.6496C14.8689 5.76776 15.0864 5.72571 15.2894 5.64277C15.4925 5.55983 15.6772 5.43762 15.8329 5.28315L17.3663 3.83316C18.1676 3.06119 19.2369 2.62988 20.3496 2.62988C21.4623 2.62988 22.5316 3.06119 23.3329 3.83316L24.7996 5.29982C24.9553 5.45429 25.14 5.5765 25.3431 5.65944C25.5461 5.74238 25.7636 5.78442 25.9829 5.78316H27.6496C28.7606 5.78756 29.8246 6.23201 30.6087 7.01918C31.3927 7.80636 31.8329 8.87213 31.8329 9.98316V11.6498C31.8317 11.8692 31.8737 12.0866 31.9566 12.2897C32.0396 12.4927 32.1618 12.6774 32.3163 12.8332L33.7996 14.3165C34.5762 15.1053 35.0115 16.1679 35.0115 17.2748C35.0115 18.3818 34.5762 19.4443 33.7996 20.2332L32.3163 21.6998C32.1598 21.8575 32.0364 22.0449 31.9534 22.251C31.8704 22.4571 31.8294 22.6777 31.8329 22.8998V24.5665C31.8417 25.1194 31.7413 25.6687 31.5373 26.1827C31.3333 26.6967 31.0298 27.1654 30.6442 27.5618C30.2586 27.9583 29.7985 28.2747 29.2903 28.4928C28.7822 28.711 28.2359 28.8266 27.6829 28.8332H26.0163C25.7957 28.8341 25.5776 28.8787 25.3745 28.9646C25.1714 29.0504 24.9873 29.1757 24.8329 29.3332L23.3663 30.7998C22.9671 31.1943 22.4931 31.5051 21.9723 31.714C21.4514 31.9229 20.8941 32.0258 20.3329 32.0165ZM12.9829 8.26649C12.5409 8.26649 12.117 8.44208 11.8044 8.75464C11.4919 9.0672 11.3163 9.49113 11.3163 9.93315V11.5998C11.3182 12.1475 11.2116 12.6901 11.0028 13.1964C10.794 13.7027 10.487 14.1627 10.0996 14.5498L8.63293 16.0332C8.47545 16.1875 8.35016 16.3716 8.26434 16.5747C8.17851 16.7778 8.13384 16.996 8.13293 17.2165C8.13162 17.4398 8.17521 17.6611 8.2611 17.8672C8.347 18.0734 8.47344 18.2602 8.63293 18.4165L10.0996 19.8832C10.489 20.2722 10.7971 20.7349 11.006 21.2442C11.2149 21.7536 11.3204 22.2993 11.3163 22.8498V24.5165C11.3163 24.9585 11.4919 25.3824 11.8044 25.695C12.117 26.0076 12.5409 26.1832 12.9829 26.1832H14.6496C15.1989 26.1806 15.743 26.2885 16.2498 26.5004C16.7565 26.7123 17.2156 27.0238 17.5996 27.4165L19.0663 28.8832C19.3909 29.189 19.8202 29.3594 20.2663 29.3594C20.7123 29.3594 21.1416 29.189 21.4663 28.8832L22.9329 27.4165C23.317 27.0238 23.776 26.7123 24.2827 26.5004C24.7895 26.2885 25.3337 26.1806 25.8829 26.1832H27.5496C27.9916 26.1832 28.4155 26.0076 28.7281 25.695C29.0407 25.3824 29.2163 24.9585 29.2163 24.5165V22.8498C29.2122 22.2993 29.3176 21.7536 29.5265 21.2442C29.7354 20.7349 30.0435 20.2722 30.4329 19.8832L31.9163 18.4165C32.075 18.2613 32.2011 18.0759 32.2872 17.8713C32.3734 17.6666 32.4177 17.4468 32.4177 17.2248C32.4177 17.0028 32.3734 16.783 32.2872 16.5784C32.2011 16.3737 32.075 16.1884 31.9163 16.0332L30.4329 14.5498C30.0455 14.1627 29.7385 13.7027 29.5297 13.1964C29.3209 12.6901 29.2144 12.1475 29.2163 11.5998V9.93315C29.2163 9.49113 29.0407 9.0672 28.7281 8.75464C28.4155 8.44208 27.9916 8.26649 27.5496 8.26649H25.8829C25.3353 8.26838 24.7926 8.16184 24.2863 7.95303C23.78 7.74421 23.32 7.43724 22.9329 7.04982L21.4663 5.58315C21.3108 5.42185 21.1244 5.29355 20.9182 5.20591C20.712 5.11828 20.4903 5.07311 20.2663 5.07311C20.0422 5.07311 19.8205 5.11828 19.6143 5.20591C19.4081 5.29355 19.2217 5.42185 19.0663 5.58315L17.5996 7.04982C17.2125 7.43724 16.7525 7.74421 16.2462 7.95303C15.7399 8.16184 15.1973 8.26838 14.6496 8.26649H12.9829Z" fill="black"/>
<path d="M19.2344 21.199C18.8986 21.196 18.5767 21.0649 18.3344 20.8324L15.5677 18.049C15.3336 17.8147 15.2021 17.497 15.2021 17.1657C15.2021 16.8344 15.3336 16.5167 15.5677 16.2824C15.807 16.0512 16.1267 15.922 16.4594 15.922C16.7921 15.922 17.1118 16.0512 17.351 16.2824L19.2344 18.1824L23.901 13.499C24.1403 13.2679 24.46 13.1387 24.7927 13.1387C25.1254 13.1387 25.4451 13.2679 25.6844 13.499C25.9185 13.7334 26.0499 14.0511 26.0499 14.3824C26.0499 14.7136 25.9185 15.0313 25.6844 15.2657L20.1177 20.8324C19.8815 21.0638 19.5651 21.1952 19.2344 21.199Z" fill="black"/>
</svg>
