<svg width="40" height="41" viewBox="0 0 40 41" fill="none" xmlns="http://www.w3.org/2000/svg">
    <g clip-path="url(#clip0_1338_9561)">
    <path d="M36.462 16.4752C36.1991 7.62165 28.9158 0.5 19.9996 0.5C11.0834 0.5 3.80007 7.62165 3.53709 16.4752L2.35254 17.6598V25.6932L3.52901 26.8696V32.3431C3.52901 35.5435 6.13262 38.1471 9.33293 38.1471H10.7902C11.2758 39.5164 12.5835 40.5 14.1172 40.5H16.4702C18.0049 40.5 19.3133 39.515 19.7982 38.1442C19.8654 38.1454 19.9328 38.1471 19.9996 38.1471C25.681 38.1471 30.4347 34.0987 31.5278 28.7353H34.6045L37.6467 25.6932V17.6598L36.462 16.4752ZM19.9996 2.85294C26.9824 2.85294 32.7965 7.94933 33.9201 14.6176H31.5278C30.4347 9.2542 25.681 5.20588 19.9996 5.20588C14.3182 5.20588 9.56446 9.2542 8.47144 14.6176H6.07913C7.20266 7.94933 13.0168 2.85294 19.9996 2.85294ZM29.1136 14.6176C25.3105 14.6063 22.6242 14.8379 20.4095 11.6004L19.334 10.0284L18.4098 11.6938C17.0631 14.1204 15.2496 14.6176 12.9408 14.6176H10.8856C11.9331 10.5629 15.6221 7.55882 19.9996 7.55882C24.3771 7.55882 28.0661 10.5629 29.1136 14.6176ZM8.23489 26.3824H6.36925L4.70548 24.7186V18.6344L6.36925 16.9706H8.23489V26.3824ZM5.88195 32.3431V28.7353H8.46917C8.91207 30.9294 9.97176 32.9435 11.5416 34.5611C11.2125 34.9127 10.9544 35.3311 10.7902 35.7941H9.33293C7.43003 35.7941 5.88195 34.246 5.88195 32.3431ZM16.4702 38.1471H14.1172C13.4685 38.1471 12.9408 37.6194 12.9408 36.9706C12.9408 36.3219 13.4685 35.7941 14.1172 35.7941H16.4702C17.1189 35.7941 17.6467 36.3219 17.6467 36.9706C17.6467 37.6194 17.1189 38.1471 16.4702 38.1471ZM29.4114 26.3824C29.4114 31.572 25.1892 35.7941 19.9996 35.7941C19.9321 35.7941 19.8641 35.7928 19.7962 35.7912C19.3098 34.4234 18.0028 33.4412 16.4702 33.4412C14.0545 33.4465 14.093 33.4291 13.7919 33.4568C11.7494 31.6665 10.5878 29.1166 10.5878 26.3824V16.9706H12.9408C15.0229 16.9706 17.5586 16.6273 19.5214 14.2384C22.1112 16.9524 25.2761 16.9706 28.1171 16.9706H29.4114V26.3824ZM35.2937 24.7186L33.63 26.3824H31.7643V16.9706H33.63L35.2937 18.6344V24.7186Z" fill="#3A3A3A"/>
    </g>
    <defs>
    <clipPath id="clip0_1338_9561">
    <rect width="40" height="40" fill="white" transform="translate(0 0.5)"/>
    </clipPath>
    </defs>
    </svg>
    