<svg width="40" height="41" viewBox="0 0 40 41" fill="none" xmlns="http://www.w3.org/2000/svg">
    <path d="M28.75 29.2529C28.4044 29.2529 28.125 28.9729 28.125 28.6279V23.6279C28.125 23.2829 28.4044 23.0029 28.75 23.0029C29.0956 23.0029 29.375 23.2829 29.375 23.6279V28.6279C29.375 28.9729 29.0956 29.2529 28.75 29.2529Z" fill="black"/>
    <path d="M33.75 29.2529H28.75C28.4044 29.2529 28.125 28.9729 28.125 28.6279C28.125 28.2829 28.4044 28.0029 28.75 28.0029H33.75C34.0956 28.0029 34.375 28.2829 34.375 28.6279C34.375 28.9729 34.0956 29.2529 33.75 29.2529Z" fill="black"/>
    <path d="M16.7406 35.5031C16.6325 35.5031 16.525 35.4756 16.4281 35.4193L3.4375 27.9193C3.24375 27.8075 3.125 27.6012 3.125 27.3781V12.3781C3.125 12.155 3.24375 11.9481 3.4375 11.8368L16.4281 4.33684C16.6219 4.22496 16.8594 4.22496 17.0531 4.33684L30.0438 11.8368C30.2375 11.9487 30.3563 12.155 30.3563 12.3781V18.6762C30.3563 19.0212 30.0769 19.3012 29.7313 19.3012C29.3856 19.3012 29.1063 19.0212 29.1063 18.6762V12.7387L16.7406 5.59996L4.375 12.7387V27.0175L16.7406 34.1562L19.4969 32.565C19.7962 32.3918 20.1781 32.4943 20.3506 32.7937C20.5231 33.0931 20.4206 33.475 20.1219 33.6475L17.0531 35.4187C16.9563 35.475 16.8488 35.5031 16.7406 35.5031Z" fill="black"/>
    <path d="M28.6907 36.7467C27.9126 36.7467 27.1383 36.6311 26.3876 36.4036C23.5114 35.5311 21.3026 33.0598 20.7589 30.1073C20.2051 27.1017 21.4239 23.9723 23.8658 22.1336C25.2545 21.088 26.9945 20.5117 28.7651 20.5117C30.0464 20.5117 31.3151 20.8136 32.4358 21.3855C35.1326 22.7605 36.8745 25.603 36.8745 28.6273C36.8745 30.8073 35.9958 32.8592 34.3995 34.4036C32.862 35.8923 30.7807 36.7467 28.6907 36.7467ZM28.7651 21.7617C27.2645 21.7617 25.7908 22.2486 24.6176 23.1317C22.5514 24.688 21.5195 27.3373 21.9882 29.8805C22.4476 32.3786 24.3176 34.4692 26.7501 35.2067C29.092 35.9173 31.7389 35.2386 33.5301 33.5048C34.8814 32.1986 35.6245 30.4661 35.6245 28.6273C35.6245 26.068 34.1501 23.6623 31.8683 22.4986C30.9233 22.0167 29.8501 21.7617 28.7651 21.7617Z" fill="black"/>
    <path d="M8.99575 16.0307C8.77951 16.0307 8.56951 15.9188 8.45388 15.7182C8.28138 15.4188 8.38388 15.037 8.68263 14.8644L21.6733 7.36445C21.9708 7.19133 22.3539 7.29383 22.527 7.5932C22.6995 7.89258 22.597 8.27445 22.2983 8.44695L9.30763 15.9469C9.20951 16.0038 9.102 16.0307 8.99575 16.0307Z" fill="black"/>
    <path d="M11.4948 17.4748C11.2785 17.4748 11.0685 17.3629 10.9529 17.1623C10.7804 16.8629 10.8829 16.481 11.1817 16.3085L24.1723 8.80851C24.4704 8.63601 24.8529 8.73788 25.026 9.03726C25.1985 9.33663 25.096 9.71851 24.7973 9.89101L11.8067 17.391C11.7085 17.4479 11.601 17.4748 11.4948 17.4748Z" fill="black"/>
    <path d="M11.4941 21.8046C11.1491 21.8046 10.8691 21.5246 10.8691 21.1796V16.8496C10.8691 16.5046 11.1491 16.2246 11.4941 16.2246C11.8391 16.2246 12.1191 16.5046 12.1191 16.8496V21.1796C12.1191 21.5246 11.8391 21.8046 11.4941 21.8046Z" fill="black"/>
    <path d="M11.4937 21.8047C11.388 21.8047 11.2799 21.7778 11.1818 21.7209L8.68179 20.2772C8.38242 20.1047 8.28054 19.7222 8.45304 19.4234C8.62554 19.1247 9.00804 19.0209 9.30679 19.1947L11.8068 20.6384C12.1062 20.8109 12.208 21.1934 12.0355 21.4922C11.9199 21.6928 11.7099 21.8047 11.4937 21.8047Z" fill="black"/>
    <path d="M8.99414 20.3612C8.64914 20.3612 8.36914 20.0812 8.36914 19.7362V15.4062C8.36914 15.0613 8.64914 14.7812 8.99414 14.7812C9.33914 14.7812 9.61914 15.0613 9.61914 15.4062V19.7362C9.61914 20.0819 9.33914 20.3612 8.99414 20.3612Z" fill="black"/>
    <path d="M16.7402 35.5029C16.3952 35.5029 16.1152 35.2229 16.1152 34.8779V19.8779C16.1152 19.5329 16.3952 19.2529 16.7402 19.2529C17.0852 19.2529 17.3652 19.5329 17.3652 19.8779V34.8779C17.3652 35.2229 17.0852 35.5029 16.7402 35.5029Z" fill="black"/>
    <path d="M16.7392 20.5022C16.6335 20.5022 16.526 20.4754 16.4273 20.4185L3.43667 12.9185C3.1373 12.746 3.03542 12.3635 3.20792 12.0647C3.38042 11.766 3.7623 11.6629 4.06167 11.836L17.0523 19.336C17.3517 19.5085 17.4535 19.891 17.281 20.1897C17.1648 20.3904 16.9548 20.5022 16.7392 20.5022Z" fill="black"/>
    <path d="M16.7409 20.5024C16.5246 20.5024 16.3146 20.3905 16.199 20.1899C16.0265 19.8905 16.129 19.5086 16.4277 19.3361L29.4184 11.8361C29.7165 11.663 30.099 11.7655 30.2721 12.0649C30.4446 12.3643 30.3421 12.7461 30.0434 12.9186L17.0527 20.4186C16.954 20.4755 16.8465 20.5024 16.7409 20.5024Z" fill="black"/>
    </svg>
    