<svg width="40" height="41" viewBox="0 0 40 41" fill="none" xmlns="http://www.w3.org/2000/svg">
    <path d="M6.25 10.5V24.25C6.25 24.4375 6.3125 24.625 6.375 24.75C6.5625 25.125 10.4375 33.375 19.5 37.25H19.5625H19.625C19.75 37.25 19.8125 37.3125 19.9375 37.3125C20.0625 37.3125 20.125 37.3125 20.25 37.25H20.3125H20.375C29.4375 33.375 33.375 25.125 33.5 24.75C33.5625 24.5625 33.625 24.4375 33.625 24.25V10.5C33.625 9.9375 33.25 9.4375 32.6875 9.3125C27.9375 8.125 20.625 3.3125 20.5625 3.25C20.5 3.1875 20.4375 3.1875 20.3125 3.125C20.25 3.125 20.25 3.125 20.1875 3.0625C20.125 3.0625 20.125 3.0625 20.0625 3.0625C20 3.0625 19.9375 3.0625 19.875 3.0625H19.8125C19.75 3.0625 19.6875 3.0625 19.6875 3.0625H19.625C19.5625 3.0625 19.5 3.125 19.4375 3.125C19.375 3.1875 19.3125 3.1875 19.1875 3.25C19.0625 3.3125 11.8125 8.125 7.0625 9.3125C6.625 9.4375 6.25 9.9375 6.25 10.5ZM8.75 11.4375C12.9375 10.125 18.125 6.9375 20 5.75C21.875 6.9375 27.0625 10.125 31.25 11.4375V23.9375C30.5625 25.25 27.0625 31.5 20 34.75C12.9375 31.5 9.4375 25.25 8.75 23.9375V11.4375Z" fill="black"/>
    <path d="M17.875 24.5C18.125 24.75 18.4375 24.875 18.75 24.875C19.0625 24.875 19.375 24.75 19.625 24.5L25.8125 18.3125C26.3125 17.8125 26.3125 17.0625 25.8125 16.5625C25.3125 16.0625 24.5625 16.0625 24.0625 16.5625L18.75 21.875L15.9375 19.0625C15.4375 18.5625 14.6875 18.5625 14.1875 19.0625C13.6875 19.5625 13.6875 20.3125 14.1875 20.8125L17.875 24.5Z" fill="black"/>
    </svg>
    