<svg width="553" height="350" viewBox="0 0 553 350" fill="none" xmlns="http://www.w3.org/2000/svg">
<path d="M437.144 97.3956L436.753 97.0366C436.705 96.9967 431.966 92.7127 428.145 93.4706C424.324 94.2285 423.59 96.3745 423.558 96.4702L422.8 96.2149C422.8 96.1032 423.741 93.5424 427.985 92.6888C431.583 91.9708 435.644 95.0821 436.904 96.1112C437.702 94.5874 440.542 89.8008 443.486 89.4338C446.877 89.011 450.546 91.8272 450.666 91.9548L450.179 92.585C450.139 92.585 446.597 89.8407 443.55 90.1917C440.502 90.5427 437.375 96.8292 437.343 96.893L437.144 97.3956Z" fill="#263238"/>
<path d="M426.556 112.863L426.165 112.504C426.117 112.464 421.378 108.172 417.557 108.938C413.735 109.704 413.01 111.842 412.978 111.93L412.22 111.674C412.22 111.571 413.153 109.01 417.405 108.156C420.995 107.438 425.056 110.55 426.316 111.579C427.114 110.055 429.954 105.26 432.898 104.893C436.297 104.478 439.958 107.287 440.078 107.422L439.591 108.053C439.591 108.053 436.017 105.3 432.97 105.659C429.922 106.018 426.795 112.297 426.763 112.36L426.556 112.863Z" fill="#263238"/>
<path d="M461.92 112.866L461.529 112.507C461.529 112.507 457.931 109.244 455.059 109.819C452.187 110.393 451.669 111.965 451.645 112.036L450.887 111.781C450.887 111.693 451.621 109.691 454.876 109.037C457.556 108.502 460.588 110.712 461.649 111.59C462.343 110.321 464.457 106.803 466.675 106.548C469.291 106.229 472.115 108.398 472.259 108.494L471.772 109.124C471.772 109.124 469.092 107.05 466.794 107.345C464.943 107.577 462.805 111.063 462.151 112.395L461.92 112.866Z" fill="#263238"/>
<path d="M503.525 129.148L503.134 128.789C503.134 128.789 500.813 126.699 499.01 127.058C497.207 127.417 496.888 128.383 496.872 128.423L496.074 128.167C496.074 128.111 496.585 126.723 498.819 126.277C500.534 125.933 502.44 127.234 503.246 127.872C503.781 126.915 505.113 124.825 506.565 124.681C508.32 124.45 510.235 125.918 510.314 125.981L509.828 126.612C509.828 126.612 508.089 125.287 506.637 125.471C505.48 125.614 504.124 127.864 503.693 128.71L503.525 129.148Z" fill="#263238"/>
<path d="M306.872 110.678H147.524L147.955 110.056C148.131 109.801 152.255 103.937 157.449 104.408C158.302 104.488 159.116 104.575 159.842 104.663C163.52 105.07 166.176 105.365 167.556 103.642C168.067 102.846 168.344 101.923 168.354 100.977C168.586 99.1186 168.841 96.9886 172.271 95.76C174.306 95.0181 176.42 95.5845 178.462 96.135C180.648 96.7253 182.714 97.2838 184.533 96.2467C186.352 95.2095 186.679 93.1274 187.014 90.9255C187.141 89.4037 187.578 87.9239 188.299 86.5777C190.492 83.1712 195.279 81.3522 198.71 81.3522H198.773C201.087 81.3522 203.161 82.4292 205.156 83.4424C207.437 84.6071 209.599 85.7081 212 85.2932C212.75 85.1068 213.443 84.7416 214.021 84.229C214.599 83.7164 215.045 83.0715 215.319 82.3495C216.066 80.509 216.614 78.5942 216.955 76.6374C217.657 73.2788 218.319 70.1036 221.518 67.1599C225.197 63.9424 229.764 61.9148 234.617 61.3441C254.211 58.5679 275.854 73.1432 280.042 91.9387C280.042 92.0903 280.936 95.7361 284.215 95.7361C285.358 95.626 286.48 95.3575 287.55 94.9383C291.602 93.598 297.721 91.5637 302.348 98.6878C308.244 107.759 307.071 110.264 306.919 110.519L306.872 110.678ZM149.096 109.881H306.353C306.473 109.171 306.473 106.354 301.75 99.0867C297.458 92.4891 291.913 94.3001 287.869 95.6643C286.722 96.1237 285.516 96.4165 284.287 96.5339C280.362 96.5339 279.348 92.1621 279.332 92.1142C275.232 73.6936 254.011 59.4055 234.801 62.1339C230.109 62.6742 225.69 64.6209 222.124 67.7183C219.125 70.4866 218.486 73.5341 217.808 76.765C217.458 78.7768 216.894 80.7452 216.125 82.6367C215.804 83.4847 215.279 84.2402 214.595 84.836C213.912 85.4317 213.092 85.8492 212.208 86.0511C209.543 86.5059 207.166 85.2533 204.86 84.1205C202.946 83.1472 200.959 82.1341 198.837 82.1181H198.773C195.51 82.1181 191.003 83.929 189.033 86.9765C188.369 88.2499 187.973 89.6452 187.868 91.0771C187.517 93.3667 187.15 95.7361 184.988 96.9647C182.826 98.1932 180.56 97.547 178.318 96.9647C176.396 96.4461 174.401 95.9116 172.606 96.5658C169.639 97.6428 169.415 99.334 169.216 101.129C169.182 102.227 168.836 103.292 168.219 104.2C166.567 106.267 163.576 105.932 159.794 105.509C158.996 105.421 158.199 105.333 157.401 105.261C153.603 104.855 150.293 108.405 149.096 109.881Z" fill="#263238"/>
<path d="M334.857 69.4034H270.333L270.764 68.7732C270.836 68.6695 272.567 66.2044 274.753 66.3799L275.734 66.4836C277.274 66.6591 278.167 66.7229 278.614 66.1645C278.796 65.8814 278.893 65.5518 278.893 65.2151C278.895 64.6976 279.065 64.1948 279.377 63.782C279.689 63.3692 280.127 63.0687 280.624 62.9255C281.493 62.6972 282.411 62.7474 283.249 63.0691C283.964 63.3855 284.773 63.4112 285.507 63.1409C286.137 62.774 286.249 62.032 286.384 61.1784C286.434 60.5319 286.622 59.9036 286.935 59.3356C287.448 58.6606 288.109 58.1116 288.866 57.7301C289.624 57.3486 290.458 57.1446 291.306 57.1337C292.25 57.2058 293.164 57.5011 293.971 57.9953C294.737 58.5106 295.65 58.7626 296.572 58.7133C296.833 58.6448 297.074 58.515 297.276 58.3347C297.477 58.1543 297.632 57.9286 297.729 57.6762C298.018 56.9501 298.232 56.1963 298.367 55.4265C298.534 53.9383 299.207 52.5526 300.273 51.5014C301.786 50.1781 303.663 49.3437 305.658 49.1081C313.636 47.9753 322.412 53.8947 324.143 61.5693C324.143 61.6252 324.47 62.9016 325.587 62.9016C326.019 62.8517 326.443 62.7444 326.847 62.5825C328.546 62.024 331.099 61.1704 333.062 64.178C335.399 67.776 335.056 68.9168 334.897 69.1801L334.857 69.4034ZM271.945 68.6057H334.29C334.29 68.1829 334.027 67.0101 332.464 64.6168C330.9 62.2235 328.81 62.7979 327.174 63.3404C326.689 63.5336 326.179 63.6546 325.659 63.6994C325.12 63.6699 324.607 63.4593 324.203 63.1016C323.799 62.7439 323.527 62.2601 323.433 61.7289C321.837 54.4612 313.421 48.8209 305.842 49.8979C304.005 50.1141 302.276 50.8786 300.88 52.0918C299.934 53.0294 299.347 54.2685 299.22 55.594C299.075 56.4132 298.845 57.2153 298.534 57.9873C298.388 58.3634 298.151 58.6978 297.845 58.9607C297.539 59.2237 297.173 59.4072 296.779 59.4951C295.687 59.584 294.597 59.3031 293.684 58.6973C292.983 58.2594 292.192 57.9866 291.37 57.8996C290.65 57.8995 289.94 58.0649 289.294 58.3831C288.648 58.7012 288.084 59.1636 287.645 59.7344C287.4 60.2109 287.253 60.7318 287.214 61.2662C287.07 62.1916 286.903 63.2446 285.937 63.7951C284.972 64.3456 284.031 64.0663 283.081 63.7951C282.399 63.5265 281.651 63.4681 280.935 63.6276C280.583 63.7165 280.271 63.9231 280.052 64.2133C279.833 64.5034 279.72 64.8597 279.731 65.2231C279.715 65.7075 279.557 66.1764 279.276 66.5714C278.534 67.5047 277.274 67.3691 275.686 67.1856L274.721 67.0899C273.58 67.0899 272.535 67.9435 271.945 68.6057Z" fill="#263238"/>
<path d="M470.399 162.302H405.875L406.314 161.679C406.386 161.576 408.117 159.102 410.303 159.286L411.284 159.39C412.824 159.557 413.677 159.629 414.164 159.071C414.345 158.787 414.445 158.458 414.451 158.121C414.453 157.605 414.622 157.103 414.932 156.69C415.243 156.277 415.678 155.976 416.174 155.832C417.042 155.599 417.962 155.649 418.799 155.975C419.514 156.293 420.325 156.316 421.057 156.039C421.687 155.68 421.799 154.938 421.934 154.077C421.988 153.433 422.175 152.808 422.485 152.242C423.002 151.563 423.667 151.011 424.431 150.629C425.194 150.248 426.035 150.046 426.888 150.04C427.846 150.11 428.773 150.409 429.593 150.909C430.36 151.422 431.272 151.674 432.194 151.627C432.454 151.558 432.694 151.428 432.894 151.248C433.093 151.068 433.247 150.842 433.342 150.59C433.634 149.865 433.848 149.111 433.981 148.341C434.147 146.852 434.821 145.467 435.887 144.415C437.397 143.089 439.276 142.254 441.272 142.022C449.25 140.889 458.025 146.809 459.757 154.475C459.757 154.539 460.084 155.816 461.201 155.816C461.632 155.763 462.056 155.656 462.461 155.497C464.16 154.93 466.721 154.084 468.676 157.092C471.013 160.682 470.67 161.831 470.519 162.094L470.399 162.302ZM407.486 161.504H469.832C469.832 161.089 469.569 159.948 468.006 157.515C466.442 155.082 464.352 155.696 462.716 156.238C462.231 156.432 461.721 156.553 461.201 156.597C460.664 156.567 460.154 156.356 459.752 156C459.349 155.644 459.079 155.164 458.983 154.635C457.387 147.359 448.979 141.711 441.384 142.796C439.547 143.006 437.817 143.768 436.422 144.982C435.482 145.923 434.896 147.16 434.762 148.484C434.617 149.304 434.388 150.106 434.076 150.877C433.932 151.254 433.697 151.589 433.392 151.854C433.088 152.118 432.722 152.303 432.329 152.393C431.235 152.475 430.145 152.194 429.226 151.595C428.529 151.15 427.736 150.876 426.912 150.798C426.197 150.808 425.494 150.978 424.853 151.295C424.213 151.613 423.651 152.07 423.211 152.633C422.966 153.109 422.819 153.63 422.78 154.164C422.636 155.09 422.469 156.143 421.511 156.693C420.554 157.244 419.597 156.964 418.647 156.693C417.966 156.42 417.217 156.362 416.501 156.526C416.142 156.616 415.825 156.829 415.605 157.127C415.385 157.425 415.276 157.791 415.297 158.161C415.278 158.644 415.123 159.111 414.85 159.509C414.1 160.443 412.84 160.307 411.252 160.124C410.949 160.124 410.622 160.052 410.287 160.028C409.122 159.996 408.053 160.874 407.486 161.504Z" fill="#263238"/>
<path d="M374.228 157.9H275.927L276.366 157.277C276.469 157.118 279.046 153.44 282.333 153.743L283.833 153.895C286.043 154.142 287.646 154.326 288.436 153.328C288.742 152.852 288.908 152.299 288.914 151.733C288.904 150.979 289.144 150.243 289.598 149.641C290.051 149.039 290.692 148.604 291.419 148.406C292.712 147.935 294.036 148.286 295.313 148.63C296.589 148.973 297.865 149.324 298.927 148.709C299.988 148.095 300.179 146.866 300.378 145.558C300.454 144.601 300.726 143.67 301.176 142.822C302.548 140.684 305.556 139.543 307.702 139.543C309.114 139.662 310.48 140.108 311.691 140.843C313.079 141.545 314.379 142.207 315.807 141.968C316.243 141.857 316.645 141.642 316.98 141.342C317.315 141.042 317.572 140.666 317.73 140.245C318.182 139.123 318.516 137.958 318.727 136.767C319.166 134.676 319.573 132.706 321.575 130.863C323.86 128.864 326.697 127.604 329.713 127.249C341.815 125.534 355.201 134.541 357.794 146.164C357.842 146.388 358.369 148.382 360.188 148.382C360.875 148.308 361.549 148.139 362.19 147.88C364.727 147.042 368.572 145.766 371.46 150.273C375.066 155.809 374.436 157.453 374.276 157.708L374.228 157.9ZM277.514 157.102H373.694C373.694 156.567 373.534 154.812 370.862 150.72C368.293 146.731 365.086 147.824 362.517 148.677C361.794 148.965 361.034 149.148 360.259 149.22C358.273 149.22 357.316 147.441 357.068 146.388C354.563 135.147 341.607 126.443 329.88 128.087C327.025 128.418 324.337 129.609 322.174 131.501C320.363 133.161 319.988 134.932 319.565 136.974C319.346 138.22 318.996 139.44 318.52 140.612C318.313 141.156 317.974 141.64 317.534 142.022C317.094 142.403 316.567 142.67 315.999 142.798C314.308 143.085 312.808 142.335 311.388 141.601C310.285 140.922 309.04 140.507 307.75 140.389C305.779 140.389 303.051 141.458 301.862 143.3C301.472 144.043 301.236 144.857 301.168 145.694C300.945 147.138 300.714 148.63 299.325 149.419C297.937 150.209 296.517 149.802 295.105 149.419C293.893 149.092 292.752 148.781 291.691 149.172C289.952 149.802 289.84 150.768 289.704 151.845C289.686 152.55 289.461 153.235 289.058 153.815C287.989 155.147 286.114 154.94 283.745 154.677L282.261 154.517C280.203 154.342 278.368 156.121 277.514 157.102Z" fill="#263238"/>
<path d="M380.345 280.073C380.345 280.073 374.529 274.05 376.157 274.225C377.784 274.401 380.848 278.916 380.848 278.916C380.848 278.916 380.888 268.984 382.34 271.154C383.792 273.324 382.013 278.956 382.013 278.956C382.013 278.956 386.161 272.486 386.153 273.539C386.153 276.81 382.962 279.371 382.962 279.371C382.962 279.371 389.607 274.449 388.546 276.443C387.485 278.437 383.209 280.328 383.209 280.328C383.209 280.328 390.868 278.78 388.147 279.873C385.427 280.966 382.842 281.708 382.842 281.708H380.72C380.72 281.708 373.492 278.078 376.213 278.621C377.66 278.876 379.056 279.366 380.345 280.073Z" fill="#263238"/>
<path d="M457.163 261.214C457.163 261.214 452.632 256.523 453.908 256.666C455.185 256.81 457.554 260.312 457.554 260.312C457.554 260.312 457.554 252.582 458.719 254.273C459.883 255.964 458.455 260.344 458.455 260.344C458.455 260.344 461.686 255.31 461.646 256.132C461.646 258.677 459.157 260.671 459.157 260.671C459.157 260.671 464.327 256.834 463.481 258.39C462.636 259.945 459.333 261.413 459.333 261.413C459.333 261.413 465.292 260.209 463.17 261.054C461.048 261.9 459.038 262.482 459.038 262.482H457.394C457.394 262.482 451.762 259.658 453.884 260.089C455.031 260.282 456.139 260.662 457.163 261.214Z" fill="#263238"/>
<path d="M528.516 244.386C528.516 244.386 523.993 239.695 525.261 239.838C526.53 239.982 528.907 243.484 528.907 243.484C528.907 243.484 528.907 235.754 530.072 237.445C531.237 239.136 529.816 243.516 529.816 243.516C529.816 243.516 533.008 238.482 533.008 239.304C533.008 241.849 530.519 243.843 530.519 243.843C530.519 243.843 535.688 240.014 534.842 241.562C533.997 243.109 530.686 244.585 530.686 244.585C530.686 244.585 536.645 243.38 534.531 244.226C532.417 245.072 530.399 245.654 530.399 245.654H528.747C528.747 245.654 523.163 242.83 525.237 243.261C526.385 243.452 527.493 243.832 528.516 244.386Z" fill="#263238"/>
<path d="M437.569 282.816C437.569 282.816 432.16 277.231 433.684 277.383C435.207 277.535 438.04 281.739 438.04 281.739C438.04 281.739 438.04 272.509 439.428 274.559C440.816 276.609 439.164 281.747 439.164 281.747C439.164 281.747 443.026 275.732 443.018 276.713C443.018 279.752 440.042 282.13 440.042 282.13C440.042 282.13 446.217 277.559 445.204 279.409C444.19 281.26 440.249 283.023 440.249 283.023C440.249 283.023 447.366 281.587 444.837 282.6C442.308 283.614 439.898 284.3 439.898 284.3H437.936C437.936 284.3 431.211 280.933 433.74 281.436C435.082 281.687 436.375 282.153 437.569 282.816Z" fill="#DBF0DC"/>
<path d="M330.286 258.779L282.699 205.424L272.176 213.84L219.635 134.741L173.954 144.921L160.265 119.352L146.982 118.65L121.971 69.3158L84.5719 103.445L66.4545 96.9746L0.566418 164.147L0 163.589L66.2391 96.0492L84.3884 102.535L122.211 68.0234L147.484 117.876L160.751 118.578L174.369 144.011L220.002 133.848L220.153 134.071L272.36 212.676L282.786 204.331L330.884 258.244L330.286 258.779Z" fill="#263238"/>
<path d="M334.838 262.696L334.242 263.227L339.26 268.853L339.856 268.322L334.838 262.696Z" fill="#263238"/>
<path d="M149.548 150.629L145.591 151.703L145.8 152.473L149.757 151.399L149.548 150.629Z" fill="#263238"/>
<path d="M173.968 144.009L154.004 149.426L154.213 150.196L174.177 144.779L173.968 144.009Z" fill="#263238"/>
<path d="M99.0606 121.675L98.3984 121.228L109.495 104.85L108.746 99.2176L108.793 99.1059L121.63 73.0586L122.348 73.4096L109.567 99.3532L110.325 105.041L99.0606 121.675Z" fill="#263238"/>
<path d="M96.5312 123.979L93.7275 128.121L94.3882 128.568L97.1918 124.426L96.5312 123.979Z" fill="#263238"/>
<path d="M76.3864 137.866L58.2461 162.453L58.8881 162.927L77.0284 138.34L76.3864 137.866Z" fill="#263238"/>
<path d="M78.6928 136.09L78.0466 135.619L80.4479 132.364L81.5568 117.957L71.457 109.723L66.8857 99.4482L67.6117 99.1211L72.1032 109.229L82.3865 117.605L81.2297 132.651L78.6928 136.09Z" fill="#263238"/>
<path d="M150.971 128.604L147.317 122.517L148.003 122.102L151.147 127.344L160.233 118.672L160.784 119.246L150.971 128.604Z" fill="#263238"/>
<path d="M335.231 256.219L334.713 255.613L348.626 243.686L376.085 249.574L418.71 189.901L418.99 189.996L446.234 199.083L468.579 167.539L468.906 167.762L542.317 219.546L541.855 220.2L468.771 168.648L446.545 200.024L419.014 190.85L376.436 250.468L348.841 244.556L335.231 256.219Z" fill="#263238"/>
<path d="M460.228 207.011L449.498 202.32L449.817 201.586L459.67 205.894L468.286 168L469.067 168.176L460.228 207.011Z" fill="#263238"/>
<path d="M397.816 255.795L382.683 253.171L382.818 252.381L397.282 254.894L418.718 192.5L419.476 192.755L397.816 255.795Z" fill="#263238"/>
<path d="M418.102 188.141C413.575 188.125 409.09 189.001 404.901 190.719C400.713 192.437 396.904 194.963 393.692 198.153C390.48 201.343 387.927 205.134 386.181 209.31C384.434 213.487 383.526 217.966 383.511 222.493C383.496 230.949 386.623 239.109 392.286 245.389C396.357 244.811 400.506 245.19 404.404 246.498C408.757 247.949 412.761 250.288 416.164 253.367H419.267C422.673 250.289 426.679 247.95 431.034 246.498C435.141 245.114 439.526 244.768 443.799 245.493C449.54 239.209 452.724 231.005 452.726 222.493C452.709 217.964 451.8 213.482 450.051 209.304C448.301 205.126 445.746 201.334 442.531 198.144C439.316 194.954 435.503 192.428 431.312 190.712C427.12 188.996 422.632 188.122 418.102 188.141Z" fill="#DBF0DC"/>
<path d="M434.2 236.274C433.136 236.806 432.072 237.338 431.008 237.869C429.966 238.434 428.957 239.057 427.985 239.736C427.626 239.984 427.275 240.247 426.916 240.534L432.588 229.979L424.81 242.154C424.012 242.792 423.214 243.438 422.488 244.1C421.238 245.164 420.015 246.281 418.818 247.451L418.42 236.003L426.557 223.613L418.42 234.24L418.061 223.996L417.454 235.476L416.872 246.964C415.827 245.983 414.774 245.026 413.681 244.084C412.827 243.342 411.958 242.608 411.072 241.906L403.717 229.341L409.118 240.422C408.806 240.199 408.503 239.968 408.184 239.752C407.212 239.073 406.203 238.45 405.161 237.885C404.123 237.335 403.062 236.8 401.969 236.29C399.84 235.25 397.657 234.326 395.428 233.522C397.585 234.469 399.689 235.535 401.73 236.713C402.751 237.287 403.756 237.877 404.746 238.484C405.718 239.093 406.653 239.759 407.546 240.478C409.325 241.902 411.022 243.425 412.628 245.041C414.032 246.438 415.404 247.89 416.712 249.349L416.026 263.885H419.433L418.946 249.892C420.406 248.217 421.962 246.573 423.557 244.986C425.163 243.369 426.86 241.846 428.639 240.422C429.532 239.703 430.467 239.037 431.439 238.428C432.428 237.822 433.434 237.231 434.455 236.657C436.498 235.479 438.605 234.414 440.765 233.466C438.527 234.281 436.335 235.218 434.2 236.274Z" fill="#263238"/>
<path d="M152.532 235.284C152.532 245.153 146.995 245.895 140.166 245.895C133.337 245.895 127.801 245.153 127.801 235.284C127.801 225.416 133.337 204.777 140.166 204.777C146.995 204.777 152.532 225.408 152.532 235.284Z" fill="#DBF0DC"/>
<path d="M144.343 239.759L142.301 239.902L147.622 236.312L143.825 238.235L144.343 236.727L142.604 238.849L140.562 239.878L140.402 232.794L141.487 230.169L140.378 231.645L140.283 227.537L143.673 223.013L140.259 226.508L140.051 217.461L139.868 223.253L137.698 220.828L139.836 224.362L139.549 233.536L137.65 232.299L135.927 229.244L136.621 231.621L133.238 229.412L139.509 234.82L138.559 264.92H141.136L140.594 241.051L141.192 240.652L144.343 239.759Z" fill="#263238"/>
<path d="M485.053 201.289C485.053 220.571 474.236 222.031 460.897 222.031C447.558 222.031 436.74 220.571 436.74 201.289C436.74 182.007 447.55 141.68 460.897 141.68C474.244 141.68 485.053 182.023 485.053 201.289Z" fill="#DBF0DC"/>
<path opacity="0.31" d="M485.053 201.289C485.053 220.571 474.236 222.031 460.897 222.031C447.558 222.031 436.74 220.571 436.74 201.289C436.74 182.007 447.55 141.68 460.897 141.68C474.244 141.68 485.053 182.023 485.053 201.289Z" fill="white"/>
<path d="M469.064 210.039L465.067 210.31L475.47 203.298L468.043 207.056L469.064 204.12L465.665 208.252L461.676 210.271L461.357 196.421L463.471 191.292L461.309 194.179L461.126 186.146L467.748 177.323L461.078 184.143L460.671 166.465L460.32 177.785L456.068 173.046L460.248 179.955L459.682 197.873L455.988 195.456L452.622 189.489L453.97 194.14L447.356 189.816L459.602 200.378L457.751 259.198H462.793L461.724 212.56L462.897 211.778L469.064 210.039Z" fill="#263238"/>
<path d="M536.761 208.878C536.761 218.754 531.225 219.496 524.396 219.496C517.567 219.496 512.03 218.754 512.03 208.878C512.03 199.001 517.567 178.379 524.396 178.379C531.225 178.379 536.761 199.009 536.761 208.878Z" fill="#DBF0DC"/>
<path opacity="0.5" d="M536.761 208.878C536.761 218.754 531.225 219.496 524.396 219.496C517.567 219.496 512.03 218.754 512.03 208.878C512.03 199.001 517.567 178.379 524.396 178.379C531.225 178.379 536.761 199.009 536.761 208.878Z" fill="white"/>
<path d="M528.577 213.36L526.534 213.496L531.856 209.906L528.05 211.829L528.577 210.329L526.838 212.443L524.795 213.48L524.636 206.388L525.713 203.763L524.612 205.239L524.516 201.13L527.907 196.615L524.492 200.109L524.285 191.062L524.101 196.846L521.931 194.429L524.069 197.963L523.774 207.138L521.883 205.893L520.16 202.838L520.854 205.223L517.472 203.005L523.734 208.414L522.785 238.514H525.37L524.827 214.653L525.418 214.246L528.577 213.36Z" fill="#263238"/>
<path d="M32.8335 200.53C32.8335 210.398 27.297 211.148 20.468 211.148C13.6391 211.148 8.10254 210.398 8.10254 200.53C8.10254 190.661 13.6391 170.055 20.468 170.055C27.297 170.055 32.8335 190.661 32.8335 200.53Z" fill="#DBF0DC"/>
<path opacity="0.5" d="M32.8335 200.53C32.8335 210.398 27.297 211.148 20.468 211.148C13.6391 211.148 8.10254 210.398 8.10254 200.53C8.10254 190.661 13.6391 170.055 20.468 170.055C27.297 170.055 32.8335 190.661 32.8335 200.53Z" fill="white"/>
<path d="M24.648 205.009L22.6057 205.152L27.9268 201.562L24.1214 203.485L24.648 201.985L22.9088 204.099L20.8665 205.128L20.707 198.044L21.784 195.419L20.683 196.895L20.5873 192.787L23.9699 188.271L20.5634 191.758L20.3559 182.719L20.1725 188.503L18.0025 186.077L20.1405 189.619L19.8534 198.786L17.9547 197.549L16.2315 194.494L16.9255 196.879L13.543 194.661L19.8055 200.07L18.8561 230.17H21.4409L20.8984 206.301L21.4888 205.902L24.648 205.009Z" fill="#263238"/>
<path d="M94.0944 178.145C89.5675 178.129 85.0818 179.005 80.8935 180.723C76.7052 182.441 72.8962 184.967 69.6841 188.157C66.472 191.347 63.9196 195.138 62.1727 199.314C60.4258 203.491 59.5187 207.97 59.503 212.497C59.4881 220.956 62.6155 229.118 68.2785 235.401C72.3485 234.819 76.4982 235.196 80.3966 236.502C84.7494 237.953 88.7536 240.292 92.1558 243.371H95.323C98.7288 240.293 102.735 237.954 107.09 236.502C111.198 235.126 115.582 234.781 119.854 235.497C125.585 229.209 128.758 221.005 128.75 212.497C128.733 207.965 127.823 203.481 126.072 199.301C124.32 195.121 121.762 191.327 118.544 188.137C115.325 184.946 111.509 182.421 107.314 180.707C103.118 178.992 98.6264 178.122 94.0944 178.145Z" fill="#DBF0DC"/>
<path opacity="0.33" d="M94.0944 178.145C89.5675 178.129 85.0818 179.005 80.8935 180.723C76.7052 182.441 72.8962 184.967 69.6841 188.157C66.472 191.347 63.9196 195.138 62.1727 199.314C60.4258 203.491 59.5187 207.97 59.503 212.497C59.4881 220.956 62.6155 229.118 68.2785 235.401C72.3485 234.819 76.4982 235.196 80.3966 236.502C84.7494 237.953 88.7536 240.292 92.1558 243.371H95.323C98.7288 240.293 102.735 237.954 107.09 236.502C111.198 235.126 115.582 234.781 119.854 235.497C125.585 229.209 128.758 221.005 128.75 212.497C128.733 207.965 127.823 203.481 126.072 199.301C124.32 195.121 121.762 191.327 118.544 188.137C115.325 184.946 111.509 182.421 107.314 180.707C103.118 178.992 98.6264 178.122 94.0944 178.145Z" fill="white"/>
<path d="M110.192 226.282C109.129 226.814 108.065 227.346 107.001 227.878C105.957 228.437 104.948 229.057 103.978 229.736L102.909 230.534L108.581 219.972L100.803 232.154C100.01 232.787 99.2363 233.433 98.481 234.092C97.2285 235.185 96.0079 236.294 94.8113 237.443L94.4124 225.995L102.55 213.605L94.3565 224.264L93.9976 214.012L93.4152 225.476L92.8328 236.972C91.7877 235.983 90.7347 235.026 89.6417 234.084C88.7908 233.345 87.9212 232.619 87.033 231.906L79.6775 219.341L85.0785 230.43C84.7673 230.199 84.4642 229.976 84.1451 229.752C83.1751 229.073 82.1654 228.453 81.1215 227.894C80.0844 227.335 79.0234 226.801 77.9304 226.298C75.8014 225.258 73.6176 224.334 71.3887 223.53C73.5744 224.464 75.7052 225.521 77.7709 226.697C78.792 227.271 79.7972 227.864 80.7864 228.476C81.7582 229.082 82.6932 229.746 83.5866 230.462C85.3639 231.888 87.0604 233.412 88.6684 235.026C90.0725 236.422 91.4447 237.874 92.753 239.342L92.0111 253.925H95.4176L94.9309 239.932C96.3909 238.257 97.9465 236.613 99.5421 235.026C101.15 233.412 102.847 231.888 104.624 230.462C105.517 229.746 106.452 229.082 107.424 228.476C108.397 227.822 109.4 227.229 110.432 226.697C112.475 225.532 114.581 224.482 116.742 223.554C114.511 224.343 112.324 225.254 110.192 226.282Z" fill="#263238"/>
<path d="M190.136 280.669V249.037H148.931V228.774L184.272 145.008H214.42V229.253H227.479V249.037H214.42V280.693L190.136 280.669ZM169.394 229.253H190.136V171.653L169.394 229.253Z" fill="#263238"/>
<path d="M276.047 280.74C267.894 280.74 261.139 279.065 255.784 275.714C250.467 272.421 246.262 267.607 243.713 261.897C241.054 256.046 239.725 249.265 239.725 241.553V180.755C239.725 172.831 241.006 165.882 243.57 159.909C245.98 154.122 250.139 149.232 255.465 145.924C260.826 142.574 267.692 140.898 276.063 140.898C284.328 140.898 291.112 142.574 296.414 145.924C301.697 149.258 305.821 154.143 308.221 159.909C310.785 165.877 312.067 172.825 312.067 180.755V241.553C312.067 249.249 310.737 256.03 308.078 261.897C305.531 267.606 301.329 272.42 296.015 275.714C290.628 279.065 283.972 280.74 276.047 280.74ZM276.047 257.964C279.063 257.964 281.241 257.014 282.581 255.116C283.971 253.084 284.887 250.767 285.261 248.334C285.685 245.929 285.909 243.493 285.932 241.051V181.226C285.921 178.646 285.724 176.071 285.341 173.519C285.023 171.034 284.136 168.657 282.748 166.571C281.408 164.624 279.174 163.648 276.047 163.643C272.92 163.638 270.66 164.614 269.266 166.571C267.827 168.638 266.908 171.021 266.586 173.519C266.203 176.071 266.006 178.646 265.995 181.226V241.059C266.014 243.501 266.238 245.938 266.665 248.342C267.044 250.802 268.022 253.131 269.513 255.124C270.965 257.017 273.143 257.964 276.047 257.964Z" fill="#263238"/>
<path d="M367.32 280.669V249.037H326.123V228.774L361.456 145.008H391.604V229.253H404.664V249.037H391.604V280.693L367.32 280.669ZM346.578 229.253H367.32V171.653L346.578 229.253Z" fill="#263238"/>
<path d="M552.534 215.242C500.376 249.434 397.367 272.682 278.818 272.682C156.631 272.682 50.9504 247.951 0.443359 212.051V349.555H552.502L552.534 215.242Z" fill="white"/>
<path d="M278.811 273.103C219.736 273.103 162.28 267.272 112.659 256.239C64.3297 245.501 25.4463 230.335 0.172852 212.361L0.63556 211.715C25.7893 229.601 64.5691 244.719 112.802 255.441C162.408 266.482 219.776 272.306 278.811 272.306C385.824 272.306 483.839 253.39 540.999 221.711L541.39 222.413C484.126 254.148 385.968 273.103 278.811 273.103Z" fill="#263238"/>
<path d="M545.618 220.003L545.211 219.317C547.748 217.825 550.221 216.286 552.558 214.754L552.997 215.416C550.644 216.964 548.163 218.503 545.618 220.003Z" fill="#263238"/>
<path d="M519.24 207.275C519.24 227.443 507.928 228.967 493.983 228.967C480.038 228.967 468.686 227.443 468.686 207.275C468.686 187.107 479.998 144.953 493.951 144.953C507.904 144.953 519.24 187.107 519.24 207.275Z" fill="#DBF0DC"/>
<path d="M502.518 216.424L498.337 216.711L509.227 209.38L501.449 213.305L502.518 210.241L498.968 214.565L494.795 216.671L494.468 202.184L496.678 196.831L494.412 199.838L494.221 191.446L501.146 182.216L494.173 189.348L493.75 170.863L493.375 182.694L488.94 177.74L493.303 184.968L492.713 203.708L488.852 201.179L485.326 194.94L486.738 199.799L479.829 195.283L492.633 206.324L490.695 267.833H495.968L494.851 219.065L496.072 218.243L502.518 216.424Z" fill="#263238"/>
<path d="M492.276 268.377C492.276 268.377 482.958 258.716 485.575 259.003C488.192 259.29 493.082 266.518 493.082 266.518C493.082 266.518 493.154 250.563 495.475 254.081C497.797 257.599 494.941 266.59 494.941 266.59C494.941 266.59 501.586 256.219 501.578 257.91C501.531 263.152 496.449 267.252 496.449 267.252C496.449 267.252 507.107 259.362 505.384 262.601C503.661 265.84 496.832 268.824 496.832 268.824C496.832 268.824 509.109 266.343 504.746 268.09C500.382 269.837 496.233 271.034 496.233 271.034H492.843C492.843 271.034 481.251 265.218 485.615 266.087C487.947 266.478 490.197 267.252 492.276 268.377Z" fill="#263238"/>
<path d="M45.6508 256.375C45.6508 256.375 37.5854 248.022 39.8431 248.278C42.1007 248.533 46.3449 254.772 46.3449 254.772C46.3449 254.772 46.4007 241.002 48.4191 244.018C50.4375 247.033 47.9564 254.828 47.9564 254.828C47.9564 254.828 53.7083 245.861 53.6924 247.32C53.6924 251.86 49.2648 255.402 49.2648 255.402C49.2648 255.402 58.4711 248.581 56.9633 251.349C55.4555 254.117 49.5679 256.726 49.5679 256.726C49.5679 256.726 60.1863 254.588 56.4128 256.096C52.6393 257.604 49.0573 258.609 49.0573 258.609H46.1135C46.1135 258.609 36.0935 253.583 39.859 254.333C41.8878 254.694 43.8441 255.384 45.6508 256.375Z" fill="#263238"/>
<path d="M74.7936 196.281C74.7936 216.472 63.4732 217.996 49.5042 217.996C35.5352 217.996 24.2148 216.472 24.2148 196.281C24.2148 176.089 35.5432 133.887 49.5042 133.887C63.4653 133.887 74.7936 176.089 74.7936 196.281Z" fill="#DBF0DC"/>
<path d="M58.0565 205.441L53.8762 205.728L64.7658 198.388L56.9875 202.321L58.0565 199.25L54.4984 203.582L50.3261 205.688L49.999 191.192L52.2088 185.823L49.9432 188.839L49.7517 180.431L56.6843 171.192L49.7038 178.34L49.281 159.832L48.906 171.679L44.4625 166.717L48.8343 173.953L48.2439 192.708L44.3747 190.179L40.8485 183.933L42.2606 188.799L35.3359 184.276L48.1641 195.333L46.2176 256.905H51.4988L50.3819 208.089L51.6025 207.268L58.0565 205.441Z" fill="#263238"/>
<path d="M133.928 277.367C133.928 277.367 125.863 269.015 128.129 269.27C130.394 269.525 134.63 275.764 134.63 275.764C134.63 275.764 134.686 261.994 136.697 265.01C138.707 268.025 136.234 275.82 136.234 275.82C136.234 275.82 141.986 266.853 141.978 268.313C141.978 272.852 137.542 276.394 137.542 276.394C137.542 276.394 146.757 269.573 145.249 272.341C143.741 275.11 137.845 277.758 137.845 277.758C137.845 277.758 148.464 275.62 144.69 277.128C140.917 278.636 137.327 279.673 137.327 279.673H134.415C134.415 279.673 124.387 274.647 128.161 275.397C130.177 275.736 132.126 276.402 133.928 277.367Z" fill="#263238"/>
<path d="M176.699 295.676C176.699 295.676 168.633 287.323 170.899 287.579C173.165 287.834 177.401 294.072 177.401 294.072C177.401 294.072 177.457 280.303 179.467 283.318C181.477 286.334 179.004 294.128 179.004 294.128C179.004 294.128 184.756 285.161 184.748 286.629C184.708 291.161 180.313 294.703 180.313 294.703C180.313 294.703 189.527 287.882 188.019 290.65C186.511 293.418 180.688 296.027 180.688 296.027C180.688 296.027 191.306 293.889 187.532 295.397C183.759 296.905 180.169 297.942 180.169 297.942H177.241C177.241 297.942 167.213 292.916 170.987 293.666C172.987 294.023 174.916 294.702 176.699 295.676Z" fill="#263238"/>
<path d="M291.527 283.383C291.527 283.383 285.711 277.36 287.346 277.544C288.982 277.727 292.029 282.227 292.029 282.227C292.029 282.227 292.077 272.294 293.529 274.472C294.981 276.65 293.194 282.275 293.194 282.275C293.194 282.275 297.342 275.797 297.334 276.858C297.334 280.129 294.143 282.681 294.143 282.681C294.143 282.681 300.789 277.759 299.728 279.762C298.667 281.764 294.391 283.639 294.391 283.639C294.391 283.639 302.049 282.091 299.321 283.184C296.592 284.277 294.016 285.019 294.016 285.019H291.901C291.901 285.019 284.666 281.389 287.386 281.931C288.835 282.19 290.233 282.68 291.527 283.383Z" fill="#263238"/>
<path d="M517.345 268.983C517.345 268.983 512.822 264.292 514.091 264.436C515.359 264.58 517.736 268.082 517.736 268.082C517.736 268.082 517.736 260.351 518.901 262.043C520.066 263.734 518.638 268.114 518.638 268.114C518.638 268.114 521.829 263.08 521.829 263.902C521.829 266.446 519.34 268.433 519.34 268.433C519.34 268.433 524.509 264.604 523.664 266.159C522.818 267.715 519.515 269.175 519.515 269.175C519.515 269.175 525.475 267.978 523.353 268.824C521.231 269.669 519.22 270.252 519.22 270.252H517.585C517.585 270.252 511.953 267.428 514.075 267.858C515.22 268.05 516.325 268.43 517.345 268.983Z" fill="#263238"/>
<path d="M212.521 283.414C212.521 283.414 204.455 275.062 206.721 275.317C208.986 275.572 213.223 281.811 213.223 281.811C213.223 281.811 213.278 268.041 215.289 271.057C217.299 274.072 214.834 281.875 214.834 281.875C214.834 281.875 220.586 272.9 220.57 274.367C220.53 278.899 216.142 282.441 216.142 282.441C216.142 282.441 225.349 275.62 223.841 278.388C222.333 281.157 216.446 283.765 216.446 283.765C216.446 283.765 227.056 281.627 223.283 283.135C219.509 284.643 215.927 285.68 215.927 285.68H212.991C212.991 285.68 202.963 280.654 206.737 281.404C208.761 281.754 210.715 282.433 212.521 283.414Z" fill="#DBF0DC"/>
<path d="M154.361 277.869C154.361 277.869 148.952 272.284 150.476 272.428C151.999 272.571 154.832 276.792 154.832 276.792C154.832 276.792 154.832 267.553 156.22 269.612C157.608 271.67 155.909 276.863 155.909 276.863C155.909 276.863 159.77 270.84 159.762 271.829C159.762 274.869 156.786 277.246 156.786 277.246C156.786 277.246 162.961 272.667 161.948 274.526C160.935 276.385 156.994 278.132 156.994 278.132C156.994 278.132 164.11 276.696 161.581 277.709C159.052 278.722 156.643 279.416 156.643 279.416H154.68C154.68 279.416 147.955 276.042 150.484 276.552C151.84 276.774 153.15 277.219 154.361 277.869Z" fill="#DBF0DC"/>
<path d="M86.7549 300.001C86.7549 300.001 81.3461 294.417 82.8698 294.569C84.3935 294.72 87.2256 298.924 87.2256 298.924C87.2256 298.924 87.2655 289.686 88.6138 291.744C89.962 293.803 88.3026 298.996 88.3026 298.996C88.3026 298.996 92.1319 292.917 92.1319 293.93C92.1319 296.97 89.1563 299.347 89.1563 299.347C89.1563 299.347 95.331 294.768 94.3258 296.627C93.3206 298.486 89.3637 300.233 89.3637 300.233C89.3637 300.233 96.4798 298.797 93.9509 299.81C91.4219 300.823 89.0126 301.517 89.0126 301.517H87.0501C87.0501 301.517 80.3249 298.143 82.8538 298.653C84.2202 298.882 85.5386 299.338 86.7549 300.001Z" fill="#DBF0DC"/>
<path d="M267.643 301.087C267.643 301.087 262.234 295.503 263.75 295.654C265.265 295.806 268.113 300.01 268.113 300.01C268.113 300.01 268.153 290.772 269.501 292.83C270.85 294.889 269.19 300.082 269.19 300.082C269.19 300.082 273.052 294.067 273.036 295.048C273.036 298.088 270.068 300.465 270.068 300.465C270.068 300.465 276.243 295.886 275.229 297.745C274.216 299.603 270.267 301.351 270.267 301.351C270.267 301.351 277.391 299.915 274.863 300.928C272.334 301.941 269.924 302.635 269.924 302.635H267.954C267.954 302.635 261.237 299.26 263.766 299.771C265.122 299.993 266.432 300.438 267.643 301.087Z" fill="#DBF0DC"/>
<path d="M355.399 301.372C355.399 301.372 349.998 295.788 351.514 295.939C353.03 296.091 355.87 300.303 355.87 300.303C355.87 300.303 355.91 291.065 357.258 293.123C358.606 295.182 356.947 300.367 356.947 300.367C356.947 300.367 360.808 294.352 360.8 295.333C360.8 298.381 357.824 300.758 357.824 300.758C357.824 300.758 363.999 296.179 362.994 298.038C361.989 299.896 358.032 301.644 358.032 301.644C358.032 301.644 365.148 300.208 362.619 301.221C360.09 302.234 357.681 302.928 357.681 302.928H355.718C355.718 302.928 348.993 299.553 351.522 300.056C352.877 300.282 354.186 300.727 355.399 301.372Z" fill="#DBF0DC"/>
<path d="M518.518 283.845C518.518 283.845 510.285 275.317 512.598 275.572C514.912 275.827 519.228 282.209 519.228 282.209C519.228 282.209 519.292 268.145 521.342 271.232C523.392 274.319 520.871 282.273 520.871 282.273C520.871 282.273 526.751 273.107 526.735 274.607C526.735 279.234 522.212 282.856 522.212 282.856C522.212 282.856 531.609 275.891 530.07 278.715C528.53 281.539 522.523 284.204 522.523 284.204C522.523 284.204 533.356 282.018 529.503 283.558C525.65 285.097 521.988 286.158 521.988 286.158H518.997C518.997 286.158 508.761 281.021 512.614 281.794C514.68 282.154 516.674 282.846 518.518 283.845Z" fill="#DBF0DC"/>
<path d="M27.9446 283.845C27.9446 283.845 19.7116 275.317 22.0172 275.572C24.3227 275.827 28.6546 282.209 28.6546 282.209C28.6546 282.209 28.7184 268.145 30.7687 271.232C32.819 274.319 30.298 282.273 30.298 282.273C30.298 282.273 36.1696 273.107 36.1617 274.607C36.1617 279.234 31.6383 282.856 31.6383 282.856C31.6383 282.856 41.0759 275.891 39.4804 278.715C37.8849 281.539 31.9255 284.204 31.9255 284.204C31.9255 284.204 42.7672 282.018 38.914 283.558C35.0607 285.097 31.399 286.158 31.399 286.158H28.4233C28.4233 286.158 18.1878 281.021 22.0411 281.794C24.107 282.154 26.1008 282.846 27.9446 283.845Z" fill="#DBF0DC"/>
<path d="M68.5571 271.807C68.5571 271.807 60.1327 257.272 62.534 256.155C64.9353 255.038 69.9054 266.087 69.9054 266.087C69.9054 266.087 68.9401 245.257 71.1818 247.18C73.4236 249.103 75.5057 263.846 75.5057 263.846C75.5057 263.846 79.9972 247.818 81.4412 251.185C82.8851 254.551 80.2844 264.747 80.2844 264.747C80.2844 264.747 86.7224 252.485 87.3686 256.49C88.0148 260.495 84.3211 267.061 84.3211 267.061C84.3211 267.061 92.8094 258.572 93.4556 261.939C94.1018 265.305 91.2139 268.664 91.2139 268.664C91.2139 268.664 102.423 262.577 99.7022 265.944C96.9818 269.31 92.977 273.634 92.977 273.634C92.977 273.634 103.707 269.789 102.423 272.039C101.138 274.288 96.3356 276.682 96.3356 276.682C96.3356 276.682 105.111 275.086 104.186 276.522C103.289 277.648 102.21 278.615 100.995 279.386H61.1059C61.1059 279.386 50.5355 275.565 54.7238 275.246C57.4568 275.124 60.1826 275.614 62.7015 276.682C62.7015 276.682 49.7217 267.906 55.8087 267.236C61.8957 266.566 66.8659 274.28 66.8659 274.28C66.8659 274.28 58.218 262.106 61.2815 264.029L68.5571 271.807Z" fill="#DBF0DC"/>
<path d="M69.1003 275.939C69.1003 275.939 58.2186 264.667 61.2741 265.01C64.3296 265.353 70.0496 273.785 70.0496 273.785C70.0496 273.785 70.1294 255.205 72.8418 259.274C75.5542 263.343 72.1876 273.849 72.1876 273.849C72.1876 273.849 79.95 261.747 79.934 263.725C79.8782 269.844 73.9507 274.623 73.9507 274.623C73.9507 274.623 86.38 265.425 84.3218 269.15C82.2635 272.876 74.3416 276.41 74.3416 276.41C74.3416 276.41 88.7015 273.522 83.5798 275.556C78.4581 277.591 73.6476 278.995 73.6476 278.995H69.6587C69.6587 278.995 56.0966 272.206 61.2262 273.227C63.9831 273.689 66.644 274.605 69.1003 275.939Z" fill="#263238"/>
<path d="M73.786 279.394H69.6376L69.5499 279.346C59.3862 274.248 59.6655 273.443 59.7772 273.108C59.9527 272.597 60.6627 272.693 61.3727 272.836C63.394 273.227 65.3716 273.818 67.2762 274.599C64.2128 271.321 59.7931 266.263 60.4154 265.026C60.5005 264.87 60.6354 264.746 60.7988 264.675C60.9622 264.605 61.1445 264.59 61.3169 264.635C63.8857 264.922 68.0022 270.26 69.6536 272.557C69.7174 268.185 70.0604 258.883 71.8794 258.341C72.3261 258.205 72.7569 258.452 73.1718 259.067C75.1502 262.034 74.0972 268.082 73.2755 271.504C78.9556 262.84 79.6577 263.064 79.9847 263.151C80.1075 263.191 80.2123 263.273 80.2808 263.382C80.3493 263.492 80.3773 263.622 80.3597 263.75C80.1921 266.721 79.0733 269.56 77.1686 271.847C80.6868 269.406 84.0295 267.411 84.7554 268.05C85.2022 268.441 84.8352 269.111 84.6916 269.366C83.3673 271.799 79.7215 274.097 77.1766 275.477C84.8272 274.033 84.9708 274.496 85.0745 274.839C85.2181 275.325 84.6358 275.597 83.7422 275.956C78.7003 277.974 73.8259 279.386 73.7781 279.402L73.786 279.394ZM69.869 278.596H73.6744C74.2089 278.437 78.5966 277.136 83.2476 275.309C81.3489 275.525 77.8068 276.107 74.536 276.801L71.2092 277.471L71.6959 277.982L68.9595 276.275C66.5641 274.981 63.9751 274.084 61.2929 273.618L60.9818 273.562C63.8073 275.431 66.7521 277.112 69.7972 278.596H69.869ZM61.1653 265.401C61.1653 266.422 65.3775 271.464 69.4302 275.66L71.1374 277.431L74.2647 276.043C74.3445 276.043 82.1068 272.533 84.0534 268.959C84.1097 268.865 84.1578 268.766 84.197 268.664C83.0322 268.855 78.2695 271.967 74.2567 274.942L73.7701 274.312C73.8259 274.272 79.2508 269.821 79.5859 264.181C78.4131 265.361 75.2938 269.845 72.5894 274.065L70.9938 276.602L71.9033 273.73C71.9033 273.626 75.1502 263.359 72.5734 259.49C72.3181 259.099 72.1825 259.083 72.1825 259.083C71.313 259.242 70.5471 265.968 70.5152 273.778V275.062L69.7892 274.001C68.1937 271.696 63.6623 265.664 61.3089 265.401H61.1653Z" fill="#263238"/>
<path d="M427.359 297.369C427.359 297.369 411.404 269.91 415.975 267.787C420.546 265.665 429.912 286.535 429.912 286.535C429.912 286.535 428.093 247.173 432.305 250.803C436.518 254.433 440.483 282.299 440.483 282.299C440.483 282.299 448.963 251.984 451.691 258.366C454.42 264.748 449.537 283.998 449.537 283.998C449.537 283.998 461.711 260.823 462.924 268.394C464.137 275.965 457.172 288.378 457.172 288.378C457.172 288.378 473.223 272.327 474.436 278.685C475.648 285.043 470.192 291.41 470.192 291.41C470.192 291.41 491.389 279.898 486.243 286.256C481.097 292.614 473.526 300.799 473.526 300.799C473.526 300.799 493.814 293.524 491.389 297.768C488.963 302.012 479.885 306.543 479.885 306.543C479.885 306.543 496.542 303.512 494.723 306.24C492.904 308.969 488.676 311.641 488.676 311.641H413.255C413.255 311.641 393.262 304.421 401.136 303.815C409.01 303.209 416.294 306.543 416.294 306.543C416.294 306.543 391.771 289.886 403.274 288.673C414.778 287.461 424.168 301.996 424.168 301.996C424.168 301.996 407.814 278.98 413.574 282.618L427.359 297.369Z" fill="#DBF0DC"/>
<path d="M428.386 305.188C428.386 305.188 407.82 283.879 413.635 284.517C419.451 285.155 430.205 301.095 430.205 301.095C430.205 301.095 430.357 265.993 435.486 273.667C440.616 281.342 434.314 301.239 434.314 301.239C434.314 301.239 448.977 278.358 448.945 282.092C448.841 293.652 437.648 302.69 437.648 302.69C437.648 302.69 461.127 285.299 457.281 292.319C453.436 299.34 438.366 306.081 438.366 306.081C438.366 306.081 465.435 300.616 455.814 304.485C446.192 308.355 437.042 310.979 437.042 310.979H429.591C429.591 310.979 404.062 298.151 413.635 300.074C423.209 301.996 428.386 305.188 428.386 305.188Z" fill="#263238"/>
<path d="M437.116 311.351H429.49L429.402 311.311C420.762 306.971 410.575 301.482 411.109 299.935C411.293 299.4 412.026 299.32 413.718 299.655C418.092 300.491 422.35 301.846 426.402 303.692C421.687 298.706 411.085 287.075 412.274 284.665C412.417 284.362 412.776 284.027 413.622 284.123C418.704 284.681 427.184 296.233 429.761 299.831C429.833 293.273 430.319 273.233 433.75 272.212C434.428 272.005 435.114 272.42 435.8 273.441C439.901 279.607 436.949 293.05 435.425 298.746C440.339 291.167 447.344 280.852 448.868 281.307C449.043 281.363 449.33 281.53 449.322 282.104C449.259 289.284 444.927 295.571 441.608 299.328C447.535 295.116 456.359 289.245 457.811 290.505C458.369 290.992 457.962 291.909 457.611 292.555C454.739 297.813 445.996 302.759 441.408 305.08C457.906 301.889 458.162 302.807 458.297 303.174C458.449 303.684 457.906 304.075 456 304.841C446.426 308.654 437.276 311.319 437.188 311.343L437.116 311.351ZM429.673 310.553H437.005C437.802 310.33 446.578 307.737 455.689 304.091C456.159 303.91 456.619 303.705 457.069 303.477C454.747 303.477 446.179 304.913 438.457 306.468L434.899 307.186L438.217 305.711C438.369 305.647 453.152 299.017 456.893 292.148C457.364 291.295 457.26 291.071 457.26 291.071C456.215 290.345 446.371 296.656 437.842 303.038L437.356 302.408C437.467 302.32 448.365 293.385 448.525 282.184C446.929 283.158 440.292 292.643 434.627 301.474L433.032 304.011L433.941 301.139C434.005 300.94 440.132 281.355 435.162 273.911C434.907 273.52 434.404 272.882 434.013 273.002C431.62 273.72 430.662 290.625 430.615 301.115V302.408L429.897 301.339C429.785 301.179 419.135 285.551 413.606 284.937C413.462 284.937 413.127 284.897 413.064 285.04C412.266 286.708 421.727 297.677 428.732 304.929L430.974 307.25L428.229 305.543C428.181 305.543 423.036 302.352 413.614 300.461C413.093 300.329 412.556 300.27 412.018 300.286C412.84 301.594 421.472 306.429 429.673 310.553Z" fill="#263238"/>
<path d="M96.0016 272.628C96.0016 272.628 97.5971 271.152 99.0252 271.152C100.453 271.152 104.689 273.203 104.689 273.203C104.689 273.203 106.397 275.835 106.548 275.995C106.7 276.154 108.798 277.048 108.941 277.415C109.085 277.782 109.404 279.01 109.404 279.01H96.3845L93.9912 272.692L96.0016 272.628Z" fill="white"/>
<path d="M109.939 279.394H96.1214L93.417 272.294L95.8502 272.23C96.265 271.887 97.709 270.754 99.0413 270.754C100.485 270.754 104.434 272.637 104.881 272.844L104.977 272.892L105.041 272.988C105.838 274.208 106.74 275.58 106.859 275.724L107.434 276.011C108.726 276.649 109.205 276.937 109.341 277.256C109.476 277.575 109.795 278.764 109.827 278.891L109.939 279.394ZM96.6639 278.596H108.886C108.8 278.248 108.696 277.904 108.575 277.567C108.087 277.251 107.578 276.968 107.051 276.721C106.766 276.608 106.498 276.458 106.253 276.275C106.094 276.115 105.049 274.519 104.402 273.514C103.158 272.924 100.054 271.552 99.0094 271.552C97.7808 271.552 96.265 272.908 96.2491 272.924L96.1374 273.02L94.5419 273.067L96.6639 278.596Z" fill="#263238"/>
<path d="M99.0237 271.154L98.9439 272.399C98.9439 272.399 102.279 274.338 102.207 275.04C102.014 275.837 101.747 276.614 101.409 277.361L103.116 279.148H94.0615L94.7556 273.795C94.7556 273.795 96.6942 271.003 99.0237 271.154Z" fill="#263238"/>
<path d="M79.0078 271.854C79.0078 271.854 85.5256 262.073 86.9855 261.922C88.1181 261.953 89.2274 262.25 90.2239 262.789C91.2204 263.328 92.076 264.094 92.7215 265.025C93.6883 267.018 94.4681 269.095 95.051 271.232C95.1308 271.463 95.4419 271.623 97.221 274.487C99 277.351 98.9282 278.994 98.9282 278.994H73.7266C74.0255 277.586 74.5224 276.227 75.2024 274.957C75.9882 273.963 77.0784 273.254 78.3058 272.939L79.0078 271.854Z" fill="white"/>
<path d="M99.3118 279.394H73.2246L73.3203 278.907C73.6308 277.453 74.1465 276.051 74.8521 274.743C75.649 273.694 76.7713 272.939 78.0432 272.597L78.6654 271.631C80.261 269.302 85.4066 261.691 86.9463 261.523C88.1575 261.548 89.3453 261.861 90.412 262.435C91.4787 263.009 92.3935 263.829 93.0812 264.826C94.0575 266.767 94.8276 268.804 95.3788 270.905L95.4346 271.105L95.5862 271.304C95.8415 271.647 96.384 272.365 97.5726 274.28C99.3995 277.224 99.3437 278.939 99.3357 279.011L99.3118 279.394ZM74.2218 278.596H98.514C98.2516 277.203 97.7087 275.879 96.9185 274.703C96.3188 273.7 95.6691 272.728 94.9719 271.791C94.859 271.664 94.7698 271.518 94.7086 271.36C94.6792 271.285 94.6552 271.207 94.6368 271.129C94.1176 269.084 93.371 267.104 92.411 265.225C91.8056 264.359 91.0067 263.645 90.0775 263.141C89.1483 262.637 88.1145 262.356 87.058 262.321C86.2602 262.441 82.4867 267.371 79.3595 272.07L78.5617 273.291L78.4022 273.33C77.2746 273.617 76.2699 274.261 75.5381 275.165C74.9489 276.244 74.5113 277.398 74.2378 278.596H74.2218Z" fill="#263238"/>
<path d="M89.0119 278.834C89.0119 278.834 88.3178 277.127 88.2141 276.896C88.1104 276.665 88.1343 274.415 87.903 273.481C87.2975 272.149 86.5712 270.876 85.733 269.676L87.1291 265.647L86.4271 265.105L87.5919 262.233L86.9457 261.93C85.4139 262.201 78.9679 271.854 78.9679 271.854L78.2659 272.939C77.0385 273.254 75.9483 273.963 75.1626 274.957C74.5 276.174 74.0163 277.48 73.7266 278.834H89.0119Z" fill="#263238"/>
<path d="M347.29 275.062C347.818 274.573 348.478 274.251 349.189 274.137C350.066 274.137 352.739 275.421 352.739 275.421C352.739 275.421 353.808 277.073 353.903 277.168C353.999 277.264 355.316 277.83 355.411 278.062C355.507 278.293 355.706 279.051 355.706 279.051H347.529L346.021 275.062H347.29Z" fill="white"/>
<path d="M356.193 279.45H347.258L345.455 274.712L347.138 274.664C347.71 274.151 348.426 273.828 349.189 273.738C350.13 273.738 352.627 274.927 352.914 275.063L353.01 275.11L353.074 275.206C353.56 275.964 354.119 276.802 354.207 276.905C354.294 277.009 354.35 276.961 354.518 277.049C355.371 277.48 355.675 277.663 355.778 277.903C355.902 278.245 356.006 278.594 356.089 278.948L356.193 279.45ZM347.785 278.653H355.164C355.108 278.461 355.052 278.294 355.02 278.214C354.988 278.134 354.382 277.887 354.135 277.759C353.941 277.685 353.761 277.579 353.6 277.448C353.176 276.904 352.789 276.33 352.444 275.733C351.405 275.198 350.304 274.796 349.165 274.536C348.554 274.638 347.985 274.915 347.529 275.334L347.426 275.43H346.572L347.785 278.653Z" fill="#263238"/>
<path d="M349.188 274.137L349.14 274.934C349.14 274.934 351.23 276.155 351.182 276.594C351.067 277.095 350.904 277.584 350.695 278.054L351.764 279.171H346.068L346.507 275.812C346.507 275.812 347.728 274.041 349.188 274.137Z" fill="#263238"/>
<path d="M336.636 274.567C336.636 274.567 340.728 268.432 341.654 268.336C342.364 268.358 343.058 268.546 343.683 268.883C344.308 269.221 344.845 269.7 345.252 270.283C345.856 271.533 346.345 272.836 346.712 274.176C346.76 274.319 346.951 274.423 348.076 276.218C348.685 277.043 349.055 278.02 349.145 279.042H333.333C333.518 278.159 333.83 277.307 334.258 276.513C334.751 275.889 335.435 275.443 336.205 275.245L336.636 274.567Z" fill="white"/>
<path d="M349.517 279.449H332.836L332.94 278.962C333.136 278.035 333.463 277.14 333.913 276.305C334.422 275.632 335.136 275.142 335.947 274.909L336.306 274.351C337.902 272.005 340.638 268.049 341.603 267.969C342.391 267.978 343.165 268.177 343.86 268.549C344.554 268.922 345.148 269.456 345.592 270.107C346.217 271.335 346.706 272.627 347.052 273.96V274.072C347.052 274.072 347.052 274.072 347.124 274.159C347.284 274.375 347.627 274.822 348.377 276.034C349.03 276.925 349.422 277.98 349.509 279.082L349.517 279.449ZM333.841 278.651H348.696C348.506 277.861 348.18 277.11 347.73 276.433C346.996 275.26 346.669 274.838 346.518 274.622C346.438 274.53 346.373 274.424 346.326 274.311L346.286 274.167C345.96 272.894 345.494 271.661 344.898 270.49C344.535 269.974 344.059 269.548 343.506 269.245C342.953 268.942 342.337 268.77 341.707 268.743C341.173 268.918 338.835 272.021 336.984 274.79L336.466 275.587L336.314 275.627C335.643 275.794 335.043 276.175 334.607 276.712C334.269 277.321 334.016 277.973 333.857 278.651H333.841Z" fill="#263238"/>
<path d="M342.911 278.954C342.911 278.954 342.472 277.877 342.424 277.734C342.376 277.59 342.376 276.138 342.233 275.596C341.849 274.759 341.393 273.958 340.869 273.202L341.746 270.673L341.307 270.33L342.033 268.535L341.626 268.344C340.669 268.511 336.632 274.566 336.632 274.566L336.202 275.244C335.432 275.443 334.748 275.889 334.255 276.513C333.837 277.276 333.534 278.095 333.354 278.946L342.911 278.954Z" fill="#263238"/>
<path d="M479.228 298.925C479.228 298.925 482.308 296.141 484.948 296.141C487.589 296.141 495.655 300.018 495.655 300.018C495.655 300.018 498.885 304.988 499.173 305.291C499.46 305.594 503.425 307.278 503.72 307.972C504.015 308.666 504.598 310.955 504.598 310.955H479.962L475.415 299.029L479.228 298.925Z" fill="white"/>
<path d="M505.113 311.351H479.688L474.838 298.635L479.05 298.499C479.648 297.981 482.425 295.707 484.922 295.707C487.626 295.707 495.468 299.465 495.803 299.624L495.899 299.672L495.963 299.768C497.184 301.65 499.21 304.722 499.433 304.977C499.529 305.049 500.119 305.344 500.638 305.607C502.832 306.7 503.829 307.275 504.06 307.785C504.363 308.495 504.938 310.729 504.962 310.825L505.113 311.351ZM480.239 310.554H504.084C503.893 309.844 503.55 308.591 503.35 308.16C503.151 307.729 501.228 306.844 500.303 306.381C499.804 306.168 499.331 305.9 498.891 305.583C498.596 305.288 496.21 301.595 495.381 300.342C494.447 299.903 487.315 296.553 484.946 296.553C482.576 296.553 479.521 299.209 479.497 299.233L479.385 299.337L475.987 299.425L480.239 310.554Z" fill="#263238"/>
<path d="M484.949 296.107L484.805 298.452C484.805 298.452 491.108 302.122 490.964 303.438C490.612 304.948 490.121 306.423 489.496 307.842L492.687 311.217H475.535L476.851 301.093C476.851 301.093 480.553 295.851 484.949 296.107Z" fill="#263238"/>
<path d="M447.142 297.465C447.142 297.465 459.467 278.988 462.252 278.693C465.036 278.398 470.899 280.743 473.101 284.557C475.303 288.37 477.353 295.853 477.505 296.292C477.657 296.731 478.239 297.026 481.606 302.451C484.972 307.875 484.837 310.955 484.837 310.955H437.138C437.138 310.955 438.167 306.112 439.93 303.328C441.693 300.544 445.794 299.515 445.794 299.515L447.142 297.465Z" fill="white"/>
<path d="M485.18 311.355H436.651L436.755 310.876C436.755 310.669 437.816 305.93 439.587 303.114C441.239 300.505 444.749 299.396 445.539 299.173L446.783 297.242C448.052 295.336 459.284 278.598 462.18 278.295C465.076 277.992 471.131 280.393 473.413 284.358C474.729 286.632 476.181 290.469 477.737 295.774C477.793 295.982 477.832 296.117 477.848 296.165C477.939 296.337 478.049 296.497 478.175 296.644C478.662 297.29 479.667 298.622 481.917 302.228C485.316 307.701 485.204 310.836 485.204 310.964L485.18 311.355ZM437.641 310.557H484.39C484.302 309.592 483.824 306.824 481.199 302.659C480.059 300.755 478.823 298.91 477.497 297.131C477.312 296.916 477.162 296.674 477.051 296.413L476.931 295.998C475.391 290.756 473.963 286.975 472.687 284.757C470.589 281.119 464.885 278.798 462.22 279.085C460.329 279.284 452.128 290.597 447.405 297.681L446.001 299.867L445.85 299.907C445.85 299.907 441.861 300.928 440.265 303.545C439.069 305.749 438.186 308.109 437.641 310.557Z" fill="#263238"/>
<path d="M466.032 310.658C466.032 310.658 464.707 307.467 464.564 306.996C464.42 306.525 464.42 302.297 463.973 300.542C463.527 298.787 459.873 293.362 459.873 293.362L462.513 285.735L461.189 284.706L463.391 279.281L462.162 278.715C459.274 279.233 447.108 297.47 447.108 297.47L445.792 299.521C445.792 299.521 441.684 300.55 439.928 303.334C438.421 305.727 437.455 309.589 437.208 310.666L466.032 310.658Z" fill="#263238"/>
</svg>
