<svg width="400" height="400" viewBox="0 0 400 400" fill="none" xmlns="http://www.w3.org/2000/svg">
<circle cx="200.358" cy="186.785" r="125.357" fill="#ECF7EC" fill-opacity="0.5"/>
<circle cx="82.8581" cy="102.142" r="7.85714" fill="#ECF7EC"/>
<circle cx="243.929" cy="46.7854" r="14.6429" fill="#ECF7EC"/>
<circle cx="94.6434" cy="286.786" r="13.9286" fill="#ECF7EC"/>
<circle cx="334.643" cy="253.929" r="13.9286" fill="#ECF7EC"/>
<circle cx="307.501" cy="269.643" r="6.78571" fill="#ECF7EC"/>
<path d="M207.519 67.5262C207.105 67.4381 207.105 66.8471 207.519 66.759L213.78 65.4275C213.931 65.3954 214.049 65.2778 214.082 65.1271L215.43 58.91C215.519 58.4979 216.107 58.4979 216.196 58.91L217.544 65.1271C217.577 65.2778 217.695 65.3954 217.846 65.4275L224.107 66.759C224.521 66.8471 224.521 67.4381 224.107 67.5262L217.846 68.8576C217.695 68.8897 217.577 69.0073 217.544 69.1581L216.196 75.3752C216.107 75.7872 215.519 75.7872 215.43 75.3752L214.082 69.1581C214.049 69.0073 213.931 68.8897 213.78 68.8576L207.519 67.5262Z" fill="#E8EAEB"/>
<path d="M64.4456 195.444C64.6055 194.689 65.6834 194.689 65.8432 195.444L68.231 206.724C68.2891 206.999 68.5031 207.215 68.7777 207.274L79.9416 209.706C80.6913 209.87 80.6913 210.939 79.9416 211.102L68.7777 213.534C68.5031 213.594 68.2891 213.809 68.231 214.084L65.8432 225.365C65.6834 226.12 64.6055 226.12 64.4456 225.365L62.0579 214.084C61.9997 213.809 61.7857 213.594 61.5111 213.534L50.3472 211.102C49.5976 210.939 49.5976 209.87 50.3472 209.706L61.5111 207.274C61.7857 207.215 61.9997 206.999 62.0579 206.724L64.4456 195.444Z" fill="#E8EAEB"/>
<path d="M312.39 105.444C312.549 104.689 313.627 104.689 313.787 105.444L315.18 112.025C315.238 112.3 315.452 112.515 315.727 112.575L322.258 113.998C323.008 114.161 323.008 115.23 322.258 115.393L315.727 116.816C315.452 116.876 315.238 117.091 315.18 117.366L313.787 123.947C313.627 124.702 312.549 124.702 312.39 123.947L310.997 117.366C310.938 117.091 310.724 116.876 310.45 116.816L303.919 115.393C303.169 115.23 303.169 114.161 303.919 113.998L310.45 112.575C310.724 112.515 310.938 112.3 310.997 112.025L312.39 105.444Z" fill="#E8EAEB"/>
<path d="M341.186 210.949L343.373 221.283L353.56 223.502L343.373 225.721L341.186 236.055L338.999 225.721L328.812 223.502L338.999 221.283L341.186 210.949Z" fill="white"/>
<path d="M271.43 130L102.501 194.643L138.572 295L160.358 304.643L187.501 310.357L215.001 309.286L231.072 306.429L245.358 302.143L268.93 290L288.93 274.286L290.474 272.29C299.19 261.022 306.918 249.024 313.572 236.429L271.43 130Z" fill="#C3E7C5" fill-opacity="0.5"/>
<path d="M115.357 166.071L97.5 156.071L252.5 97.5L244.286 117.857L250.357 136.786L122.143 185.714L115.357 166.071Z" fill="#ECF7EC"/>
<path d="M137.857 294.642V294.642C153.487 302.633 170.409 307.794 187.838 309.886L188.273 309.938L200.7 309.938C210.008 309.938 219.29 308.947 228.388 306.983L231.469 306.318C241.197 304.217 250.589 300.788 259.382 296.125V296.125C266.242 292.487 272.691 288.122 278.619 283.107L280.543 281.479C285.687 277.126 290.461 272.352 294.814 267.208V267.208C300.909 260.005 306.144 252.116 310.414 243.702L314.286 236.07" stroke="#E8EAEB" stroke-width="2.85714"/>
<path d="M101.13 193.152L138.572 295.333" stroke="#E8EAEB" stroke-width="2.85714"/>
<path d="M272.916 129.938L313.992 237.265" stroke="#E8EAEB" stroke-width="2.85714"/>
<path d="M94.7009 156.366L254.696 96.2462" stroke="#E8EAEB" stroke-width="2.85714"/>
<path d="M100.302 194.994L270.665 129.294L245.55 117.631C244.829 117.296 244.52 116.436 244.863 115.719L253.609 97.4177" stroke="#E8EAEB" stroke-width="2.85714"/>
<path d="M96.1368 155.874L114.146 165.529C114.83 165.896 115.096 166.743 114.744 167.435L101.13 194.225" stroke="#E8EAEB" stroke-width="2.85714"/>
<path d="M95.416 154.582L107.02 183.588" stroke="#E8EAEB" stroke-width="2.85714"/>
<path d="M115 167.143L122.143 187.143" stroke="#E8EAEB" stroke-width="2.85714"/>
<path d="M245 117.143L252.143 137.857" stroke="#E8EAEB" stroke-width="2.85714"/>
<path d="M253.734 97.75L263.987 126.009" stroke="#E8EAEB" stroke-width="2.85714"/>
<circle cx="168.214" cy="185.357" r="7.5" fill="#ECF7EC"/>
<circle cx="157.5" cy="146.785" r="5.35714" fill="#ECF7EC"/>
<circle cx="215.357" cy="167.5" r="7.5" fill="#ECF7EC"/>
<circle cx="190.357" cy="134.642" r="5.35714" fill="#ECF7EC"/>
</svg>
