<svg width="22" height="22" viewBox="0 0 22 22" fill="none" xmlns="http://www.w3.org/2000/svg">
<path d="M21.1363 7.10274C21.1363 6.60304 20.7295 6.19642 20.2298 6.19642H18.7784V1.17372C18.7784 0.588886 18.3026 0.113281 17.718 0.113281H4.28874C3.70369 0.113281 3.22786 0.588886 3.22786 1.17372V10.8454H1.91403C1.33473 10.8454 0.86377 11.3166 0.86377 11.8959V18.9597C0.86377 20.5696 2.17362 21.8794 3.78329 21.8794C3.73218 21.8794 18.472 21.903 18.8655 21.8283C20.1811 21.5772 21.1363 20.3799 21.1363 18.9814V7.10274ZM4.13352 1.17372C4.13352 1.08837 4.20295 1.01894 4.28874 1.01894H17.718C17.8033 1.01894 17.8728 1.08837 17.8728 1.17372V16.7437C17.8728 17.2826 17.4345 17.7208 16.8955 17.7208H16.4139V9.09515C16.4139 8.59545 16.0075 8.18883 15.5078 8.18883H11.6574C11.2019 8.18883 10.8022 8.47715 10.6642 8.90035L10.0349 10.7426C10.0128 10.805 9.95885 10.8454 9.89738 10.8454H4.13352V1.17372ZM12.1898 20.9738H5.27975V17.0593C5.27975 16.6066 5.64811 16.2385 6.1005 16.2385H11.3691C11.8215 16.2385 12.1898 16.6066 12.1898 17.0593V20.9738ZM13.0955 20.9738V17.0593C13.0955 16.1074 12.3212 15.3328 11.3691 15.3328H6.1005C5.14841 15.3328 4.37409 16.1074 4.37409 17.0593V20.9738H3.78329C2.67288 20.9738 1.76943 20.0703 1.76943 18.9597V11.8959C1.76943 11.8161 1.83444 11.7511 1.91403 11.7511H9.89738C10.3414 11.7511 10.7398 11.467 10.8906 11.0396L11.5234 9.18691C11.5411 9.13252 11.5964 9.09449 11.6574 9.09449L15.5082 9.09515V19.0689C15.5082 19.7898 15.7901 20.4737 16.2525 20.9738H13.0955ZM20.2307 18.9814C20.2307 19.9458 19.585 20.769 18.6957 20.9386C17.5333 21.1621 16.4139 20.2911 16.4139 19.0689V18.6265H16.8955C17.9338 18.6265 18.7784 17.7818 18.7784 16.7437V7.10224L20.2307 7.10274V18.9814Z" fill="#1D2939"/>
<path d="M9.07862 2.42969H5.7956C5.54531 2.42969 5.34277 2.63244 5.34277 2.88252V6.9445C5.34277 7.19458 5.54531 7.39733 5.7956 7.39733H9.07862C9.32892 7.39733 9.53145 7.19458 9.53145 6.9445V2.88252C9.53145 2.63244 9.32892 2.42969 9.07862 2.42969ZM8.62579 6.49167H6.24843V3.33535H8.62579V6.49167Z" fill="#1D2939"/>
<path d="M11.0031 3.33535H16.4402C16.6905 3.33535 16.893 3.13259 16.893 2.88252C16.893 2.63244 16.6905 2.42969 16.4402 2.42969H11.0031C10.7528 2.42969 10.5503 2.63244 10.5503 2.88252C10.5503 3.13259 10.7528 3.33535 11.0031 3.33535Z" fill="#1D2939"/>
<path d="M11.0031 5.14394H16.4402C16.6905 5.14394 16.893 4.94119 16.893 4.69111C16.893 4.44104 16.6905 4.23828 16.4402 4.23828H11.0031C10.7528 4.23828 10.5503 4.44104 10.5503 4.69111C10.5503 4.94119 10.7528 5.14394 11.0031 5.14394Z" fill="#1D2939"/>
<path d="M11.0031 6.95253H16.4402C16.6905 6.95253 16.893 6.74978 16.893 6.4997C16.893 6.24963 16.6905 6.04688 16.4402 6.04688H11.0031C10.7528 6.04688 10.5503 6.24963 10.5503 6.4997C10.5503 6.74978 10.7528 6.95253 11.0031 6.95253Z" fill="#1D2939"/>
</svg>
