<svg width="24" height="24" viewBox="0 0 24 24" fill="none" xmlns="http://www.w3.org/2000/svg">
<path d="M11.0001 10.75H19.0001C19.9649 10.75 20.7501 9.9648 20.7501 9V4C20.7501 3.0352 19.9649 2.25 19.0001 2.25H15.3106L14.5303 1.4697C14.3897 1.3291 14.1992 1.25 14 1.25H11C10.0352 1.25 9.25 2.0352 9.25 3V5.25H4.75V2C4.75 1.5859 4.4141 1.25 4 1.25C3.5859 1.25 3.25 1.5859 3.25 2V17C3.25 17.9648 4.0352 18.75 5 18.75H9.25V21C9.25 21.9648 10.0352 22.75 11 22.75H19C19.9648 22.75 20.75 21.9648 20.75 21V16C20.75 15.0352 19.9648 14.25 19 14.25H15.3105L14.5302 13.4697C14.3896 13.3291 14.1991 13.25 13.9999 13.25H10.9999C10.0351 13.25 9.2499 14.0352 9.2499 15V17.25H4.9999C4.8622 17.25 4.7499 17.1377 4.7499 17V6.75H9.2499V9C9.2499 9.9648 10.0353 10.75 11.0001 10.75ZM10.7501 15C10.7501 14.8623 10.8624 14.75 11.0001 14.75H13.6896L14.4699 15.5303C14.6105 15.6709 14.801 15.75 15.0002 15.75H19.0002C19.1379 15.75 19.2502 15.8623 19.2502 16V21C19.2502 21.1377 19.1379 21.25 19.0002 21.25H11.0002C10.8625 21.25 10.7502 21.1377 10.7502 21L10.7501 15ZM10.7501 3C10.7501 2.8623 10.8624 2.75 11.0001 2.75H13.6896L14.4699 3.5303C14.6105 3.6709 14.801 3.75 15.0002 3.75H19.0002C19.1379 3.75 19.2502 3.8623 19.2502 4V9C19.2502 9.1377 19.1379 9.25 19.0002 9.25H11.0002C10.8625 9.25 10.7502 9.1377 10.7502 9L10.7501 3Z" fill="#1D2939"/>
</svg>
