<svg width="429" height="392" viewBox="0 0 429 392" fill="none" xmlns="http://www.w3.org/2000/svg">
<circle cx="214.5" cy="216.5" r="175.5" fill="#ECF7EC" fill-opacity="0.5"/>
<circle cx="50" cy="98" r="11" fill="#ECF7EC"/>
<circle cx="275.5" cy="20.5" r="20.5" fill="#ECF7EC"/>
<circle cx="66.5" cy="356.5" r="19.5" fill="#ECF7EC"/>
<circle cx="402.5" cy="310.5" r="19.5" fill="#ECF7EC"/>
<circle cx="364.5" cy="332.5" r="9.5" fill="#ECF7EC"/>
<path d="M224.525 49.537C223.946 49.4137 223.946 48.5863 224.525 48.463L233.291 46.5989C233.502 46.554 233.668 46.3894 233.713 46.1783L235.601 37.4744C235.726 36.8975 236.549 36.8975 236.674 37.4744L238.561 46.1783C238.607 46.3894 238.772 46.554 238.984 46.5989L247.749 48.463C248.329 48.5863 248.329 49.4137 247.749 49.537L238.984 51.4011C238.772 51.446 238.607 51.6106 238.561 51.8217L236.674 60.5256C236.549 61.1025 235.726 61.1025 235.601 60.5256L233.713 51.8217C233.668 51.6106 233.502 51.446 233.291 51.4011L224.525 49.537Z" fill="#E8EAEB"/>
<path d="M24.2229 228.622C24.4467 227.565 25.9558 227.565 26.1796 228.622L29.5224 244.415C29.6038 244.799 29.9034 245.101 30.2878 245.185L45.9173 248.589C46.9669 248.818 46.9668 250.315 45.9173 250.544L30.2878 253.948C29.9034 254.032 29.6038 254.334 29.5224 254.718L26.1796 270.511C25.9558 271.568 24.4467 271.568 24.2229 270.511L20.8801 254.718C20.7986 254.334 20.499 254.032 20.1146 253.948L4.48513 250.544C3.4356 250.315 3.43561 248.818 4.48513 248.589L20.1146 245.185C20.499 245.101 20.7986 244.799 20.8801 244.415L24.2229 228.622Z" fill="#E8EAEB"/>
<path d="M371.345 102.622C371.568 101.565 373.078 101.565 373.301 102.622L375.251 111.835C375.333 112.22 375.633 112.521 376.017 112.605L385.161 114.597C386.21 114.826 386.21 116.323 385.161 116.551L376.017 118.543C375.633 118.627 375.333 118.928 375.251 119.313L373.301 128.526C373.078 129.583 371.568 129.583 371.345 128.526L369.395 119.313C369.313 118.928 369.014 118.627 368.629 118.543L359.485 116.551C358.436 116.323 358.436 114.826 359.485 114.597L368.629 112.605C369.014 112.521 369.313 112.22 369.395 111.835L371.345 102.622Z" fill="#E8EAEB"/>
<path d="M411.659 250.33L414.721 264.797L428.982 267.904L414.721 271.011L411.659 285.478L408.597 271.011L394.336 267.904L408.597 264.797L411.659 250.33Z" fill="white"/>
</svg>
