<svg width="25" height="25" viewBox="0 0 25 25" fill="none" xmlns="http://www.w3.org/2000/svg">
<path d="M16.7433 6.84262L6.84383 16.7421C6.4533 17.1326 6.4533 17.7658 6.84383 18.1563C7.23435 18.5468 7.86751 18.5468 8.25804 18.1563L18.1575 8.25683C18.5481 7.86631 18.5481 7.23314 18.1575 6.84262C17.767 6.45209 17.1338 6.45209 16.7433 6.84262Z" fill="black"/>
<path d="M18.1574 16.7433L8.25789 6.84383C7.86736 6.4533 7.2342 6.4533 6.84367 6.84383C6.45315 7.23435 6.45315 7.86751 6.84367 8.25804L16.7432 18.1575C17.1337 18.5481 17.7669 18.5481 18.1574 18.1575C18.5479 17.767 18.5479 17.1338 18.1574 16.7433Z" fill="black"/>
</svg>
