<svg width="32" height="32" viewBox="0 0 32 32" fill="none" xmlns="http://www.w3.org/2000/svg">
<path d="M31.448 15.5773C30.5905 15.8922 29.6512 16 28.6896 16C28.2391 16 27.7995 15.9573 27.3658 15.8958C27.3249 15.9438 27.2875 15.9947 27.2354 16.034L26.3012 16.7392C25.9982 16.968 25.5827 16.9771 25.2698 16.762L23.9862 15.8791C23.6245 15.6304 23.5289 15.2898 23.7241 14.8965C23.7698 14.8044 23.8085 14.6174 23.6234 14.5027C21.0036 12.8788 19.3103 9.9319 19.3103 6.62066C19.3103 4.72121 19.8807 2.95832 20.8527 1.48245C21.0557 1.17418 20.8925 0.761626 20.5386 0.656867C18.8637 0.161074 17.0756 -0.0705124 15.2199 0.018798C7.11557 0.408591 0.480328 6.97673 0.0259143 15.0778C-0.493327 24.3327 6.85798 32 16 32C24.8365 32 32 24.8365 32 16C32 15.7965 31.8621 15.4253 31.448 15.5773Z" fill="#B97850"/>
<path d="M6.62069 16C6.62069 8.29862 12.0626 1.86986 19.3103 0.344828C18.242 0.120069 17.1352 0 16 0C7.16345 0 0 7.16338 0 16C0 24.8366 7.16345 32 16 32C17.1352 32 18.242 31.8799 19.3103 31.6552C12.0626 30.1301 6.62069 23.7014 6.62069 16Z" fill="#A5694B"/>
<path d="M13.276 15.4655L12.7267 17.1134C12.5531 17.6344 12.7889 18.2038 13.2801 18.4493L15.0231 19.3208C15.448 19.5332 15.961 19.45 16.2969 19.1141L17.3322 18.0788C17.6902 17.7208 17.7586 17.165 17.4981 16.7308L16.6076 15.2467C16.4082 14.9143 16.049 14.7109 15.6614 14.7109H14.3229C13.8479 14.7109 13.4262 15.0149 13.276 15.4655Z" fill="#734B46"/>
<path d="M7.17414 8.28969L7.69621 9.94645C7.86124 10.4702 8.38627 10.7929 8.92807 10.7036L10.8509 10.3867C11.3195 10.3095 11.6861 9.941 11.7611 9.47204L11.9921 8.02624C12.0719 7.52624 11.8012 7.03604 11.3356 6.83728L9.74372 6.1579C9.38724 6.00576 8.97703 6.05183 8.66317 6.27921L7.57924 7.06452C7.19455 7.34321 7.03138 7.83673 7.17414 8.28969Z" fill="#734B46"/>
<path d="M18.9455 6.64988L17.549 7.68284C17.1074 8.00939 16.9732 8.61084 17.2341 9.09408L18.1597 10.809C18.3852 11.2269 18.853 11.4537 19.3208 11.3718L20.7631 11.1195C21.2619 11.0323 21.6372 10.6168 21.6736 10.1117L21.7977 8.38546C21.8255 7.99884 21.6485 7.62601 21.3312 7.40326L20.2358 6.63401C19.8472 6.36105 19.3274 6.36746 18.9455 6.64988Z" fill="#734B46"/>
<path d="M4.35121 17.5226L4.71521 18.8628C4.83031 19.2864 5.23935 19.561 5.675 19.507L7.22114 19.3153C7.59797 19.2686 7.90266 18.986 7.97748 18.6137L8.20824 17.4662C8.28804 17.0693 8.08748 16.6691 7.7219 16.4954L6.47204 15.9017C6.1921 15.7688 5.863 15.7924 5.605 15.9641L4.71404 16.5568C4.39783 16.7673 4.25169 17.1562 4.35121 17.5226Z" fill="#734B46"/>
<path d="M23.7487 20.8254L22.0561 20.4347C21.5211 20.3112 20.9766 20.5999 20.7787 21.1121L20.0762 22.9299C19.905 23.3729 20.0365 23.8758 20.4026 24.1783L21.5314 25.1108C21.9217 25.4333 22.4815 25.4487 22.889 25.1483L24.2821 24.1213C24.5941 23.8913 24.7626 23.5145 24.7258 23.1286L24.599 21.7961C24.554 21.3232 24.2115 20.9323 23.7487 20.8254Z" fill="#734B46"/>
<path d="M13.5738 25.4292L12.6575 24.3886C12.3678 24.0596 11.8803 23.9937 11.5137 24.234L10.2126 25.0865C9.89545 25.2943 9.7469 25.6817 9.84373 26.0482L10.1423 27.1782C10.2455 27.5689 10.6015 27.8393 11.0056 27.8339L12.387 27.8155C12.6963 27.8114 12.9808 27.6452 13.1365 27.3778L13.6739 26.4544C13.8647 26.1267 13.8243 25.7138 13.5738 25.4292Z" fill="#734B46"/>
<path d="M8.894 9.94556L8.37193 8.2888C8.22917 7.83583 8.39234 7.34225 8.77697 7.06356L9.8609 6.27825C9.88386 6.26156 9.91048 6.25307 9.93441 6.23832L9.74365 6.15687C9.38717 6.0048 8.97697 6.05087 8.6631 6.27825L7.57917 7.06356C7.19455 7.34225 7.03138 7.83576 7.17414 8.2888L7.69621 9.94556C7.86124 10.4693 8.38628 10.792 8.92807 10.7027L9.48297 10.6113C9.21028 10.4844 8.99014 10.2508 8.894 9.94556Z" fill="#644141"/>
<path d="M19.3575 10.8103L18.4319 9.09544C18.1711 8.6122 18.3053 8.01068 18.7467 7.68413L20.1433 6.65123C20.162 6.6373 20.1845 6.63227 20.2039 6.61971C19.8188 6.36771 19.3176 6.37606 18.9455 6.65123L17.5489 7.68413C17.1075 8.01068 16.9732 8.6122 17.2341 9.09544L18.1597 10.8103C18.3853 11.2283 18.853 11.455 19.3209 11.3732L19.8511 11.2804C19.646 11.1818 19.471 11.0205 19.3575 10.8103Z" fill="#644141"/>
<path d="M22.7291 25.1107L21.6004 24.1782C21.2342 23.8756 21.1027 23.3728 21.2739 22.9298L21.9764 21.1121C22.0755 20.8557 22.2614 20.6554 22.4894 20.5346L22.0561 20.4347C21.521 20.3112 20.9766 20.5999 20.7787 21.1121L20.0762 22.9298C19.905 23.3728 20.0365 23.8756 20.4026 24.1782L21.5314 25.1107C21.9067 25.4209 22.4357 25.4394 22.8384 25.1738C22.8028 25.1507 22.7625 25.1383 22.7291 25.1107Z" fill="#644141"/>
<path d="M14.4778 18.4492C13.9867 18.2036 13.7508 17.6343 13.9244 17.1134L14.4738 15.4654C14.624 15.0148 15.0456 14.7109 15.5206 14.7109H14.3229C13.8479 14.7109 13.4262 15.0148 13.276 15.4654L12.7267 17.1134C12.5531 17.6343 12.7889 18.2037 13.28 18.4492L15.023 19.3208C15.3723 19.4954 15.776 19.4602 16.0971 19.259L14.4778 18.4492Z" fill="#644141"/>
<path d="M5.91286 18.8616L5.54886 17.5214C5.44935 17.155 5.59542 16.7661 5.91162 16.5557L6.71955 16.0183L6.47197 15.9007C6.19204 15.7678 5.86293 15.7915 5.60493 15.9631L4.71397 16.5557C4.39783 16.7661 4.25169 17.155 4.35121 17.5214L4.71521 18.8616C4.83024 19.2854 5.23935 19.5598 5.675 19.5059L6.39459 19.4167C6.16735 19.3097 5.9828 19.1192 5.91286 18.8616Z" fill="#644141"/>
<path d="M11.34 27.1775L11.0415 26.0476C10.9446 25.681 11.0932 25.2937 11.4103 25.0859L12.5748 24.3228C12.2811 24.0613 11.8499 24.013 11.5137 24.2334L10.2126 25.0859C9.89545 25.2937 9.7469 25.681 9.84373 26.0476L10.1423 27.1775C10.2455 27.5683 10.6015 27.8387 11.0056 27.8333L12.1087 27.8186C11.7459 27.7833 11.4348 27.5366 11.34 27.1775Z" fill="#644141"/>
<path d="M14.8955 12.1385C14.5908 12.1385 14.3438 11.8915 14.3438 11.5868V10.4834C14.3438 10.1787 14.5908 9.93164 14.8955 9.93164C15.2002 9.93164 15.4472 10.1787 15.4472 10.4834V11.5868C15.4472 11.8915 15.2002 12.1385 14.8955 12.1385Z" fill="#C98850"/>
<path d="M10.1596 14.5737C9.94419 14.7891 9.59481 14.7891 9.37936 14.5737L8.59909 13.7934C8.38364 13.578 8.38364 13.2287 8.59909 13.0131C8.81453 12.7977 9.16391 12.7977 9.37936 13.0131L10.1596 13.7934C10.3751 14.0089 10.3751 14.3583 10.1596 14.5737Z" fill="#925F4A"/>
<path d="M10.0777 21.9907C9.79428 21.8788 9.65531 21.5582 9.76724 21.2748L10.1727 20.2486C10.2846 19.9652 10.6052 19.8262 10.8886 19.9381C11.1719 20.0501 11.3109 20.3706 11.199 20.654L10.7935 21.6803C10.6816 21.9637 10.361 22.1026 10.0777 21.9907Z" fill="#C98850"/>
<path d="M16.5879 23.5844C16.2916 23.6554 15.9939 23.4727 15.9228 23.1764L15.6657 22.1033C15.5947 21.8069 15.7774 21.5092 16.0737 21.4382C16.3701 21.3671 16.6678 21.5498 16.7388 21.8462L16.9959 22.9193C17.067 23.2156 16.8843 23.5133 16.5879 23.5844Z" fill="#925F4A"/>
<path d="M18.2501 28.3455C18.1349 28.0633 18.2702 27.7413 18.5523 27.6261L19.5739 27.209C19.8561 27.0939 20.1781 27.2292 20.2932 27.5113C20.4084 27.7935 20.2731 28.1155 19.991 28.2306L18.9694 28.6477C18.6872 28.7628 18.3652 28.6275 18.2501 28.3455Z" fill="#925F4A"/>
<path d="M15.0253 4.42924C15.0968 4.13304 15.3949 3.9509 15.6911 4.02235L16.7637 4.28125C17.0599 4.35276 17.2421 4.65083 17.1706 4.94704C17.0991 5.24325 16.801 5.42538 16.5048 5.35393L15.4322 5.09504C15.136 5.02352 14.9538 4.72545 15.0253 4.42924Z" fill="#925F4A"/>
<path d="M4.9602 24.1801C4.67323 24.0776 4.52358 23.762 4.62599 23.475L4.99682 22.4358C5.09923 22.1488 5.41489 21.9992 5.70186 22.1016C5.98882 22.204 6.13848 22.5196 6.03606 22.8066L5.66523 23.8459C5.56282 24.1328 5.24717 24.2825 4.9602 24.1801Z" fill="#925F4A"/>
<path d="M4.16967 11.1954C4.46574 11.1235 4.76409 11.3052 4.83602 11.6013L5.09643 12.6736C5.16836 12.9697 4.98664 13.268 4.6905 13.34C4.39443 13.4119 4.09609 13.2302 4.02416 12.934L3.76374 11.8618C3.69188 11.5657 3.8736 11.2673 4.16967 11.1954Z" fill="#C98850"/>
<path d="M19.6323 16.229C19.4168 16.0135 19.4168 15.6641 19.6323 15.4487L20.4126 14.6684C20.628 14.453 20.9774 14.453 21.1928 14.6684C21.4083 14.8839 21.4083 15.2332 21.1928 15.4487L20.4126 16.229C20.1971 16.4444 19.8477 16.4444 19.6323 16.229Z" fill="#925F4A"/>
<path d="M26.9663 18.3686C27.1817 18.1532 27.5311 18.1532 27.7465 18.3686L28.5268 19.1489C28.7423 19.3643 28.7423 19.7137 28.5268 19.9292C28.3114 20.1446 27.962 20.1446 27.7465 19.9292L26.9663 19.1489C26.7508 18.9334 26.7508 18.5841 26.9663 18.3686Z" fill="#925F4A"/>
<path d="M27.1127 22.7447C27.3945 22.8606 27.5291 23.1829 27.4132 23.4648L26.9938 24.4854C26.8779 24.7673 26.5556 24.9018 26.2738 24.786C25.9919 24.6701 25.8574 24.3477 25.9732 24.0659L26.3927 23.0453C26.5085 22.7634 26.8309 22.6288 27.1127 22.7447Z" fill="#C98850"/>
<path d="M26.4932 9.26981L26.8677 11.1423C26.9261 11.4343 27.2057 11.6273 27.4994 11.5783L29.7603 11.2015C30.0523 11.1528 30.2538 10.8825 30.2171 10.5888L29.8418 7.58643C29.7909 7.17946 29.3295 6.96829 28.9883 7.19581L26.7281 8.70257C26.5421 8.82657 26.4493 9.05057 26.4932 9.26981Z" fill="#B97850"/>
<path d="M24.8014 6.93972L28.7683 5.17662C29.0351 5.05807 29.1633 4.75213 29.0608 4.47876L27.7749 1.04951C27.6707 0.771652 27.3654 0.625997 27.0838 0.719859L24.5205 1.57427C24.3666 1.62558 24.243 1.74207 24.1827 1.89276L23.2563 4.20889C23.2036 4.34041 23.2036 4.48717 23.2563 4.61869L24.065 6.64041C24.1812 6.93096 24.5154 7.06676 24.8014 6.93972Z" fill="#B97850"/>
<path d="M24.1198 9.37891H24.7043C25.0524 9.37891 25.3136 9.69746 25.2453 10.0388L24.9872 11.3297C24.9102 11.7148 24.4669 11.8984 24.1402 11.6805L23.5211 11.2678C23.3141 11.1298 23.2251 10.8703 23.3038 10.6343L23.5964 9.75615C23.6715 9.53084 23.8824 9.37891 24.1198 9.37891Z" fill="#A5694B"/>
<path d="M25.9316 13.7929V13.8924C25.9316 14.1553 26.1173 14.3818 26.3752 14.4334L28.0303 14.7645C28.3717 14.8327 28.6903 14.5716 28.6903 14.2234V13.7929C28.6903 13.4882 28.4432 13.2412 28.1385 13.2412H26.4834C26.1787 13.2412 25.9316 13.4882 25.9316 13.7929Z" fill="#A5694B"/>
<path d="M25.1259 6.27386L24.3172 4.25213C24.2646 4.12062 24.2646 3.97386 24.3172 3.84234L25.2437 1.5262C25.2967 1.39379 25.4036 1.29586 25.5321 1.2373L24.5205 1.57448C24.3666 1.62579 24.243 1.74234 24.1827 1.89303L23.2563 4.20917C23.2036 4.34062 23.2036 4.48737 23.2563 4.61889L24.065 6.64068C24.1812 6.9311 24.5154 7.06703 24.8013 6.93993L25.5565 6.60434C25.3705 6.57544 25.2013 6.46213 25.1259 6.27386Z" fill="#A5694B"/>
<path d="M27.8205 11.0332L27.3539 8.69986C27.3209 8.53517 27.356 8.37179 27.435 8.23145L26.7281 8.70262C26.5421 8.82669 26.4493 9.05069 26.4932 9.26993L26.8677 11.1424C26.9261 11.4343 27.2057 11.6273 27.4994 11.5784L28.1262 11.4739C27.9742 11.3766 27.8587 11.2237 27.8205 11.0332Z" fill="#A5694B"/>
</svg>
