<svg width="24" height="24" viewBox="0 0 24 24" fill="none" xmlns="http://www.w3.org/2000/svg">
<rect width="24" height="24" rx="12" fill="#F2EBFF"/>
<path d="M17.9732 15.2464C17.89 14.943 17.6356 14.7173 17.3245 14.6706V10.1107H17.7219C17.8316 10.1107 17.9205 10.0217 17.9205 9.912V7.92524C17.9205 7.81542 17.8316 7.72656 17.7219 7.72656H8.98014C8.87042 7.72656 8.78146 7.81542 8.78146 7.92524V9.912C8.78146 10.0217 8.87042 10.1107 8.98014 10.1107H9.37749V14.0842H9.17881C8.68571 14.083 8.2027 14.2244 7.78808 14.4912V13.4882C7.78808 13.3783 7.69912 13.2895 7.58941 13.2895H6.19868C6.08896 13.2895 6 13.3783 6 13.4882V18.0577C6 18.1674 6.08896 18.2564 6.19868 18.2564H7.58941C7.69912 18.2564 7.78808 18.1674 7.78808 18.0577V17.0547C8.2028 17.3214 8.68571 17.4627 9.17881 17.4617H12.4411C12.6671 17.4613 12.8921 17.4316 13.1104 17.3734L17.4119 16.2211C17.8352 16.1058 18.0859 15.6704 17.9732 15.2464ZM9.17881 8.12391H17.5232V9.71332H9.17881V8.12391ZM9.77484 10.1107H16.9272V14.7048L14.6213 15.3231C14.5264 15.0967 14.3326 14.9266 14.0958 14.8617L11.4189 14.1438C11.2681 14.1041 11.1129 14.084 10.957 14.0842H9.77484V10.1107ZM7.39073 17.859H6.39735V13.6868H7.39073V17.859ZM17.3088 15.8372L13.0081 16.9895C12.8231 17.0389 12.6325 17.064 12.4411 17.0643H9.17881C8.70579 17.0654 8.24529 16.9119 7.86753 16.6272L7.78808 16.5676V14.9782L7.86753 14.9186C8.24529 14.6338 8.70579 14.4803 9.17881 14.4815H10.957C11.0784 14.4814 11.1993 14.4972 11.3168 14.5282L13.9929 15.2456C14.151 15.2891 14.2668 15.4247 14.2848 15.5877C14.287 15.5959 14.2896 15.6039 14.2928 15.6118C14.2904 15.6203 14.2887 15.629 14.2875 15.6378C14.2877 15.6701 14.2834 15.7023 14.2744 15.7334C14.2277 15.9065 14.0708 16.0269 13.8914 16.0272C13.8564 16.0275 13.8217 16.023 13.7879 16.0141L12.0992 15.5613C12.0299 15.5407 11.9549 15.5593 11.9033 15.61C11.8518 15.6606 11.8317 15.7352 11.851 15.8048C11.8703 15.8744 11.9259 15.9281 11.9963 15.9449L13.685 16.398C13.7524 16.4157 13.822 16.4246 13.8918 16.4245C14.249 16.4243 14.5621 16.1854 14.6565 15.8408C14.6675 15.801 14.675 15.7602 14.679 15.7191L17.101 15.0696C17.1183 15.0652 17.137 15.0608 17.1547 15.0579C17.3525 15.0324 17.5384 15.1574 17.5895 15.3501C17.5985 15.3836 17.6029 15.4183 17.6026 15.453C17.6029 15.6328 17.4824 15.7904 17.3088 15.8372Z" fill="black"/>
</svg>
