<svg width="24" height="24" viewBox="0 0 24 24" fill="none" xmlns="http://www.w3.org/2000/svg">
<rect width="24" height="24" rx="12" fill="#FFF7F1"/>
<path d="M12 10.8516C13.1243 10.8516 14.0391 9.93684 14.0391 8.8125C14.0391 7.68816 13.1243 6.77344 12 6.77344C10.8757 6.77344 9.96094 7.68816 9.96094 8.8125C9.96094 9.93684 10.8757 10.8516 12 10.8516ZM12 7.47656C12.7366 7.47656 13.3359 8.07586 13.3359 8.8125C13.3359 9.54914 12.7366 10.1484 12 10.1484C11.2634 10.1484 10.6641 9.54914 10.6641 8.8125C10.6641 8.07586 11.2634 7.47656 12 7.47656Z" fill="black"/>
<path d="M16.125 10.8516C16.8358 10.8516 17.4141 10.2733 17.4141 9.5625C17.4141 8.85171 16.8358 8.27344 16.125 8.27344C15.4142 8.27344 14.8359 8.85171 14.8359 9.5625C14.8359 10.2733 15.4142 10.8516 16.125 10.8516ZM16.125 8.97656C16.4481 8.97656 16.7109 9.23941 16.7109 9.5625C16.7109 9.88559 16.4481 10.1484 16.125 10.1484C15.8019 10.1484 15.5391 9.88559 15.5391 9.5625C15.5391 9.23941 15.8019 8.97656 16.125 8.97656Z" fill="black"/>
<path d="M16.4086 11.6484H15.8648C15.2241 11.6484 14.671 12.027 14.4189 12.5707C13.9 12.0043 13.1546 11.6484 12.3276 11.6484H11.6724C10.8454 11.6484 10.1 12.0043 9.58111 12.5707C9.32904 12.027 8.77591 11.6484 8.13516 11.6484H7.59141C6.71391 11.6484 6 12.358 6 13.2302V15.7898C6 16.1685 6.30923 16.4766 6.68934 16.4766H8.8392C8.87524 16.8961 9.22802 17.2266 9.65677 17.2266H14.3433C14.772 17.2266 15.1248 16.8961 15.1608 16.4766H17.2861C17.6798 16.4766 18 16.1576 18 15.7655V13.2302C18 12.358 17.2861 11.6484 16.4086 11.6484ZM6.70312 13.2302C6.70312 12.7457 7.10161 12.3516 7.59141 12.3516H8.13516C8.62495 12.3516 9.02344 12.7457 9.02344 13.2302V13.471C8.78702 14.0865 8.83594 14.4554 8.83594 15.7734H6.70312V13.2302ZM14.4609 16.4058C14.4609 16.4707 14.4082 16.5234 14.3433 16.5234H9.65674C9.59184 16.5234 9.53906 16.4706 9.53906 16.4058V14.4849C9.53906 13.3086 10.4961 12.3516 11.6724 12.3516H12.3276C13.5039 12.3516 14.4609 13.3086 14.4609 14.4849V16.4058ZM17.2969 15.7655C17.2969 15.7776 17.4279 15.7734 15.1641 15.7734C15.1641 14.4457 15.2126 14.0855 14.9766 13.471V13.2302C14.9766 12.7457 15.375 12.3516 15.8648 12.3516H16.4086C16.8984 12.3516 17.2969 12.7457 17.2969 13.2302V15.7655Z" fill="black"/>
<path d="M7.875 10.8516C8.58579 10.8516 9.16406 10.2733 9.16406 9.5625C9.16406 8.85171 8.58579 8.27344 7.875 8.27344C7.16421 8.27344 6.58594 8.85171 6.58594 9.5625C6.58594 10.2733 7.16421 10.8516 7.875 10.8516ZM7.875 8.97656C8.19809 8.97656 8.46094 9.23941 8.46094 9.5625C8.46094 9.88559 8.19809 10.1484 7.875 10.1484C7.55191 10.1484 7.28906 9.88559 7.28906 9.5625C7.28906 9.23941 7.55191 8.97656 7.875 8.97656Z" fill="black"/>
</svg>
