<svg width="24" height="24" viewBox="0 0 24 24" fill="none" xmlns="http://www.w3.org/2000/svg">
<rect width="24" height="24" rx="12" fill="#F1FAFF"/>
<path d="M16.7522 15.8957L16.2163 9.14302C16.1829 8.70797 15.8149 8.36716 15.3786 8.36716H14.3201V8.31959C14.3201 7.04055 13.2796 6 12.0005 6C10.7215 6 9.68094 7.04055 9.68094 8.31959V8.36716H8.62246C8.18612 8.36716 7.81818 8.70795 7.7849 9.1421L7.24883 15.8966C7.20735 16.4375 7.39497 16.9759 7.76355 17.3738C8.13212 17.7717 8.65462 18 9.19703 18H14.804C15.3464 18 15.8689 17.7718 16.2375 17.3738C16.6061 16.9759 16.7937 16.4375 16.7522 15.8957ZM10.3838 8.31959C10.3838 7.42814 11.1091 6.70289 12.0005 6.70289C12.892 6.70289 13.6172 7.42816 13.6172 8.31959V8.36716H10.3838V8.31959ZM15.7218 16.8962C15.4823 17.1547 15.1564 17.2971 14.804 17.2971H9.19705C8.84465 17.2971 8.51872 17.1547 8.27924 16.8962C8.03978 16.6377 7.92273 16.3018 7.94964 15.9513L8.48565 9.19676C8.49109 9.1257 8.55119 9.07005 8.62246 9.07005H9.68094V9.93572C9.68094 10.1298 9.8383 10.2872 10.0324 10.2872C10.2265 10.2872 10.3838 10.1298 10.3838 9.93572V9.07005H13.6172V9.93572C13.6172 10.1298 13.7746 10.2872 13.9687 10.2872C14.1628 10.2872 14.3201 10.1298 14.3201 9.93572V9.07005H15.3786C15.4499 9.07005 15.51 9.12572 15.5155 9.1977L16.0514 15.9504C16.0784 16.3018 15.9613 16.6376 15.7218 16.8962Z" fill="black"/>
<path d="M13.5831 11.9584C13.4459 11.8212 13.2234 11.8212 13.0861 11.9584L11.5169 13.5277L10.9134 12.9243C10.7762 12.787 10.5537 12.787 10.4164 12.9243C10.2792 13.0615 10.2792 13.284 10.4164 13.4213L11.2683 14.2732C11.337 14.3418 11.4269 14.3762 11.5168 14.3762C11.6067 14.3762 11.6967 14.3419 11.7653 14.2732L13.5831 12.4554C13.7204 12.3182 13.7204 12.0957 13.5831 11.9584Z" fill="black"/>
</svg>
