<svg width="24" height="24" viewBox="0 0 24 24" fill="none" xmlns="http://www.w3.org/2000/svg">
<rect width="24" height="24" rx="12" fill="#EFFFED"/>
<path d="M6 17.8047H6.375" stroke="black" stroke-width="0.351562" stroke-miterlimit="10"/>
<path d="M6.72656 17.8047H18" stroke="black" stroke-width="0.351562" stroke-miterlimit="10"/>
<path d="M14.6377 11.6289V17.8038" stroke="black" stroke-width="0.351562" stroke-miterlimit="10"/>
<path d="M16.7459 17.805V9.34766H14.6377V11.2785" stroke="black" stroke-width="0.351562" stroke-miterlimit="10"/>
<path d="M13.0545 17.8065V12.5117H10.9463V17.8065" stroke="black" stroke-width="0.351562" stroke-miterlimit="10"/>
<path d="M9.36313 15.498V13.918H7.25488V17.8057" stroke="black" stroke-width="0.351562" stroke-miterlimit="10"/>
<path d="M9.36328 17.8072V15.8633" stroke="black" stroke-width="0.351562" stroke-miterlimit="10"/>
<path d="M6.375 12.8206C7.61616 12.5743 9.86686 11.9618 12.1907 10.2888C13.9943 8.9903 15.2091 7.50866 15.9984 6.30078" stroke="black" stroke-width="0.351562" stroke-miterlimit="10"/>
<path d="M14.5449 6.48021L16.0831 6.22266L16.3407 7.76084" stroke="black" stroke-width="0.351562" stroke-miterlimit="10"/>
<path d="M7.95801 14.4414V14.793" stroke="black" stroke-width="0.351562" stroke-miterlimit="10"/>
<path d="M11.6484 13.0352V13.3867" stroke="black" stroke-width="0.351562" stroke-miterlimit="10"/>
<path d="M15.3467 9.87109V10.2227" stroke="black" stroke-width="0.351562" stroke-miterlimit="10"/>
</svg>