<svg width="18" height="18" viewBox="0 0 18 18" fill="none" xmlns="http://www.w3.org/2000/svg">
<path d="M1.5 6.5V16.5H16.5V2.75H14V3.375C14 3.54076 13.9342 3.69973 13.8169 3.81694C13.6997 3.93415 13.5408 4 13.375 4C13.2092 4 13.0503 3.93415 12.9331 3.81694C12.8158 3.69973 12.75 3.54076 12.75 3.375V2.75H5.25V3.375C5.25 3.54076 5.18415 3.69973 5.06694 3.81694C4.94973 3.93415 4.79076 4 4.625 4C4.45924 4 4.30027 3.93415 4.18306 3.81694C4.06585 3.69973 4 3.54076 4 3.375V2.75H1.5V5.25H16.5V6.5H1.5ZM5.25 1.5H12.75V0.875C12.75 0.70924 12.8158 0.550268 12.9331 0.433058C13.0503 0.315848 13.2092 0.25 13.375 0.25C13.5408 0.25 13.6997 0.315848 13.8169 0.433058C13.9342 0.550268 14 0.70924 14 0.875V1.5H17.125C17.2908 1.5 17.4497 1.56585 17.5669 1.68306C17.6842 1.80027 17.75 1.95924 17.75 2.125V17.125C17.75 17.2908 17.6842 17.4497 17.5669 17.5669C17.4497 17.6842 17.2908 17.75 17.125 17.75H0.875C0.70924 17.75 0.550268 17.6842 0.433058 17.5669C0.315848 17.4497 0.25 17.2908 0.25 17.125V2.125C0.25 1.95924 0.315848 1.80027 0.433058 1.68306C0.550268 1.56585 0.70924 1.5 0.875 1.5H4V0.875C4 0.70924 4.06585 0.550268 4.18306 0.433058C4.30027 0.315848 4.45924 0.25 4.625 0.25C4.79076 0.25 4.94973 0.315848 5.06694 0.433058C5.18415 0.550268 5.25 0.70924 5.25 0.875V1.5ZM4.625 9H5.875C6.04076 9 6.19973 9.06585 6.31694 9.18306C6.43415 9.30027 6.5 9.45924 6.5 9.625C6.5 9.79076 6.43415 9.94973 6.31694 10.0669C6.19973 10.1842 6.04076 10.25 5.875 10.25H4.625C4.45924 10.25 4.30027 10.1842 4.18306 10.0669C4.06585 9.94973 4 9.79076 4 9.625C4 9.45924 4.06585 9.30027 4.18306 9.18306C4.30027 9.06585 4.45924 9 4.625 9ZM4.625 12.75H5.875C6.04076 12.75 6.19973 12.8158 6.31694 12.9331C6.43415 13.0503 6.5 13.2092 6.5 13.375C6.5 13.5408 6.43415 13.6997 6.31694 13.8169C6.19973 13.9342 6.04076 14 5.875 14H4.625C4.45924 14 4.30027 13.9342 4.18306 13.8169C4.06585 13.6997 4 13.5408 4 13.375C4 13.2092 4.06585 13.0503 4.18306 12.9331C4.30027 12.8158 4.45924 12.75 4.625 12.75ZM8.375 9H9.625C9.79076 9 9.94973 9.06585 10.0669 9.18306C10.1842 9.30027 10.25 9.45924 10.25 9.625C10.25 9.79076 10.1842 9.94973 10.0669 10.0669C9.94973 10.1842 9.79076 10.25 9.625 10.25H8.375C8.20924 10.25 8.05027 10.1842 7.93306 10.0669C7.81585 9.94973 7.75 9.79076 7.75 9.625C7.75 9.45924 7.81585 9.30027 7.93306 9.18306C8.05027 9.06585 8.20924 9 8.375 9ZM8.375 12.75H9.625C9.79076 12.75 9.94973 12.8158 10.0669 12.9331C10.1842 13.0503 10.25 13.2092 10.25 13.375C10.25 13.5408 10.1842 13.6997 10.0669 13.8169C9.94973 13.9342 9.79076 14 9.625 14H8.375C8.20924 14 8.05027 13.9342 7.93306 13.8169C7.81585 13.6997 7.75 13.5408 7.75 13.375C7.75 13.2092 7.81585 13.0503 7.93306 12.9331C8.05027 12.8158 8.20924 12.75 8.375 12.75ZM12.125 9H13.375C13.5408 9 13.6997 9.06585 13.8169 9.18306C13.9342 9.30027 14 9.45924 14 9.625C14 9.79076 13.9342 9.94973 13.8169 10.0669C13.6997 10.1842 13.5408 10.25 13.375 10.25H12.125C11.9592 10.25 11.8003 10.1842 11.6831 10.0669C11.5658 9.94973 11.5 9.79076 11.5 9.625C11.5 9.45924 11.5658 9.30027 11.6831 9.18306C11.8003 9.06585 11.9592 9 12.125 9ZM12.125 12.75H13.375C13.5408 12.75 13.6997 12.8158 13.8169 12.9331C13.9342 13.0503 14 13.2092 14 13.375C14 13.5408 13.9342 13.6997 13.8169 13.8169C13.6997 13.9342 13.5408 14 13.375 14H12.125C11.9592 14 11.8003 13.9342 11.6831 13.8169C11.5658 13.6997 11.5 13.5408 11.5 13.375C11.5 13.2092 11.5658 13.0503 11.6831 12.9331C11.8003 12.8158 11.9592 12.75 12.125 12.75Z" fill="#1D2939"/>
</svg>
