<svg width="21" height="22" viewBox="0 0 21 22" fill="none" xmlns="http://www.w3.org/2000/svg">
<g id="Layer 22">
<path id="Vector" d="M14.2492 8.34501L11.5567 11L14.2492 13.655C14.3242 13.7252 14.3839 13.8099 14.4247 13.9041C14.4656 13.9983 14.4867 14.0999 14.4867 14.2025C14.4867 14.3052 14.4656 14.4067 14.4247 14.5009C14.3839 14.5951 14.3242 14.6798 14.2492 14.75C14.1792 14.8195 14.096 14.8745 14.0047 14.9118C13.9133 14.9492 13.8154 14.9681 13.7167 14.9675C13.52 14.9667 13.3314 14.8886 13.1917 14.75L10.4992 12.0575L7.84424 14.75C7.70455 14.8886 7.516 14.9667 7.31924 14.9675C7.22054 14.9681 7.12269 14.9492 7.03131 14.9118C6.93993 14.8745 6.85682 14.8195 6.78674 14.75C6.64705 14.6095 6.56865 14.4194 6.56865 14.2213C6.56865 14.0231 6.64705 13.833 6.78674 13.6925L9.44174 11L6.78674 8.34501C6.66387 8.20153 6.59967 8.01697 6.60696 7.82821C6.61425 7.63946 6.6925 7.4604 6.82607 7.32683C6.95964 7.19326 7.1387 7.11501 7.32745 7.10772C7.51621 7.10043 7.70077 7.16464 7.84424 7.28751L10.4992 9.9425L13.1542 7.28751C13.2237 7.21561 13.3066 7.15809 13.3983 7.11823C13.4899 7.07838 13.5885 7.05697 13.6885 7.05523C13.7884 7.05349 13.8877 7.07145 13.9807 7.10809C14.0737 7.14472 14.1586 7.19932 14.2305 7.26875C14.3024 7.33819 14.3599 7.42111 14.3998 7.51277C14.4396 7.60444 14.461 7.70306 14.4628 7.803C14.4645 7.90294 14.4465 8.00224 14.4099 8.09524C14.3733 8.18823 14.3187 8.27311 14.2492 8.34501ZM17.9242 18.425C16.4557 19.8933 14.5848 20.8933 12.5481 21.2983C10.5113 21.7034 8.40014 21.4954 6.48158 20.7006C4.56301 19.9059 2.9232 18.5601 1.76949 16.8334C0.615787 15.1067 0 13.0767 0 11C0 8.92335 0.615787 6.89332 1.76949 5.16663C2.9232 3.43994 4.56301 2.09412 6.48158 1.29937C8.40014 0.504621 10.5113 0.296623 12.5481 0.701681C14.5848 1.10674 16.4557 2.10666 17.9242 3.575C18.8994 4.55003 19.6729 5.70759 20.2006 6.98158C20.7284 8.25557 21 9.62104 21 11C21 12.379 20.7284 13.7444 20.2006 15.0184C19.6729 16.2924 18.8994 17.45 17.9242 18.425ZM16.8667 4.6325C15.6068 3.37696 14.0031 2.52289 12.2582 2.17816C10.5132 1.83342 8.70519 2.01348 7.06247 2.69558C5.41976 3.37769 4.016 4.53126 3.02844 6.01062C2.04089 7.48999 1.51384 9.2288 1.51384 11.0075C1.51384 12.7862 2.04089 14.525 3.02844 16.0044C4.016 17.4838 5.41976 18.6373 7.06247 19.3194C8.70519 20.0015 10.5132 20.1816 12.2582 19.8368C14.0031 19.4921 15.6068 18.6381 16.8667 17.3825C17.7058 16.5464 18.3715 15.5528 18.8258 14.4589C19.28 13.3649 19.5138 12.192 19.5138 11.0075C19.5138 9.82298 19.28 8.6501 18.8258 7.55614C18.3715 6.46217 17.7058 5.46864 16.8667 4.6325Z" fill="#D20101"/>
</g>
</svg>
