<svg width="2" height="10" viewBox="0 0 2 10" fill="none" xmlns="http://www.w3.org/2000/svg">
<path id="Text" d="M1.16992 0.447265C1.38411 0.447265 1.56413 0.513346 1.70996 0.645507C1.86035 0.782226 1.93555 0.97819 1.93555 1.2334C1.93555 1.48861 1.86035 1.68229 1.70996 1.81445C1.56413 1.95117 1.38411 2.01953 1.16992 2.01953C0.960286 2.01953 0.782552 1.95117 0.636719 1.81445C0.490885 1.68229 0.417969 1.48861 0.417969 1.2334C0.417969 0.978189 0.490885 0.782226 0.636719 0.645507C0.782552 0.513346 0.960286 0.447265 1.16992 0.447265ZM1.16992 4.13867C1.38411 4.13867 1.56413 4.20475 1.70996 4.33691C1.86035 4.47363 1.93555 4.6696 1.93555 4.9248C1.93555 5.18001 1.86035 5.3737 1.70996 5.50586C1.56413 5.64258 1.38411 5.71094 1.16992 5.71094C0.960286 5.71094 0.782552 5.64258 0.636718 5.50586C0.490885 5.3737 0.417968 5.18001 0.417968 4.9248C0.417969 4.6696 0.490885 4.47363 0.636719 4.33691C0.782552 4.20475 0.960286 4.13867 1.16992 4.13867ZM1.16992 7.83008C1.38411 7.83008 1.56413 7.89616 1.70996 8.02832C1.86035 8.16504 1.93555 8.361 1.93555 8.61621C1.93555 8.87142 1.86035 9.0651 1.70996 9.19727C1.56413 9.33398 1.38411 9.40234 1.16992 9.40234C0.960286 9.40234 0.782552 9.33398 0.636718 9.19727C0.490885 9.0651 0.417968 8.87142 0.417968 8.61621C0.417968 8.361 0.490885 8.16504 0.636718 8.02832C0.782552 7.89616 0.960286 7.83008 1.16992 7.83008Z" fill="#1D2939"/>
</svg>
