<svg width="16" height="16" viewBox="0 0 16 16" fill="none" xmlns="http://www.w3.org/2000/svg">
<path fill-rule="evenodd" clip-rule="evenodd" d="M12.6805 5.67656C12.8085 5.8181 12.7061 6.04303 12.5178 6.04303C12.4579 6.04303 12.3982 6.01877 12.355 5.97084L11.0763 4.55551C11.0402 4.51535 11.02 4.46293 11.02 4.4086V2.86568C11.02 2.74437 11.1178 2.64636 11.2393 2.64636C11.3604 2.64636 11.4587 2.74437 11.4587 2.86568V4.32393L12.6805 5.67656ZM11.4587 7.61282C13.0551 7.50431 14.3351 6.22428 14.4434 4.62786H13.9525C13.8316 4.62786 13.7332 4.52946 13.7332 4.40853C13.7332 4.28741 13.8316 4.18901 13.9525 4.18901H14.4434C14.3351 2.5926 13.0551 1.31253 11.4587 1.20424V1.69512C11.4587 1.81624 11.3604 1.91445 11.2393 1.91445C11.1178 1.91445 11.02 1.81624 11.02 1.69512V1.20424C9.4232 1.31256 8.14294 2.5926 8.03485 4.18901H8.5255C8.64662 4.18901 8.74483 4.28741 8.74483 4.40853C8.74483 4.52946 8.64662 4.62786 8.5255 4.62786H8.03485C8.14294 6.22428 9.4232 7.50434 11.02 7.61282V7.12216C11.02 7.00085 11.1178 6.90284 11.2393 6.90284C11.3604 6.90284 11.4587 7.00085 11.4587 7.12216V7.61282ZM11.4761 11.8959L6.73133 14.6353V9.15647L9.44768 7.58837C10.0517 7.92988 10.7484 8.09813 11.4762 8.05128L11.4761 11.8959ZM1.54822 6.4174L3.01498 7.26425V10.6758C3.01498 10.8439 3.19661 10.9489 3.34202 10.8668L3.83952 10.5859L4.41673 11.5784C4.52848 11.77 4.8257 11.6924 4.8257 11.4681V8.30943L6.29264 9.15647V14.6353L1.54822 11.8959V6.4174ZM7.61891 3.93708L6.512 3.29794L1.76755 6.03717L3.2345 6.88441L7.58899 4.3701C7.59056 4.22357 7.60045 4.07877 7.61891 3.93708ZM7.61658 4.8606L3.45386 7.26405V10.3002L3.81254 10.0976C3.91696 10.0386 4.04954 10.0745 4.11008 10.1784L4.38704 10.6549V7.92959C4.38704 7.85119 4.42877 7.77896 4.4967 7.73977L7.86288 5.7965C7.74118 5.50168 7.65734 5.18783 7.61658 4.8606ZM6.512 8.7766L5.04502 7.92959L8.05504 6.19189C8.30211 6.6317 8.63792 7.01544 9.03773 7.31842L6.512 8.7766ZM14.8897 4.40853C14.8897 2.39538 13.2523 0.757812 11.2393 0.757812C9.54624 0.757812 8.11907 1.91618 7.70781 3.48172L6.62166 2.85461C6.55373 2.81541 6.47027 2.81541 6.40234 2.85461L1.21904 5.84735C1.1513 5.88655 1.10938 5.95916 1.10938 6.03717V12.0224C1.10938 12.1009 1.1513 12.1732 1.21904 12.2124L6.4023 15.205C6.47091 15.2446 6.55318 15.2445 6.62163 15.205L11.8051 12.2124C11.873 12.1732 11.9148 12.1008 11.9148 12.0224V7.99596C13.6061 7.67842 14.8897 6.19071 14.8897 4.40853Z" fill="#3CB043"/>
</svg>
