<svg width="20" height="20" viewBox="0 0 20 20" fill="none" xmlns="http://www.w3.org/2000/svg">
<g id="menu (2) 1">
<path id="Vector" d="M5.62467 2.08398C6.08977 2.08398 6.55032 2.17559 6.98002 2.35358C7.40971 2.53156 7.80014 2.79244 8.12902 3.12132C8.45792 3.45019 8.71876 3.84062 8.89676 4.27032C9.07476 4.70001 9.16634 5.16055 9.16634 5.62565V9.16732H5.62467C4.68537 9.16732 3.78453 8.79415 3.12034 8.12998C2.45615 7.46579 2.08301 6.56496 2.08301 5.62565C2.08301 4.68634 2.45615 3.78551 3.12034 3.12132C3.78453 2.45713 4.68537 2.08398 5.62467 2.08398ZM5.62467 10.834H9.16634V14.3757C9.16634 15.0762 8.95859 15.7609 8.56942 16.3433C8.1803 16.9257 7.62717 17.3797 6.98002 17.6477C6.33286 17.9158 5.62075 17.9859 4.93373 17.8492C4.24672 17.7126 3.61565 17.3753 3.12034 16.88C2.62503 16.3847 2.28772 15.7537 2.15106 15.0666C2.01441 14.3796 2.08454 13.6675 2.3526 13.0203C2.62067 12.3732 3.07461 11.8201 3.65703 11.4309C4.23946 11.0417 4.9242 10.834 5.62467 10.834ZM14.3747 2.08398C15.314 2.08398 16.2148 2.45713 16.879 3.12132C17.5432 3.78551 17.9163 4.68634 17.9163 5.62565C17.9163 6.56496 17.5432 7.46579 16.879 8.12998C16.2148 8.79415 15.314 9.16732 14.3747 9.16732H10.833V5.62565C10.833 4.68634 11.2062 3.78551 11.8703 3.12132C12.5345 2.45713 13.4353 2.08398 14.3747 2.08398ZM10.833 10.834H14.3747C15.0752 10.834 15.7599 11.0417 16.3423 11.4309C16.9248 11.8201 17.3787 12.3732 17.6468 13.0203C17.9148 13.6675 17.9849 14.3796 17.8483 15.0666C17.7117 15.7537 17.3743 16.3847 16.879 16.88C16.3837 17.3753 15.7527 17.7126 15.0656 17.8492C14.3786 17.9859 13.6665 17.9158 13.0193 17.6477C12.3722 17.3797 11.8191 16.9257 11.4299 16.3433C11.0408 15.7609 10.833 15.0762 10.833 14.3757V10.834Z" fill="#B0B0B0"/>
</g>
</svg>
