<svg width="24" height="25" viewBox="0 0 24 25" fill="none" xmlns="http://www.w3.org/2000/svg">
<g id="location 1" clip-path="url(#clip0_1452_5512)">
<g id="g2505">
<g id="g2507">
<g id="Clip path group">
<mask id="mask0_1452_5512" style="mask-type:luminance" maskUnits="userSpaceOnUse" x="0" y="0" width="25" height="25">
<g id="clipPath2513">
<path id="path2511" d="M0.00195312 0.333986H24.002V24.334H0.00195312V0.333986Z" fill="white"/>
</g>
</mask>
<g mask="url(#mask0_1452_5512)">
<g id="g2509">
<g id="g2515">
<path id="path2517" d="M12.002 23.6309C9.18945 19.4121 4.26758 13.6934 4.26758 8.77149C4.26758 4.50675 7.73722 1.03711 12.002 1.03711C16.2667 1.03711 19.7363 4.50675 19.7363 8.77149C19.7363 13.6934 14.8145 19.4121 12.002 23.6309Z" stroke="black" stroke-width="1.40625" stroke-miterlimit="10" stroke-linecap="round" stroke-linejoin="round"/>
</g>
<g id="g2519">
<path id="path2521" d="M12.002 12.2871C10.0635 12.2871 8.48633 10.7099 8.48633 8.77148C8.48633 6.83306 10.0635 5.25586 12.002 5.25586C13.9404 5.25586 15.5176 6.83306 15.5176 8.77148C15.5176 10.7099 13.9404 12.2871 12.002 12.2871Z" stroke="black" stroke-width="1.40625" stroke-miterlimit="10" stroke-linecap="round" stroke-linejoin="round"/>
</g>
</g>
</g>
</g>
</g>
</g>
</g>
<defs>
<clipPath id="clip0_1452_5512">
<rect width="24" height="24" fill="white" transform="translate(0 0.332031)"/>
</clipPath>
</defs>
</svg>
