<svg width="24" height="24" viewBox="0 0 24 24" fill="none" xmlns="http://www.w3.org/2000/svg">
<g clip-path="url(#clip0_2677_3739)">
<path d="M0.75026 11.25H10.25C10.664 11.25 11 10.914 11 10.5C11 10.086 10.664 9.75 10.25 9.75H0.75026C0.336271 9.75 0.000283241 10.086 0.000283241 10.5C0.000283241 10.914 0.336271 11.25 0.75026 11.25Z" fill="#1D2939"/>
<path d="M4.50021 15.0015C4.69228 15.0015 4.88417 14.9284 5.03028 14.7816C5.32324 14.4885 5.32324 14.0135 5.03028 13.7205L1.81029 10.5007L5.03028 7.28074C5.32324 6.98778 5.32324 6.51282 5.03028 6.21986C4.73714 5.92671 4.26218 5.92671 3.96922 6.21986L0.219335 9.96974C-0.0736246 10.2627 -0.0736246 10.7377 0.219335 11.0306L3.96922 14.7805C4.11625 14.9284 4.30813 15.0015 4.50021 15.0015Z" fill="#1D2939"/>
<path d="M16.0002 23.9992C16.2142 23.9992 16.4173 23.9692 16.6202 23.9062L22.6381 21.9013C23.4569 21.6153 24 20.8523 24 19.9994V2C24 0.897006 23.103 0 22 0C21.7861 0 21.5831 0.0300284 21.38 0.0930147L15.3623 2.09796C14.5433 2.38396 14.0004 3.14694 14.0004 3.99981V21.9993C14.0004 23.1022 14.8972 23.9992 16.0002 23.9992ZM22 1.49995C22.275 1.49995 22.5 1.72498 22.5 2V19.9994C22.5 20.2124 22.357 20.4103 22.1531 20.4814L16.1633 22.4773C16.1203 22.4912 16.0643 22.4993 16.0002 22.4993C15.7252 22.4993 15.5003 22.2743 15.5003 21.9993V3.99981C15.5003 3.78687 15.6433 3.58894 15.8473 3.5179L21.837 1.52192C21.8801 1.50801 21.9361 1.49995 22 1.49995Z" fill="#1D2939"/>
<path d="M8.75056 7.99981C9.16455 7.99981 9.50054 7.66382 9.50054 7.24983V2.74997C9.50054 2.06097 10.0614 1.49995 10.7504 1.49995H22C22.414 1.49995 22.75 1.16397 22.75 0.749977C22.75 0.335988 22.414 0 22 0H10.7504C9.23339 0 8.00058 1.23299 8.00058 2.74997V7.24983C8.00058 7.66382 8.33657 7.99981 8.75056 7.99981Z" fill="#1D2939"/>
<path d="M10.75 20.9998H14.75C15.164 20.9998 15.5 20.6638 15.5 20.2498C15.5 19.8358 15.164 19.4999 14.75 19.4999H10.75C10.061 19.4999 9.50019 18.9388 9.50019 18.2498V13.75C9.50019 13.336 9.1642 13 8.75021 13C8.33622 13 8.00023 13.336 8.00023 13.75V18.2498C8.00023 19.7668 9.23305 20.9998 10.75 20.9998Z" fill="#1D2939"/>
</g>
<defs>
<clipPath id="clip0_2677_3739">
<rect width="24" height="24" fill="white" transform="matrix(-1 0 0 1 24 0)"/>
</clipPath>
</defs>
</svg>
