<svg width="24" height="24" viewBox="0 0 24 24" fill="none" xmlns="http://www.w3.org/2000/svg">
<path d="M16.8 2H14.2C11 2 9 4 9 7.2V11.25H15.25C15.66 11.25 16 11.59 16 12C16 12.41 15.66 12.75 15.25 12.75H9V16.8C9 20 11 22 14.2 22H16.79C19.99 22 21.99 20 21.99 16.8V7.2C22 4 20 2 16.8 2Z" fill="#1D2939"/>
<path d="M4.56141 11.25L6.63141 9.18005C6.78141 9.03005 6.85141 8.84004 6.85141 8.65004C6.85141 8.46004 6.78141 8.26005 6.63141 8.12005C6.49027 7.98056 6.29984 7.90234 6.10141 7.90234C5.90298 7.90234 5.71254 7.98056 5.57141 8.12005L2.22141 11.47C1.93141 11.76 1.93141 12.24 2.22141 12.53L5.57141 15.88C5.86141 16.17 6.34141 16.17 6.63141 15.88C6.92141 15.59 6.92141 15.11 6.63141 14.82L4.56141 12.75H9.00141V11.25H4.56141Z" fill="#1D2939"/>
</svg>
