<svg width="58" height="25" viewBox="0 0 16 8" fill="none" xmlns="http://www.w3.org/2000/svg">
<path d="M5.82253 6.58472V6.22278C5.82253 6.08401 5.73992 5.99354 5.59833 5.99354C5.52754 5.99354 5.45085 6.01767 5.39775 6.0961C5.35647 6.02973 5.29749 5.99354 5.20899 5.99354C5.14998 5.99354 5.09102 6.01162 5.04381 6.07799V6.00561H4.91992V6.58472H5.04381V6.26499C5.04381 6.16246 5.09691 6.11418 5.17951 6.11418C5.26207 6.11418 5.3034 6.16848 5.3034 6.26499V6.58472H5.42728V6.26499C5.42728 6.16246 5.48624 6.11418 5.56294 6.11418C5.64554 6.11418 5.68682 6.16848 5.68682 6.26499V6.58472H5.82253ZM7.65717 6.00561H7.45661V5.83067H7.33273V6.00561H7.22064V6.1202H7.3327V6.38566C7.3327 6.51839 7.3858 6.59679 7.5274 6.59679C7.5805 6.59679 7.63946 6.57871 7.68079 6.55458L7.64537 6.44598C7.60998 6.4701 7.5687 6.47615 7.53919 6.47615C7.48021 6.47615 7.45661 6.43996 7.45661 6.37961V6.1202H7.65717V6.00561ZM8.70725 5.99352C8.63647 5.99352 8.58928 6.02973 8.55977 6.07799V6.00561H8.43589V6.58472H8.55977V6.25897C8.55977 6.16246 8.60105 6.10816 8.67774 6.10816C8.70134 6.10816 8.73084 6.11421 8.75444 6.12023L8.78983 5.99959C8.76624 5.99354 8.73084 5.99354 8.70725 5.99354V5.99352ZM7.12035 6.05386C7.06134 6.01162 6.97876 5.99354 6.89027 5.99354C6.7487 5.99354 6.65432 6.06593 6.65432 6.18055C6.65432 6.27708 6.72511 6.33136 6.84899 6.34947L6.90798 6.35551C6.97287 6.36755 7.00827 6.38566 7.00827 6.41583C7.00827 6.45804 6.96108 6.48821 6.87847 6.48821C6.79589 6.48821 6.73099 6.45804 6.68969 6.42789L6.6307 6.5244C6.6956 6.57266 6.78409 6.59679 6.87256 6.59679C7.03775 6.59679 7.13215 6.51839 7.13215 6.40979C7.13215 6.30723 7.05546 6.25293 6.93746 6.23485L6.87847 6.2288C6.82537 6.22276 6.78409 6.21072 6.78409 6.17453C6.78409 6.13229 6.82537 6.10816 6.89027 6.10816C6.96108 6.10816 7.03186 6.13831 7.06725 6.15642L7.12035 6.05386ZM10.4121 5.99354C10.3413 5.99354 10.2941 6.02973 10.2646 6.07799V6.00561H10.1408V6.58472H10.2646V6.25897C10.2646 6.16246 10.3059 6.10816 10.3826 6.10816C10.4062 6.10816 10.4357 6.11421 10.4593 6.12023L10.4947 5.99959C10.4711 5.99354 10.4357 5.99354 10.4121 5.99354ZM8.83113 6.29517C8.83113 6.4701 8.94911 6.59679 9.132 6.59679C9.21458 6.59679 9.27357 6.57871 9.33256 6.53045L9.27357 6.42789C9.22638 6.46409 9.17919 6.48217 9.12609 6.48217C9.0258 6.48217 8.95502 6.40979 8.95502 6.29517C8.95502 6.18659 9.0258 6.11418 9.12609 6.10816C9.17919 6.10816 9.22638 6.12624 9.27357 6.16246L9.33256 6.05991C9.27357 6.01162 9.21458 5.99354 9.132 5.99354C8.94911 5.99354 8.83113 6.12023 8.83113 6.29517ZM9.9756 6.29517V6.00561H9.85171V6.07799C9.81041 6.02372 9.75142 5.99354 9.67473 5.99354C9.51545 5.99354 9.39157 6.12023 9.39157 6.29517C9.39157 6.4701 9.51545 6.59679 9.67473 6.59679C9.75731 6.59679 9.81632 6.56664 9.85171 6.51234V6.58472H9.9756V6.29517ZM9.52134 6.29517C9.52134 6.19261 9.58624 6.10816 9.69241 6.10816C9.7927 6.10816 9.86351 6.18659 9.86351 6.29517C9.86351 6.39772 9.7927 6.48217 9.69241 6.48217C9.58624 6.47612 9.52134 6.39772 9.52134 6.29517ZM8.04064 5.99354C7.87545 5.99354 7.75746 6.11418 7.75746 6.29517C7.75746 6.47615 7.87543 6.59679 8.04653 6.59679C8.12911 6.59679 8.21171 6.57266 8.27661 6.51839L8.2176 6.42789C8.17041 6.46409 8.11143 6.48821 8.05244 6.48821C7.97574 6.48821 7.89905 6.45202 7.88134 6.34944H8.30021V6.30121C8.30612 6.11418 8.19994 5.99354 8.04064 5.99354ZM8.04064 6.10212C8.11731 6.10212 8.17044 6.1504 8.18221 6.24089H7.88725C7.89905 6.16246 7.95215 6.10212 8.04064 6.10212ZM11.1141 6.29517V5.77637H10.9903V6.07799C10.949 6.02372 10.89 5.99354 10.8133 5.99354C10.654 5.99354 10.5301 6.12023 10.5301 6.29517C10.5301 6.4701 10.654 6.59679 10.8133 6.59679C10.8959 6.59679 10.9549 6.56664 10.9903 6.51234V6.58472H11.1141V6.29517ZM10.6599 6.29517C10.6599 6.19261 10.7248 6.10816 10.831 6.10816C10.9313 6.10816 11.0021 6.18659 11.0021 6.29517C11.0021 6.39772 10.9313 6.48217 10.831 6.48217C10.7248 6.47612 10.6599 6.39772 10.6599 6.29517ZM6.51862 6.29517V6.00561H6.39473V6.07799C6.35343 6.02372 6.29444 5.99354 6.21775 5.99354C6.05847 5.99354 5.93459 6.12023 5.93459 6.29517C5.93459 6.4701 6.05847 6.59679 6.21775 6.59679C6.30035 6.59679 6.35934 6.56664 6.39473 6.51234V6.58472H6.51862V6.29517ZM6.05847 6.29517C6.05847 6.19261 6.12337 6.10816 6.22954 6.10816C6.32983 6.10816 6.40064 6.18659 6.40064 6.29517C6.40064 6.39772 6.32983 6.48217 6.22954 6.48217C6.12337 6.47612 6.05847 6.39772 6.05847 6.29517Z" fill="black"/>
<path d="M7.07812 1.60742H8.93638V5.02186H7.07812V1.60742Z" fill="#FF5F00"/>
<path d="M7.19647 3.31431C7.19647 2.62057 7.51502 2.00524 8.00465 1.60708C7.64482 1.31752 7.19059 1.14258 6.69505 1.14258C5.52106 1.14258 4.57129 2.11381 4.57129 3.31431C4.57129 4.51478 5.52106 5.48604 6.69502 5.48604C7.19056 5.48604 7.64479 5.3111 8.00465 5.02151C7.51502 4.6294 7.19647 4.00805 7.19647 3.31431Z" fill="#EB001B"/>
<path d="M11.4441 3.31431C11.4441 4.51478 10.4943 5.48604 9.32036 5.48604C8.82483 5.48604 8.3706 5.3111 8.01074 5.02151C8.50628 4.62338 8.81894 4.00805 8.81894 3.31431C8.81894 2.62057 8.50037 2.00524 8.01074 1.60708C8.37057 1.31752 8.82483 1.14258 9.32036 1.14258C10.4943 1.14258 11.4441 2.11986 11.4441 3.31431Z" fill="#F79E1B"/>
</svg>
