<svg width="14" height="14" viewBox="0 0 14 14" fill="currentColor" xmlns="http://www.w3.org/2000/svg">
<g clip-path="url(#clip0_1498_7147)">
<path d="M13.1247 9.33333H6.70801C6.22559 9.33333 5.83301 8.94075 5.83301 8.45833V4.375C5.83301 3.89258 6.22559 3.5 6.70801 3.5H13.1247C13.6071 3.5 13.9997 3.89258 13.9997 4.375V8.45833C13.9997 8.94075 13.6071 9.33333 13.1247 9.33333ZM6.70801 4.08333C6.54701 4.08333 6.41634 4.214 6.41634 4.375V8.45833C6.41634 8.61933 6.54701 8.75 6.70801 8.75H13.1247C13.2857 8.75 13.4163 8.61933 13.4163 8.45833V4.375C13.4163 4.214 13.2857 4.08333 13.1247 4.08333H6.70801Z" fill="currentColor"/>
<path d="M13.708 5.83333H6.12467C5.96367 5.83333 5.83301 5.70267 5.83301 5.54167C5.83301 5.38067 5.96367 5.25 6.12467 5.25H13.708C13.869 5.25 13.9997 5.38067 13.9997 5.54167C13.9997 5.70267 13.869 5.83333 13.708 5.83333Z" fill="currentColor"/>
<path d="M7.875 14H1.45833C0.6545 14 0 13.3455 0 12.5417V1.45833C0 0.6545 0.6545 0 1.45833 0H7.875C8.67883 0 9.33333 0.6545 9.33333 1.45833V2.625C9.33333 2.786 9.20267 2.91667 9.04167 2.91667C8.88067 2.91667 8.75 2.786 8.75 2.625V1.45833C8.75 0.975917 8.35742 0.583333 7.875 0.583333H1.45833C0.975917 0.583333 0.583333 0.975917 0.583333 1.45833V12.5417C0.583333 13.0241 0.975917 13.4167 1.45833 13.4167H7.875C8.35742 13.4167 8.75 13.0241 8.75 12.5417V10.2083C8.75 10.0473 8.88067 9.91667 9.04167 9.91667C9.20267 9.91667 9.33333 10.0473 9.33333 10.2083V12.5417C9.33333 13.3455 8.67883 14 7.875 14Z" fill="currentColor"/>
<path d="M5.83301 1.75H3.49967C3.01726 1.75 2.62467 1.35742 2.62467 0.875C2.62467 0.714 2.49401 0.583333 2.33301 0.583333H1.74967C1.58867 0.583333 1.45801 0.452667 1.45801 0.291667C1.45801 0.130667 1.58867 0 1.74967 0H2.33301C2.81542 0 3.20801 0.392583 3.20801 0.875C3.20801 1.036 3.33867 1.16667 3.49967 1.16667H5.83301C5.99401 1.16667 6.12467 1.036 6.12467 0.875C6.12467 0.392583 6.51726 0 6.99967 0H7.58301C7.74401 0 7.87467 0.130667 7.87467 0.291667C7.87467 0.452667 7.74401 0.583333 7.58301 0.583333H6.99967C6.83868 0.583333 6.70801 0.714 6.70801 0.875C6.70801 1.35742 6.31542 1.75 5.83301 1.75Z" fill="currentColor"/>
</g>
<defs>
<clipPath id="clip0_1498_7147">
<rect width="14" height="14" fill="white"/>
</clipPath>
</defs>
</svg>
