<svg width="24" height="25" viewBox="0 0 24 25" fill="none" xmlns="http://www.w3.org/2000/svg">
<rect x="0.317643" y="0.817643" width="23.3647" height="23.3647" rx="11.6824" stroke="white" stroke-width="0.635286"/>
<path d="M11.999 23.248C17.9361 23.248 22.749 18.4351 22.749 12.498C22.749 6.56099 17.9361 1.74805 11.999 1.74805C6.06196 1.74805 1.24902 6.56099 1.24902 12.498C1.24902 18.4351 6.06196 23.248 11.999 23.248Z" fill="#3CB043"/>
<path d="M11.0024 15.9981C10.7372 15.9975 10.483 15.892 10.2954 15.7046L7.29502 12.7047C7.20097 12.6121 7.12618 12.5018 7.07496 12.3802C7.02374 12.2586 6.99711 12.128 6.99659 11.996C6.99607 11.864 7.02169 11.7333 7.07195 11.6112C7.12222 11.4892 7.19615 11.3783 7.28947 11.285C7.38279 11.1917 7.49366 11.1178 7.61569 11.0675C7.73772 11.0172 7.8685 10.9916 8.00047 10.9921C8.13245 10.9926 8.26302 11.0193 8.38466 11.0705C8.50629 11.1217 8.61658 11.1965 8.70918 11.2905L10.9682 13.5491L15.2636 8.82493C15.352 8.72784 15.4586 8.6491 15.5773 8.5932C15.6961 8.5373 15.8247 8.50535 15.9558 8.49916C16.087 8.49297 16.218 8.51266 16.3415 8.55712C16.465 8.60158 16.5786 8.66993 16.6756 8.75827C16.7727 8.8466 16.8515 8.9532 16.9074 9.07197C16.9633 9.19074 16.9952 9.31935 17.0014 9.45047C17.0076 9.58159 16.9879 9.71265 16.9435 9.83615C16.899 9.95966 16.8306 10.0732 16.7423 10.1703L11.7417 15.6704C11.6508 15.7706 11.5404 15.8513 11.4174 15.9076C11.2943 15.9639 11.1611 15.9947 11.0258 15.9981L11.0024 15.9981Z" fill="white"/>
</svg>
