<svg width="26" height="26" viewBox="0 0 26 26" fill="none" xmlns="http://www.w3.org/2000/svg">
<g clip-path="url(#clip0_1582_2000)">
<path d="M21.7554 7.09466C21.7985 6.745 21.821 6.38899 21.821 6.02772C21.821 2.99106 19.3592 0.529297 16.3225 0.529297H7.1335C6.55549 0.529297 6.06199 0.946705 5.9661 1.51668L2.58018 21.6414C2.45868 22.3635 3.01536 23.0216 3.74759 23.0216H7.10824C7.68626 23.0216 8.18904 22.6045 8.28488 22.0344C8.28488 22.0344 8.29048 22.001 8.30061 21.9409H8.30066L7.83233 24.7246C7.72532 25.361 8.21594 25.9411 8.86131 25.9411H11.8014C12.3109 25.9411 12.7458 25.5731 12.8303 25.0708L13.6656 20.1065C13.8096 19.2508 14.5504 18.6242 15.4181 18.6242H16.1905C20.3859 18.6242 23.7869 15.2231 23.7869 11.0277C23.7869 9.40431 22.9845 7.96929 21.7554 7.09466Z" fill="#002987"/>
<path d="M21.7561 7.09277C21.2303 11.37 17.5848 14.6821 13.1655 14.6821H10.6012C10.0225 14.6821 9.52261 15.0676 9.36582 15.6126L7.83308 24.7226C7.72602 25.3591 8.21663 25.9392 8.862 25.9392H11.8021C12.3116 25.9392 12.7465 25.5712 12.831 25.0689L13.6663 20.1046C13.8103 19.2489 14.5511 18.6223 15.4188 18.6223H16.1912C20.3866 18.6223 23.7876 15.2212 23.7876 11.0258C23.7876 9.40242 22.9852 7.96739 21.7561 7.09277Z" fill="#0085CC"/>
<path d="M10.6017 14.6846H13.1659C17.5853 14.6846 21.2308 11.3726 21.7566 7.09542C20.968 6.53427 20.0044 6.20312 18.9628 6.20312H12.2699C11.5078 6.20312 10.8572 6.7534 10.7308 7.50483L9.36621 15.6152C9.523 15.0701 10.0229 14.6846 10.6017 14.6846Z" fill="#00186A"/>
</g>
<defs>
<clipPath id="clip0_1582_2000">
<rect width="25.4118" height="25.4118" fill="white" transform="translate(0.469727 0.529297)"/>
</clipPath>
</defs>
</svg>
