<svg width="24" height="24" viewBox="0 0 24 24" fill="none" xmlns="http://www.w3.org/2000/svg">
<g clip-path="url(#clip0_1924_3787)">
<path d="M23.9076 9.78162L21.6621 6.23926C21.5999 6.14116 21.5077 6.05952 21.4021 6.0108L12.2687 1.69952C12.0992 1.61952 11.9025 1.62111 11.7343 1.70377L2.58592 6.20182C2.48992 6.249 2.40541 6.32311 2.34592 6.41198L0.100432 9.76895C-0.0933632 10.0587 0.00294453 10.4716 0.30638 10.6452L2.24202 11.7526V16.9202C2.24202 17.1485 2.36838 17.358 2.57028 17.4645L11.7126 22.2884C11.8933 22.3836 12.1169 22.3818 12.2961 22.2836L21.4384 17.2673C21.7364 17.1038 21.8454 16.7297 21.6819 16.4317C21.5183 16.1338 21.1441 16.0248 20.8461 16.1883L12.6155 20.7043V13.3369L14.2835 15.4282C14.4682 15.6598 14.814 15.7254 15.0705 15.5787L23.6935 10.6452C23.991 10.4749 24.0916 10.072 23.9076 9.78162ZM12.0114 2.93916L19.7869 6.60947L11.9944 10.8792L4.21305 6.77341L12.0114 2.93916ZM3.06089 7.55721L11.0552 11.7754L9.08284 14.2484L1.49069 9.9047L3.06089 7.55721ZM3.47315 16.5492V12.457L8.92941 15.5787C9.18571 15.7254 9.53197 15.6595 9.71643 15.4282L11.3844 13.3369V20.7235L3.47315 16.5492ZM14.9169 14.2484L12.9373 11.7661L20.9315 7.38588L22.523 9.89665L14.9169 14.2484Z" fill="#1D2939"/>
<path d="M21.142 15.0691C21.5386 15.0691 21.8601 14.7476 21.8601 14.351C21.8601 13.9543 21.5386 13.6328 21.142 13.6328C20.7454 13.6328 20.4238 13.9543 20.4238 14.351C20.4238 14.7476 20.7454 15.0691 21.142 15.0691Z" fill="#1D2939"/>
</g>
<defs>
<clipPath id="clip0_1924_3787">
<rect width="24" height="24" fill="white"/>
</clipPath>
</defs>
</svg>
