<svg width="16" height="16" viewBox="0 0 16 16" fill="none" xmlns="http://www.w3.org/2000/svg">
<g id="Media / Icon">
<path id="Icon" fill-rule="evenodd" clip-rule="evenodd" d="M8 13C10.7614 13 13 10.7614 13 8C13 5.23858 10.7614 3 8 3C5.23858 3 3 5.23858 3 8C3 10.7614 5.23858 13 8 13ZM7.19194 6.30806C6.94786 6.06398 6.55214 6.06398 6.30806 6.30806C6.06398 6.55214 6.06398 6.94786 6.30806 7.19194L7.11612 8L6.30806 8.80806C6.06398 9.05214 6.06398 9.44786 6.30806 9.69194C6.55214 9.93602 6.94786 9.93602 7.19194 9.69194L8 8.88388L8.80806 9.69194C9.05214 9.93602 9.44786 9.93602 9.69194 9.69194C9.93602 9.44786 9.93602 9.05214 9.69194 8.80806L8.88388 8L9.69194 7.19194C9.93602 6.94786 9.93602 6.55214 9.69194 6.30806C9.44786 6.06398 9.05214 6.06398 8.80806 6.30806L8 7.11612L7.19194 6.30806Z" fill="#4B5563"/>
</g>
</svg>
