<svg width="16" height="17" viewBox="0 0 16 17" fill="none" xmlns="http://www.w3.org/2000/svg">
<path d="M9 14.5C10.1867 14.5 11.3467 14.1481 12.3334 13.4888C13.3201 12.8295 14.0892 11.8925 14.5433 10.7961C14.9974 9.69975 15.1162 8.49335 14.8847 7.32946C14.6532 6.16558 14.0818 5.09648 13.2426 4.25736C12.4035 3.41825 11.3344 2.8468 10.1705 2.61529C9.00666 2.38378 7.80026 2.5026 6.7039 2.95673C5.60754 3.41085 4.67047 4.17989 4.01118 5.16658C3.35189 6.15328 3 7.31331 3 8.5V11.6L1.2 9.8L0.5 10.5L3.5 13.5L6.5 10.5L5.8 9.8L4 11.6V8.5C4 7.5111 4.29325 6.5444 4.84265 5.72215C5.39206 4.89991 6.17295 4.25904 7.08658 3.88061C8.00021 3.50217 9.00555 3.40315 9.97545 3.59608C10.9454 3.789 11.8363 4.26521 12.5355 4.96447C13.2348 5.66373 13.711 6.55465 13.9039 7.52455C14.0969 8.49446 13.9978 9.49979 13.6194 10.4134C13.241 11.3271 12.6001 12.1079 11.7779 12.6574C10.9556 13.2068 9.98891 13.5 9 13.5V14.5Z" fill="#3CB043"/>
</svg>
