<svg width="24" height="24" viewBox="0 0 24 24" fill="none" xmlns="http://www.w3.org/2000/svg">
<mask id="mask0_1924_4116" style="mask-type:luminance" maskUnits="userSpaceOnUse" x="-1" y="0" width="25" height="25">
<path d="M-0.00292969 0.00781441H23.9971V24.0078H-0.00292969V0.00781441Z" fill="white"/>
</mask>
<g mask="url(#mask0_1924_4116)">
<path d="M11.9994 8.3203C9.96287 8.3203 8.31189 9.97124 8.31189 12.0078C8.31189 14.0443 9.96287 15.6953 11.9994 15.6953C14.0359 15.6953 15.6869 14.0443 15.6869 12.0078C15.6869 9.97124 14.0359 8.3203 11.9994 8.3203ZM22.3495 9.37639L21.3511 10.1983C20.2122 11.1358 20.2122 12.8797 21.3511 13.8173L22.3495 14.6392C22.7033 14.9305 22.7947 15.4348 22.5655 15.8317L20.5941 19.2463C20.3649 19.6432 19.8825 19.8163 19.4533 19.6555L18.2423 19.2019C16.8609 18.6844 15.3507 19.5563 15.1082 21.0113L14.8956 22.2869C14.8202 22.739 14.4291 23.0703 13.9709 23.0703H10.0279C9.56968 23.0703 9.17856 22.739 9.10323 22.2869L8.89061 21.0113C8.64812 19.5563 7.13786 18.6844 5.7565 19.2019L4.54553 19.6555C4.11634 19.8163 3.63386 19.6432 3.40468 19.2463L1.43326 15.8317C1.20414 15.4348 1.2955 14.9305 1.64931 14.6392L2.64775 13.8173C3.78657 12.8797 3.78657 11.1358 2.64775 10.1983L1.64931 9.37639C1.2955 9.08511 1.20414 8.58074 1.43326 8.18384L3.40468 4.76924C3.63386 4.37235 4.11634 4.19928 4.54553 4.36007L5.7565 4.81372C7.13786 5.33122 8.64812 4.4593 8.89061 3.00425L9.10323 1.72864C9.17856 1.27663 9.56968 0.945314 10.0279 0.945314H13.9709C14.4291 0.945314 14.8202 1.27663 14.8956 1.72864L15.1082 3.00425C15.3507 4.4593 16.8609 5.33122 18.2423 4.81372L19.4533 4.36007C19.8825 4.19928 20.3649 4.37235 20.5941 4.76924L22.5655 8.18384C22.7947 8.58074 22.7033 9.08511 22.3495 9.37639Z" stroke="#1D2939" stroke-width="1.875" stroke-miterlimit="10" stroke-linecap="round" stroke-linejoin="round"/>
</g>
</svg>
