<svg width="20" height="20" viewBox="0 0 20 20" fill="none" xmlns="http://www.w3.org/2000/svg">
<g clip-path="url(#clip0_5846_6378)">
<path fill-rule="evenodd" clip-rule="evenodd" d="M5.96072 1.07806C6.117 0.921782 6.32897 0.833984 6.54998 0.833984H13.45C13.671 0.833984 13.883 0.921782 14.0392 1.07806L18.9226 5.9614C19.0788 6.11768 19.1666 6.32964 19.1666 6.55065V13.4506C19.1666 13.6717 19.0788 13.8836 18.9226 14.0399L14.0392 18.9232C13.883 19.0795 13.671 19.1673 13.45 19.1673H6.54998C6.32897 19.1673 6.117 19.0795 5.96072 18.9232L1.07739 14.0399C0.92111 13.8836 0.833313 13.6717 0.833313 13.4506V6.55065C0.833313 6.32964 0.92111 6.11768 1.07739 5.9614L5.96072 1.07806ZM6.89516 2.50065L2.49998 6.89583V13.1055L6.89516 17.5006H13.1048L17.5 13.1055V6.89583L13.1048 2.50065H6.89516Z" fill="white"/>
<path fill-rule="evenodd" clip-rule="evenodd" d="M13.0893 6.91009C13.4147 7.23553 13.4147 7.76317 13.0893 8.0886L8.08928 13.0886C7.76384 13.414 7.2362 13.414 6.91076 13.0886C6.58533 12.7632 6.58533 12.2355 6.91076 11.9101L11.9108 6.91009C12.2362 6.58466 12.7638 6.58466 13.0893 6.91009Z" fill="white"/>
<path fill-rule="evenodd" clip-rule="evenodd" d="M6.91076 6.91009C7.2362 6.58466 7.76384 6.58466 8.08928 6.91009L13.0893 11.9101C13.4147 12.2355 13.4147 12.7632 13.0893 13.0886C12.7638 13.414 12.2362 13.414 11.9108 13.0886L6.91076 8.0886C6.58533 7.76317 6.58533 7.23553 6.91076 6.91009Z" fill="white"/>
</g>
<defs>
<clipPath id="clip0_5846_6378">
<rect width="20" height="20" fill="white"/>
</clipPath>
</defs>
</svg>
