<svg width="20" height="20" viewBox="0 0 20 20" fill="none" xmlns="http://www.w3.org/2000/svg">
<g clip-path="url(#clip0_5846_6618)">
<path fill-rule="evenodd" clip-rule="evenodd" d="M13.0525 3.14409C11.5752 2.48584 9.92474 2.32277 8.34718 2.6792C6.76963 3.03562 5.34956 3.89245 4.29875 5.12189C3.24795 6.35133 2.62271 7.88751 2.5163 9.50132C2.40989 11.1151 2.82799 12.7201 3.70826 14.0769C4.58853 15.4337 5.8838 16.4695 7.40089 17.03C8.91799 17.5905 10.5756 17.6456 12.1266 17.187C13.6775 16.7284 15.0387 15.7808 16.007 14.4855C16.9754 13.1901 17.4991 11.6164 17.5 9.99909V9.2329C17.5 8.77266 17.8731 8.39956 18.3334 8.39956C18.7936 8.39956 19.1667 8.77266 19.1667 9.2329V9.99956C19.1656 11.9763 18.5255 13.9002 17.3419 15.4834C16.1584 17.0666 14.4947 18.2248 12.5991 18.7853C10.7035 19.3457 8.67753 19.2784 6.82331 18.5934C4.96908 17.9084 3.38597 16.6423 2.31009 14.984C1.2342 13.3257 0.723183 11.3641 0.853244 9.39166C0.983306 7.41922 1.74748 5.54167 3.0318 4.03902C4.31611 2.53637 6.05176 1.48914 7.97988 1.05351C9.908 0.617872 11.9253 0.817181 13.7309 1.62171C14.1513 1.80902 14.3402 2.30167 14.1529 2.72206C13.9656 3.14246 13.4729 3.3314 13.0525 3.14409Z" fill="white"/>
<path fill-rule="evenodd" clip-rule="evenodd" d="M18.9223 2.74378C19.2479 3.06906 19.2481 3.59669 18.9228 3.92229L10.5895 12.264C10.4333 12.4204 10.2213 12.5083 10.0002 12.5083C9.77908 12.5084 9.56703 12.4206 9.4107 12.2643L6.9107 9.76426C6.58527 9.43882 6.58527 8.91118 6.9107 8.58574C7.23614 8.26031 7.76378 8.26031 8.08921 8.58574L9.99966 10.4962L17.7437 2.74437C18.069 2.41877 18.5967 2.41851 18.9223 2.74378Z" fill="white"/>
</g>
<defs>
<clipPath id="clip0_5846_6618">
<rect width="20" height="20" fill="white"/>
</clipPath>
</defs>
</svg>
