<svg width="24" height="24" viewBox="0 0 24 24" fill="currentColor"
    xmlns="http://www.w3.org/2000/svg">
    <g clip-path="url(#clip0_1924_4040)">
        <path
            d="M10.501 10H9.50098C9.36837 10 9.24119 9.94732 9.14742 9.85355C9.05365 9.75979 9.00098 9.63261 9.00098 9.5C9.00098 9.36739 8.9483 9.24021 8.85453 9.14645C8.76076 9.05268 8.63358 9 8.50098 9C8.36837 9 8.24119 9.05268 8.14742 9.14645C8.05365 9.24021 8.00098 9.36739 8.00098 9.5C8.00098 9.89782 8.15901 10.2794 8.44032 10.5607C8.72162 10.842 9.10315 11 9.50098 11V11.5C9.50098 11.6326 9.55365 11.7598 9.64742 11.8536C9.74119 11.9473 9.86837 12 10.001 12C10.1336 12 10.2608 11.9473 10.3545 11.8536C10.4483 11.7598 10.501 11.6326 10.501 11.5V11C10.8988 11 11.2803 10.842 11.5616 10.5607C11.8429 10.2794 12.001 9.89782 12.001 9.5V9C12.001 8.60218 11.8429 8.22064 11.5616 7.93934C11.2803 7.65804 10.8988 7.5 10.501 7.5H9.50098C9.36837 7.5 9.24119 7.44732 9.14742 7.35355C9.05365 7.25979 9.00098 7.13261 9.00098 7V6.5C9.00098 6.36739 9.05365 6.24021 9.14742 6.14645C9.24119 6.05268 9.36837 6 9.50098 6H10.501C10.6336 6 10.7608 6.05268 10.8545 6.14645C10.9483 6.24021 11.001 6.36739 11.001 6.5C11.001 6.63261 11.0537 6.75979 11.1474 6.85355C11.2412 6.94732 11.3684 7 11.501 7C11.6336 7 11.7608 6.94732 11.8545 6.85355C11.9483 6.75979 12.001 6.63261 12.001 6.5C12.001 6.10218 11.8429 5.72064 11.5616 5.43934C11.2803 5.15804 10.8988 5 10.501 5V4.5C10.501 4.36739 10.4483 4.24021 10.3545 4.14645C10.2608 4.05268 10.1336 4 10.001 4C9.86837 4 9.74119 4.05268 9.64742 4.14645C9.55365 4.24021 9.50098 4.36739 9.50098 4.5V5C9.10315 5 8.72162 5.15804 8.44032 5.43934C8.15901 5.72064 8.00098 6.10218 8.00098 6.5V7C8.00098 7.39782 8.15901 7.77936 8.44032 8.06066C8.72162 8.34196 9.10315 8.5 9.50098 8.5H10.501C10.6336 8.5 10.7608 8.55268 10.8545 8.64645C10.9483 8.74021 11.001 8.86739 11.001 9V9.5C11.001 9.63261 10.9483 9.75979 10.8545 9.85355C10.7608 9.94732 10.6336 10 10.501 10Z"
            fill="#1D2939" />
        <path
            d="M14.501 16H5.50098C5.36837 16 5.24119 16.0527 5.14742 16.1464C5.05366 16.2402 5.00098 16.3674 5.00098 16.5C5.00098 16.6326 5.05366 16.7598 5.14742 16.8536C5.24119 16.9473 5.36837 17 5.50098 17H14.501C14.6336 17 14.7608 16.9473 14.8545 16.8536C14.9483 16.7598 15.001 16.6326 15.001 16.5C15.001 16.3674 14.9483 16.2402 14.8545 16.1464C14.7608 16.0527 14.6336 16 14.501 16Z"
            fill="#1D2939" />
        <path
            d="M14.501 18.5H5.50098C5.36837 18.5 5.24119 18.5527 5.14742 18.6464C5.05366 18.7402 5.00098 18.8674 5.00098 19C5.00098 19.1326 5.05366 19.2598 5.14742 19.3536C5.24119 19.4473 5.36837 19.5 5.50098 19.5H14.501C14.6336 19.5 14.7608 19.4473 14.8545 19.3536C14.9483 19.2598 15.001 19.1326 15.001 19C15.001 18.8674 14.9483 18.7402 14.8545 18.6464C14.7608 18.5527 14.6336 18.5 14.501 18.5Z"
            fill="#1D2939" />
        <path
            d="M14.501 13.5H5.50098C5.36837 13.5 5.24119 13.5527 5.14742 13.6464C5.05366 13.7402 5.00098 13.8674 5.00098 14C5.00098 14.1326 5.05366 14.2598 5.14742 14.3536C5.24119 14.4473 5.36837 14.5 5.50098 14.5H14.501C14.6336 14.5 14.7608 14.4473 14.8545 14.3536C14.9483 14.2598 15.001 14.1326 15.001 14C15.001 13.8674 14.9483 13.7402 14.8545 13.6464C14.7608 13.5527 14.6336 13.5 14.501 13.5Z"
            fill="#1D2939" />
        <path
            d="M19.5011 5.00046e-06H4.50112C3.83808 5.00046e-06 3.2022 0.263397 2.73335 0.732238C2.26451 1.20108 2.00112 1.83696 2.00112 2.50001C2.00112 25.355 1.90112 23.7 2.22112 23.915C2.54112 24.13 2.50112 24.035 5.00112 23.04C7.52612 24.04 7.43612 24.065 7.68612 23.965L10.0011 23.04L12.3161 23.965C12.5711 24.065 12.4811 24.045 15.0061 23.04C17.5061 24.04 17.3661 24 17.5061 24C17.6387 24 17.7659 23.9473 17.8597 23.8536C17.9534 23.7598 18.0061 23.6326 18.0061 23.5V5H21.5061C21.6387 5 21.7659 4.94733 21.8597 4.85356C21.9534 4.75979 22.0061 4.63261 22.0061 4.5V2.50001C22.0061 2.17128 21.9413 1.84578 21.8153 1.54214C21.6894 1.2385 21.5048 0.96268 21.2721 0.730468C21.0394 0.498256 20.7633 0.314212 20.4594 0.188869C20.1555 0.0635268 19.8298 -0.000652451 19.5011 5.00046e-06ZM17.0011 22.76C15.0761 21.99 15.0661 21.935 14.8161 22.035L12.5011 22.96C10.0811 21.995 10.0761 21.93 9.81612 22.035L7.50112 22.96L5.18612 22.035C4.93612 21.935 4.97612 21.97 3.00112 22.76V2.50001C3.00112 2.10218 3.15916 1.72065 3.44046 1.43934C3.72177 1.15804 4.1033 1.00001 4.50112 1.00001C18.5011 1.00001 17.5311 0.965005 17.4561 1.07001C16.8311 1.96501 17.0011 0.880007 17.0011 22.76ZM21.0011 4H18.0011V2.50001C18.0011 2.10218 18.1592 1.72065 18.4405 1.43934C18.7218 1.15804 19.1033 1.00001 19.5011 1.00001C19.8989 1.00001 20.2805 1.15804 20.5618 1.43934C20.8431 1.72065 21.0011 2.10218 21.0011 2.50001V4Z"
            fill="#1D2939" />
    </g>
    <defs>
        <clipPath id="clip0_1924_4040">
            <rect width="24" height="24" fill="white" />
        </clipPath>
    </defs>
</svg>