<svg width="46" height="47" viewBox="0 0 46 47" fill="none" xmlns="http://www.w3.org/2000/svg">
<rect x="3" y="3.5" width="40" height="40" rx="20" fill="#F2F4F7"/>
<rect x="3" y="3.5" width="40" height="40" rx="20" stroke="#F9FAFB" stroke-width="6"/>
<path d="M19.667 26.8333L23.0003 23.5M23.0003 23.5L26.3337 26.8333M23.0003 23.5V31M29.667 27.4524C30.6849 26.6117 31.3337 25.3399 31.3337 23.9167C31.3337 21.3854 29.2816 19.3333 26.7503 19.3333C26.5682 19.3333 26.3979 19.2383 26.3054 19.0814C25.2187 17.2374 23.2124 16 20.917 16C17.4652 16 14.667 18.7982 14.667 22.25C14.667 23.9718 15.3632 25.5309 16.4894 26.6613" stroke="#475467" stroke-width="1.66667" stroke-linecap="round" stroke-linejoin="round"/>
</svg>
