<svg width="17" height="17" viewBox="0 0 17 17" fill="none" xmlns="http://www.w3.org/2000/svg">
<path d="M3.16657 10.4348C2.67126 9.92874 2.29761 9.3166 2.07392 8.64475C1.85023 7.9729 1.78237 7.25896 1.87547 6.557C1.96858 5.85503 2.2202 5.18346 2.6113 4.59315C3.00239 4.00284 3.52269 3.50927 4.13279 3.14983C4.74289 2.79039 5.42679 2.5745 6.13268 2.51851C6.83857 2.46253 7.54795 2.56792 8.20708 2.8267C8.86621 3.08548 9.4578 3.49087 9.93706 4.01215C10.4163 4.53344 10.7706 5.15695 10.9732 5.83546H12.1666C12.8102 5.83539 13.4369 6.04234 13.9539 6.42576C14.4709 6.80917 14.8509 7.3487 15.0377 7.96467C15.2246 8.58063 15.2084 9.24035 14.9915 9.84638C14.7746 10.4524 14.3685 10.9726 13.8332 11.3301" stroke="#3CB043" stroke-width="1.33333" stroke-linecap="round" stroke-linejoin="round"/>
<path d="M8.5 8.5V14.5" stroke="#3CB043" stroke-width="1.33333" stroke-linecap="round" stroke-linejoin="round"/>
<path d="M11.1663 11.1667L8.49967 8.5L5.83301 11.1667" stroke="#3CB043" stroke-width="1.33333" stroke-linecap="round" stroke-linejoin="round"/>
</svg>
