<svg width="67" height="58" viewBox="0 0 67 58" fill="none" xmlns="http://www.w3.org/2000/svg">
<path d="M39.792 43.5112C47.726 43.5112 54.454 43.5112 54.454 43.5112V43.5087C60.5405 43.4572 65.46 38.5092 65.46 32.4102" stroke="#3CB043" stroke-width="1.5" stroke-miterlimit="10"/>
<path d="M65.46 32.409C65.46 26.8555 61.3805 22.254 56.055 21.4375C56.1835 20.8255 56.2515 20.1925 56.2515 19.543C56.2515 14.4575 52.1285 10.3345 47.043 10.3345C45.7685 10.3345 44.555 10.593 43.4515 11.061C40.8245 5.135 34.8945 1 27.995 1C18.6595 1 11.0925 8.567 11.0925 17.9025C11.0925 18.1135 11.1 18.322 11.1075 18.531C5.342 19.6935 1 24.787 1 30.8955C1 37.862 6.6475 43.51 13.614 43.51C13.9115 43.51 14.2055 43.496 14.4975 43.476V43.51C14.4975 43.51 19.295 43.51 25.5655 43.51" stroke="#3CB043" stroke-width="1.5" stroke-miterlimit="10"/>
<path d="M24 28.1052L33.2095 20.5312L42.417 28.1052" stroke="#3CB043" stroke-width="1.5" stroke-miterlimit="10"/>
<path d="M33.209 48.4882V20.7422" stroke="#3CB043" stroke-width="1.5" stroke-miterlimit="10"/>
</svg>
