<svg width="51" height="26" viewBox="0 0 51 26" fill="none" xmlns="http://www.w3.org/2000/svg">
<g clip-path="url(#clip0_1582_2042)">
<path d="M17.2588 18.9995L19.6417 5.5957H23.365L21.0565 18.9995H17.2588Z" fill="#3C58BF"/>
<path d="M17.2588 18.9995L20.3119 5.5957H23.365L21.0565 18.9995H17.2588Z" fill="#293688"/>
<path d="M34.5368 5.74416C33.7922 5.4463 32.6007 5.14844 31.1114 5.14844C27.3881 5.14844 24.7073 7.01008 24.7073 9.69085C24.7073 11.7014 26.569 12.7439 28.0583 13.4141C29.5476 14.0843 29.9944 14.5311 29.9944 15.1268C29.9944 16.0204 28.803 16.4672 27.7604 16.4672C26.2711 16.4672 25.452 16.2438 24.1861 15.7226L23.6648 15.4992L23.1436 18.5523C24.0371 18.9246 25.6754 19.2969 27.3881 19.2969C31.3348 19.2969 33.9411 17.4353 33.9411 14.6056C33.9411 13.0418 32.973 11.8504 30.7391 10.8823C29.3987 10.2121 28.5796 9.83978 28.5796 9.16959C28.5796 8.57386 29.2497 7.97813 30.7391 7.97813C32.005 7.97813 32.8986 8.20153 33.5688 8.4994L33.9411 8.64833L34.5368 5.74416Z" fill="#3C58BF"/>
<path d="M34.5368 5.74416C33.7922 5.4463 32.6007 5.14844 31.1114 5.14844C27.3881 5.14844 25.3775 7.01008 25.3775 9.69085C25.3775 11.7014 26.569 12.7439 28.0583 13.4141C29.5476 14.0843 29.9944 14.5311 29.9944 15.1268C29.9944 16.0204 28.803 16.4672 27.7604 16.4672C26.2711 16.4672 25.452 16.2438 24.1861 15.7226L23.6648 15.4992L23.1436 18.5523C24.0371 18.9246 25.6754 19.2969 27.3881 19.2969C31.3348 19.2969 33.9411 17.4353 33.9411 14.6056C33.9411 13.0418 32.973 11.8504 30.7391 10.8823C29.3987 10.2121 28.5796 9.83978 28.5796 9.16959C28.5796 8.57386 29.2497 7.97813 30.7391 7.97813C32.005 7.97813 32.8986 8.20153 33.5688 8.4994L33.9411 8.64833L34.5368 5.74416Z" fill="#293688"/>
<path d="M40.938 5.5957C40.0444 5.5957 39.3743 5.67017 39.0019 6.56376L33.417 18.9995H37.4381L38.1828 16.7656H42.9486L43.3954 18.9995H46.9698L43.8422 5.5957H40.938ZM39.2253 14.5316C39.4487 13.8614 40.7146 10.5849 40.7146 10.5849C40.7146 10.5849 41.0125 9.76579 41.2359 9.24452L41.4593 10.5104C41.4593 10.5104 42.2039 13.8614 42.3529 14.6061H39.2253V14.5316Z" fill="#3C58BF"/>
<path d="M41.8316 5.5957C40.938 5.5957 40.2678 5.67017 39.8955 6.56376L33.417 18.9995H37.4381L38.1828 16.7656H42.9486L43.3954 18.9995H46.9698L43.8422 5.5957H41.8316ZM39.2253 14.5316C39.5232 13.7869 40.7146 10.5849 40.7146 10.5849C40.7146 10.5849 41.0125 9.76579 41.2359 9.24452L41.4593 10.5104C41.4593 10.5104 42.2039 13.8614 42.3529 14.6061H39.2253V14.5316Z" fill="#293688"/>
<path d="M10.4111 14.9781L10.0388 13.042C9.36858 10.8081 7.20908 8.35069 4.82617 7.15924L8.17713 19.0738H12.1983L18.23 5.66992H14.2089L10.4111 14.9781Z" fill="#3C58BF"/>
<path d="M10.4111 14.9781L10.0388 13.042C9.36858 10.8081 7.20908 8.35069 4.82617 7.15924L8.17713 19.0738H12.1983L18.23 5.66992H14.9535L10.4111 14.9781Z" fill="#293688"/>
<path d="M0.0585938 5.5957L0.728785 5.74464C5.49459 6.86162 8.77108 9.69132 10.037 13.0423L8.69662 6.71269C8.47322 5.8191 7.80303 5.5957 6.98391 5.5957H0.0585938Z" fill="#FFBC00"/>
<path d="M0.0585938 5.5957C4.8244 6.71269 8.77108 9.61685 10.037 12.9678L8.77108 7.68074C8.54769 6.78716 7.80303 6.2659 6.98391 6.2659L0.0585938 5.5957Z" fill="#F7981D"/>
<path d="M0.0585938 5.5957C4.8244 6.71269 8.77108 9.61685 10.037 12.9678L9.14341 10.0636C8.92002 9.17006 8.62215 8.27647 7.57963 7.90414L0.0585938 5.5957Z" fill="#ED7C00"/>
<path d="M14.1312 14.5276L11.5994 11.9958L10.4079 14.8255L10.1101 12.9638C9.43987 10.7299 7.28036 8.27251 4.89746 7.08105L8.24842 18.9956H12.2696L14.1312 14.5276Z" fill="#051244"/>
<path d="M21.057 18.9956L17.8546 15.7188L17.2588 18.9956H21.057Z" fill="#051244"/>
<path d="M29.6191 14.3789C29.917 14.6768 30.0659 14.9002 29.9915 15.198C29.9915 16.0916 28.8 16.5384 27.7575 16.5384C26.2682 16.5384 25.4491 16.315 24.1831 15.7938L23.6619 15.5704L23.1406 18.6235C24.0342 18.9958 25.6725 19.3681 27.3852 19.3681C29.7681 19.3681 31.7042 18.6979 32.8212 17.5065L29.6191 14.3789Z" fill="#051244"/>
<path d="M33.9385 18.9943H37.4384L38.183 16.7603H42.9488L43.3956 18.9943H46.97L45.7041 13.5583L41.2361 9.23926L41.4595 10.4307C41.4595 10.4307 42.2042 13.7817 42.3531 14.5263H39.2255C39.5234 13.7817 40.7149 10.5796 40.7149 10.5796C40.7149 10.5796 41.0127 9.76052 41.2361 9.23926" fill="#051244"/>
</g>
<defs>
<clipPath id="clip0_1582_2042">
<rect width="50.8229" height="25.4114" fill="white" transform="translate(0.0585938 0.529297)"/>
</clipPath>
</defs>
</svg>
